<svg xmlns="http://www.w3.org/2000/svg" viewBox="0 0 800.00006 499.99999"><path d="M263.7133 95.91193c-.049.8-.072 1.598-.072 2.39 4.466 2.189 9.43 3.555 14.70501 3.883 21.44999 1.33 39.914-14.978 41.24599-36.425.049-.803.07-1.598.072-2.39-4.46901-2.19-9.43001-3.557-14.70501-3.884-21.44999-1.33-39.915 14.977-41.246 36.426" style="fill:#50b848" transform="translate(-814.65386 -80.846865) scale(3.64384)"/><path d="M242.0649 67.30553c1.874 18.629 17.00701 33.697 36.30401 34.896 8.29499.514 16.13799-1.611 22.725-5.649-1.874-18.629-17.008-33.697-36.302-34.894-8.295-.515-16.143 1.61-22.727 5.647" style="fill:#0e6c3e" transform="translate(-814.65386 -80.846865) scale(3.64384)"/><path d="M250.8364 88.19713c6.616 7.971 16.379 13.299 27.535 13.992 11.726.728 22.562-3.819 30.194-11.596-6.616-7.97-16.38-13.298-27.535-13.99-11.727-.728-22.564 3.818-30.194 11.594" style="fill:#724f35" transform="translate(-814.65386 -80.846865) scale(3.64384)"/><path d="M250.9087 88.18103c9.87601-4.601 21.619-5.051 32.34201-.249 5.62399 2.517 10.347 6.207 14.03099 10.648 4.20001-1.979 8.00601-4.689 11.23401-7.979-6.61401-7.971-16.37801-13.3-27.53101-13.991-11.728-.729-22.56499 3.817-30.196 11.594" style="fill:#0c9347" transform="translate(-814.65386 -80.846865) scale(3.64384)"/><path d="M251.102 87.99893c8.93501-6.235 20.424-8.704 31.816-5.825 8.319 2.101 15.32501 6.74 20.41 12.877 1.881-1.338 3.64101-2.838 5.25601-4.484-6.615-7.971-16.37701-13.299-27.53101-13.991-11.72899-.728-22.566 3.818-30.19599 11.594" style="fill:#11b9df" transform="translate(-814.65386 -80.846865) scale(3.64384)"/><path d="M276.2758 87.25083c-8.676-2.615-17.551-2.052-25.381 1.014.086.105.175.207.263.31 7.388-2.74 15.695-3.186 23.82-.737 7.511 2.264 13.783 6.672 18.36 12.352.54-.185 1.077-.38 1.608-.588-4.711-5.668-11.083-10.065-18.67-12.351m-20.962 5.519c.41.354.826.7 1.249 1.038 1.085.225 2.172.498 3.253.824 4.812 1.45 9.117 3.785 12.79 6.766.91.194 1.831.358 2.764.488-4.02299-3.489-8.827-6.207-14.257-7.843-1.928-.58-3.863-1-5.799-1.273m17.171-3.821c-7.195-2.169-14.528-2.148-21.29-.331.109.127.216.257.328.383 6.27601-1.532 13.03-1.463 19.665.536 7.277 2.193 13.397 6.403 17.931 11.832.582-.128 1.162-.269 1.736-.423-4.681-5.498-10.942-9.759-18.37-11.997m-3.789 1.698c-5.637-1.698-11.357-2.053-16.823-1.255.147.163.296.325.446.486 4.921-.566 10.033-.164 15.076 1.357 6.837 2.059 12.651 5.898 17.088 10.854.637-.06 1.272-.135 1.897-.227-4.599-5.118-10.615-9.084-17.684-11.215m-15.6.042c.219.22.44.439.662.654 3.266.086 6.57.603 9.847 1.591 6.103 1.838 11.387 5.093 15.609 9.295.722.031 1.442.04 2.155.029-4.42599-4.488-10.00299-7.965-16.464-9.913-3.934-1.186-7.908-1.714-11.809-1.656" style="fill:#50b848" transform="translate(-814.65386 -80.846865) scale(3.64384)"/><path d="m352.6967 97.74063-.35399 4.084c-2.24801.676-4.69901 1.015-7.351 1.015-6.28501 0-11.01101-1.723-14.17001-5.168-3.16199-3.445-4.742-7.653-4.742-12.624 0-5.209 1.762-9.701 5.291-13.475 3.525-3.774 8.267-5.662 14.226-5.662 1.647 0 3.383.248 5.211.741l-.771 4.36c-2.102-.659-3.973-.988-5.621-.988-4.42 0-7.776 1.37-10.059 4.112-2.283 2.741-3.426 6.096-3.426 10.062 0 4.039 1.316 7.502 3.948 10.389 2.63 2.888 6.269 4.332 10.912 4.332 1.769 0 4.074-.393 6.906-1.178m26.98831-10.774c-4.29501-10.728-6.441-16.431-6.441-17.106h-.301c0 .566-2.221 6.268-6.662 17.106zm10.5 15.133H384.4c0-1.225-1.151-5.072-3.451-11.541h-15.821c-2.265 6.377-3.4 10.224-3.4 11.541h-5.53699c0-.677 2.35699-6.521 7.07399-17.532 4.71301-11.011 7.07001-17.065 7.07001-18.162h6.36199c0 1.079 2.24801 7.046 6.74401 17.901 4.49599 10.856 6.744 16.788 6.744 17.793m25.78319-25.715c0-4.35-2.94299-6.525-8.82799-6.525-2.102 0-3.865.119-5.29101.357.12701 3.18.193 7.502.193 12.967 1.096.036 2.14701.055 3.153.055 7.179 0 10.773-2.285 10.773-6.854m8.38901 25.715h-5.291c-1.756-5.246-3.034-8.718-3.83801-10.418-1.024-2.137-2.18599-3.518-3.48299-4.139-1.023-.494-2.859-.741-5.509-.741-1.55501 0-2.93601.019-4.14101.055 0 5.903.111 10.984.33 15.242h-5.1c.274-5.665.413-11.916.413-18.752 0-6.433-.139-12.081-.413-16.942h3.866c.822 0 1.865-.027 3.125-.083 1.263-.054 2.705-.082 4.332-.082 8.004 0 12.006 2.76 12.006 8.28 0 4.588-2.247 7.813-6.743 9.677v.274c2.01.603 3.637 2.001 4.881 4.195 1.041 1.828 2.897 6.305 5.565 13.434m-175.7571 17.2498-.085 1.004c-.555.166-1.156.249-1.805.249-1.544 0-2.703-.423-3.48-1.269-.776-.845-1.165-1.878-1.165-3.1 0-1.277.433-2.38 1.298-3.307.866-.927 2.032-1.39 3.495-1.39.402 0 .83.061 1.278.182l-.186 1.07c-.519-.162-.979-.242-1.381-.242-1.085 0-1.909.336-2.471 1.009-.56.673-.841 1.496-.841 2.47 0 .991.323 1.842.97 2.551.644.709 1.539 1.063 2.678 1.063.433.001 1.001-.096 1.695-.29m6.2128-2.6445c-1.055-2.632-1.582-4.033-1.582-4.199h-.074c0 .139-.546 1.539-1.636 4.199zm2.578 3.716h-1.421c0-.3-.281-1.245-.847-2.834h-3.883c-.557 1.566-.835 2.51-.835 2.834h-1.363c0-.166.582-1.601 1.739-4.304 1.157-2.703 1.738-4.19 1.738-4.458h1.562c0 .264.55001 1.73 1.653 4.394 1.105 2.666 1.657 4.122 1.657 4.368m7.092-4.3952c0-.996-.316-1.828-.951-2.497-.63299-.669-1.616-1.003-2.945-1.003-.18899 0-.446.023-.773.068.035 1.046.053 2.12.053 3.224 0 1.211.024 2.44.075 3.688.35699.072.70399.109 1.03499.109 1.185 0 2.067-.352 2.64301-1.054.57599-.703.86299-1.547.86299-2.535m1.172-.302c0 1.274-.406 2.391-1.223 3.351-.812.961-1.936 1.441-3.368 1.441-.46799 0-1.244-.032-2.335-.094.067-1.392.102-2.926.102-4.604 0-1.58-.034-2.965-.102-4.159h.741c.17901 0 .452-.007.822-.02.37-.014.609-.02.72701-.02 1.58299 0 2.75299.388 3.505 1.167.75599.778 1.13099 1.757 1.13099 2.938m6.50861.9812c-1.05399-2.632-1.581-4.033-1.581-4.199h-.075c0 .139-.545 1.539-1.634 4.199zm2.578 3.716h-1.42099c0-.3-.28201-1.245-.84701-2.834h-3.88399c-.557 1.566-.83301 2.51-.83301 2.834h-1.36099c0-.166.579-1.601 1.737-4.304 1.157-2.703 1.736-4.19 1.736-4.458h1.56099c0 .264.553 1.73 1.657 4.394 1.10301 2.666 1.65501 4.122 1.65501 4.368m6.45519-2.2692c0 1.661-1.15699 2.491-3.46899 2.491-.842 0-1.593-.096-2.24501-.289l.23501-1.057c.75299.26 1.469.39 2.148.39 1.524 0 2.28599-.43 2.28599-1.291 0-.436-.197-.808-.591-1.118-.265-.207-.78499-.482-1.562-.828-.817-.363-1.388-.696-1.715-1.004-.454-.419-.68099-.95-.68099-1.586 0-.665.23099-1.205.69399-1.623.515-.466 1.245-.7 2.188-.7 1.066 0 1.797.07 2.192.209l-.161 1.07c-.682-.215-1.406-.323-2.173-.323-1.155 0-1.73.386-1.73 1.158 0 .373.167.685.498.936.216.157.69.395 1.427.712.839.363 1.444.71 1.817 1.037.561.494.842 1.1.842 1.816m7.5371-6.4932-.033.948c-.88799-.045-1.80599-.066-2.75399-.066-.009.859-.014 1.952-.014 3.277 0 1.463.025 2.997.068 4.604h-1.23001c.053-1.532.079-3.066.079-4.604 0-1.306-.012-2.399-.038-3.277-.66601 0-1.59901.026-2.802.079l.035-.961zm5.98931 2.4483c0-1.066-.721-1.601-2.16601-1.601-.51599 0-.948.03-1.29999.088.032.78.048 1.842.048 3.183.26999.009.52599.014.77499.014 1.76401 0 2.643-.561 2.643-1.684m2.061 6.314h-1.298c-.432-1.288-.746-2.14-.945-2.558-.25-.525-.536-.863-.853-1.016-.251-.12-.702-.181-1.353-.181-.381 0-.719.004-1.016.013 0 1.449.026 2.696.079 3.742h-1.251c.066-1.391.1-2.925.1-4.603 0-1.581-.034-2.966-.1-4.159h.95c.199 0 .454-.008.765-.02.311-.014.665-.021 1.063-.021 1.966 0 2.948.677 2.948 2.032 0 1.127-.55 1.918-1.655 2.377v.067c.494.148.893.492 1.198 1.03.256.448.712 1.547 1.368 3.297m8.14411-4.3609c0-1.157-.307-2.054-.91101-2.688-.61-.635-1.31099-.954-2.106-.954-.735 0-1.39.335-1.96399 1.004-.57501.668-.86301 1.561-.86301 2.678 0 1.162.308 2.061.919 2.695.61301.635 1.313.953 2.10401.953.73599 0 1.389-.34 1.96299-1.016.57101-.678.85801-1.568.85801-2.672m1.198-.156c0 1.451-.42601 2.61-1.274 3.477-.84901.868-1.828 1.304-2.94101 1.304-1.068 0-2.004-.4-2.81099-1.196-.80501-.796-1.207-1.872-1.207-3.226 0-1.468.423-2.631 1.273-3.491.846-.858 1.826-1.289 2.941-1.289 1.066 0 2.004.399 2.81 1.196.805.795 1.209 1.871 1.209 3.225m9.49529.801c-1.054-2.632-1.582-4.033-1.582-4.199h-.072c0 .139-.549 1.539-1.636 4.199zm2.577 3.716h-1.418c0-.3-.285-1.245-.847-2.834h-3.884c-.557 1.566-.83499 2.51-.83499 2.834h-1.36c0-.166.57799-1.601 1.73699-4.304 1.158-2.703 1.735-4.19 1.735-4.458h1.563c0 .264.55001 1.73 1.65601 4.394 1.101 2.666 1.653 4.122 1.653 4.368m10.72279.0003h-1.26799c0-1.001-.066-2.448-.207-4.342-.138-1.894-.212-3.029-.221-3.405h-.068c-.448 1.456-1.01701 3.041-1.706 4.748-.688 1.707-1.033 2.708-1.033 2.999h-.91001c0-.314-.319-1.332-.962-3.052-.64-1.721-1.047-2.874-1.216-3.456-.173-.584-.289-.997-.35-1.239h-.069c-.012.615-.102 1.856-.266 3.721-.162 1.868-.244 3.21-.244 4.026h-1.159c0-.045.154-1.28.458-3.705.305-2.425.457-4.112.457-5.058h1.772c0 .492.358 1.727 1.076 3.702.717 1.974 1.075 3.169 1.075 3.587h.07c0-.418.402-1.616 1.211-3.597.808-1.981 1.21-3.212 1.21-3.692h1.729c0 .946.104 2.625.31 5.034.207 2.409.311 3.653.311 3.729m7.38871-2.5581c0-1.104-.977-1.655-2.93401-1.655-.361 0-.674.012-.949.04 0 1.198.026 2.267.075 3.21.169.041.471.061.903.061 1.07901 0 1.844-.142 2.30001-.425.404-.254.605-.665.605-1.231m-.54501-3.977c0-.929-.625-1.394-1.876-1.394-.63 0-1.139.034-1.529.101.036.323.054 1.237.054 2.74.22.009.46301.012.727.012.889 0 1.536-.099 1.93901-.301.457-.225.68499-.61.68499-1.158m1.682 3.863c0 .871-.369 1.544-1.11 2.018-.72399.464-1.713.695-2.97299.695-.351 0-1.03701-.015-2.06001-.041.064-1.391.094-2.926.094-4.603 0-1.581-.03-2.966-.094-4.16h.807c.158 0 .47301-.007.95001-.02.475-.014.81899-.02 1.03699-.02 1.866 0 2.798.644 2.798 1.93 0 1.007-.44099 1.675-1.326 2.007v.067c1.252.225 1.877.934 1.877 2.127m3.2107 2.6721h-1.27699c.066-1.454.099-2.989.099-4.604 0-1.588-.033-2.975-.099-4.159h1.27699c-.062 1.225-.094 2.611-.094 4.159 0 1.625.032 3.159.094 4.604m7.998-1.0156-.043 1.016h-5.42399c.061-1.391.096-2.926.096-4.603 0-1.581-.035-2.966-.096-4.16h5.08799l-.053 1.003c-1.23399-.055-2.543-.082-3.923-.082.027.697.039 1.637.039 2.821 1.193 0 2.25701-.027 3.18901-.081v1.003c-.996-.041-2.05901-.06-3.18901-.06 0 1.152.019 2.235.06 3.244 1.49 0 2.908-.035 4.25599-.101m8.46682 1.0156h-.943c0-.076-.73701-1.151-2.207-3.224-1.539-2.176-2.416-3.549-2.633-4.12h-.069c.082 1.083.12299 2.009.12299 2.782 0 1.506.034 3.027.102 4.562h-1.131c.076-1.458.11301-2.994.11301-4.604 0-1.583-.037-2.971-.11301-4.159h1.29301c0 .126.676 1.148 2.031 3.069 1.418 2.019 2.225 3.333 2.424 3.944h.067c-.077-1.095-.116-2.023-.116-2.786 0-1.66-.031-3.07-.093-4.227h1.15201c-.076 1.188-.115 2.576-.115 4.159-.002 1.61.037 3.146.115 4.604m8.13279-8.7627-.031.948c-.889-.045-1.805-.066-2.752-.066-.01.859-.014 1.952-.014 3.277 0 1.463.022 2.997.068 4.604h-1.232c.053-1.532.082-3.066.082-4.604 0-1.306-.014-2.399-.041-3.277-.664 0-1.6.026-2.801.079l.034-.961zm5.7168 5.0464c-1.057-2.632-1.582-4.033-1.582-4.199h-.074c0 .139-.54499 1.539-1.635 4.199zm2.578 3.716h-1.42201c0-.3-.279-1.245-.84699-2.834h-3.885c-.55501 1.566-.832 2.51-.832 2.834h-1.36201c0-.166.581-1.601 1.739-4.304 1.156-2.703 1.736-4.19 1.736-4.458h1.561c0 .264.552 1.73 1.656 4.394 1.105 2.666 1.656 4.122 1.656 4.368m6.6759-.9899-.039.99h-5.297c.053-1.109.082-2.642.082-4.603 0-1.687-.029-3.074-.082-4.159h1.254c-.057.906-.082 2.292-.082 4.159 0 1.534-.025 2.763-.074 3.688 1.345 0 2.75799-.025 4.23799-.075m8.98051-5.3242c0-1.066-.72299-1.601-2.168-1.601-.51799 0-.94899.03-1.30099.088.031.78.047 1.842.047 3.183.27.009.529.014.776.014 1.763 0 2.646-.561 2.646-1.684m2.059 6.314h-1.301c-.43-1.288-.742-2.14-.94-2.558-.254-.525-.537-.863-.857-1.016-.25-.12-.703-.181-1.352-.181-.38 0-.722.004-1.015.013 0 1.449.027 2.696.078 3.742h-1.25c.068-1.391.101-2.925.101-4.603 0-1.581-.033-2.966-.101-4.159h.949c.203 0 .457-.008.768-.02.308-.014.664-.021 1.064-.021 1.965 0 2.947.677 2.947 2.032 0 1.127-.552 1.918-1.654 2.377v.067c.49.148.891.492 1.195 1.03.256.448.711 1.547 1.368 3.297m8.73589-8.7623c-.018.847-.031 1.639-.043 2.375-.008.736-.012 1.423-.012 2.06 0 3.006-1.187 4.509-3.56001 4.509-.621 0-1.15099-.089-1.58999-.266-.44501-.178-.807-.448-1.092-.813-.28501-.367-.494-.828-.62701-1.384-.13299-.558-.197-1.213-.197-1.972 0-.664-.004-1.371-.014-2.117s-.023-1.545-.041-2.392h1.28c-.055 1.709-.081 3.048-.081 4.017 0 .781.036 1.417.114 1.909.076.491.211.9.406 1.228.197.327.443.559.736.697.297.135.674.204 1.131.204.483 0 .873-.069 1.172-.204.299-.138.543-.365.732-.681.19-.315.325-.723.405-1.217.082-.497.121-1.146.121-1.95 0-.475-.006-1.044-.024-1.705-.015-.661-.039-1.429-.07-2.298zm6.9571 2.4483c0-1.066-.721-1.601-2.166-1.601-.516 0-.949.03-1.29899.088.029.78.047 1.842.047 3.183.26799.009.52699.014.773.014 1.762 0 2.645-.561 2.645-1.684m2.06099 6.314h-1.299c-.42999-1.288-.744-2.14-.942-2.558-.25-.525-.53499-.863-.85699-1.016-.25-.12-.69901-.181-1.352-.181-.381 0-.71801.004-1.015.013 0 1.449.027 2.696.08 3.742h-1.25199c.07-1.391.101-2.925.101-4.603 0-1.581-.031-2.966-.101-4.159h.951c.201 0 .457-.008.766-.02.31-.014.666-.021 1.062-.021 1.967 0 2.951.677 2.951 2.032 0 1.127-.552 1.918-1.656 2.377v.067c.492.148.891.492 1.197 1.03.254.448.711 1.547 1.366 3.297m6.28268-3.7159c-1.053-2.632-1.578-4.033-1.578-4.199h-.074c0 .139-.54501 1.539-1.63701 4.199zm2.582 3.716h-1.422c0-.3-.281-1.245-.848-2.834h-3.882c-.559 1.566-.836 2.51-.836 2.834h-1.36c0-.166.579-1.601 1.737-4.304 1.158-2.703 1.738-4.19 1.738-4.458h1.559c0 .264.552 1.73 1.656 4.394 1.105 2.666 1.658 4.122 1.658 4.368m6.6739-.9899-.039.99h-5.297c.053-1.109.08-2.642.08-4.603 0-1.687-.027-3.074-.08-4.159h1.25c-.053.906-.078 2.292-.078 4.159 0 1.534-.025 2.763-.074 3.688 1.347 0 2.758-.025 4.238-.075" style="fill:#0c9347" transform="translate(-814.65386 -80.846865) scale(3.64384)"/></svg>