<svg xmlns="http://www.w3.org/2000/svg" viewBox="0 0 800.00006 499.99999"><path d="M239.0613 161.5928c.2663-4.1832.5996-8.3589.9936-12.5218l.4563-4.8155 4.5531 1.6329c6.8618 2.4612 12.6093 6.4474 16.967 12.0612.9973-4.5386 2.1343-9.075 3.4124-13.6083l1.19-4.2229 3.9895 1.8256c3.7946 1.7355 7.1528 4.333 10.0998 7.2918.1041-1.1713.2099-2.3425.3172-3.5133l.1219-1.3248-.014-.009 1.1412-12.7698.1198.0875c2.2808-22.0826 5.143-44.1014 8.4652-66.0509 2.0017-16.6959 5.8076-16.5429 7.4405.0725 2.8466 21.6505 5.2032 43.366 7.0438 65.126l.004-.003.0885 1.1031c.0569.6774.1133 1.3548.1686 2.0323l.1653 2.006-.009.007.2319 2.8863.021-.015.2405 3.2626.1422 1.7704-.0113.008.1251 1.6952c.1058 1.4354.2094 2.8708.3108 4.3067 3.1596-3.1982 6.7872-5.9976 10.9125-7.8039l3.9127-1.7135 1.2008 4.0995c1.3398 4.5751 2.5321 9.1518 3.5799 13.7286 4.4538-5.623 10.3236-9.5502 17.2687-11.9362l4.4913-1.5433.4686 4.726c.4139 4.1746.765 8.3632 1.0484 12.5609 4.4865-4.8553 10.3005-7.1474 17.6412-6.6535l2.8434.1911.5824 2.7902c.9684 4.6374 1.6308 9.3419 2.0259 14.0796 4.5171-4.0759 9.6634-6.6568 15.6137-8.6451l4.5499-1.5207.3859 4.7823c.4091 5.0646.4955 10.212.2964 15.4151 3.648-3.1816 7.7953-5.6675 12.489-7.1968l4.0947-1.335.7671 4.238c1.109 6.1264 1.2705 12.663.6677 19.4588 4.7829-3.487 10.2646-5.3116 16.4834-5.0818l3.6486.1342-.0296 3.6512c-.0418 5.1141-.6065 10.248-1.5803 15.3491 5.2327-1.9829 10.6624-3.3786 16.2482-3.9406l4.2665-.4294-.1342 4.2863c-.1868 5.938-1.4209 12.0451-3.3351 18.1061 6.8484-2.8558 13.7741-3.1349 21.1502-.6517l4.0023 1.3473-1.8041 3.8188c-2.4827 5.2557-5.1903 10.4304-8.0949 15.5214 6.2687-1.8391 12.6984-2.1767 19.163-.2985l4.0765 1.1842-1.6705 3.9025c-2.3389 5.4656-5.244 10.9034-8.5973 16.2804 5.2493-1.3505 10.6607-1.3033 16.1129-.0622l4.0984.9324-1.3844 3.9685c-2.3141 6.6359-5.4951 12.9486-9.3547 18.9521 4.719-.8085 9.4294-.2003 14.0324 1.6812l4.1038 1.678-2.3276 3.7731c-3.4537 5.5983-7.4303 10.8878-11.8213 15.8859 5.346-.2496 10.7799.7328 14.7898 4.5853l1.6136 1.5503-.5937 2.1568c-1.3248 4.8124-5.1393 9.4626-9.9591 13.6979 4.7661.1364 9.4583 1.2465 13.4622 4.0383l3.2514 2.2675-2.4376 3.1257c-3.8338 4.9154-9.0724 9.3585-14.7983 13.2975 5.056 1.3033 9.0428 4.165 11.8341 9.1582l1.4515 2.596-2.1933 2.0087c-3.3598 3.0769-7.1797 5.9009-11.3393 8.4963 4.1623 1.8611 7.0208 5.2483 8.2076 10.073l.7021 2.8536-2.6002 1.3688c-3.7092 1.9523-7.4115 3.7737-11.1154 5.471 4.4812 1.648 7.579 5.1253 8.5173 10.818l.3656 2.2202-1.7843 1.3704c-4.953 3.8048-10.5276 6.8243-16.4957 9.2157 4.2111 2.6486 6.6122 6.8506 7.4899 12.0414l.5389 3.1891-3.0731 1.0076c-4.7281 1.5507-9.5249 2.8315-14.3705 3.8708 3.4923 2.7408 5.8295 6.3798 5.5982 11.2286l-.1342 2.8134-2.7387.6602c-3.9444.9507-7.8904 1.7296-11.8374 2.3383 2.8359 2.7044 4.5955 6.1721 4.0485 10.468l-.3307 2.5965-2.5498.5899c-4.5466 1.0522-9.082 1.8021-13.5991 2.2299 2.6356 3.0425 3.9358 6.7636 2.2175 11.0204l-.8428 2.0881-2.2389.2416c-3.931.4235-7.8206.591-11.6641.4863 1.1982 3.7125.1418 7.5999-1.5615 11.0891l-1.2067 2.4719-2.721-.4036c-2.5766-.3822-5.2558-.8535-7.9639-1.4456.7955 2.7269.1052 5.8457-1.2899 8.7068l-1.313 2.6909-2.9159-.6785c-1.4686-.3414-2.933-.7107-4.3877-1.1128.6806 1.4757 1.0693 3.2407 1.1251 5.4007l.1122 4.3615-4.3303-.5357c-7.1426-.8841-13.7135-2.5707-19.9725-5.6004 34.249 23.3677 77.4245 13.5782 112.9409-3.224l7.8855-3.7302c3.4452-2.0183 6.185.6152 3.1092 4.0136l-6.9386 5.9633c-18.3466 15.7672-41.4041 24.4467-65.4895 25.6555-9.7186.4874-19.5355-.2533-29.1028-2.2067 20.3064 17.1844 45.2136 27.2498 71.1054 32.9725l6.9203 1.4553c6.1291 1.1208 5.4871 5.8054-.6823 5.7807l-6.9992.1901c-30.207.3999-57.1214-7.2027-81.8558-22.926 5.1108 7.3579 9.6017 15.1553 13.3415 23.3903 9.0332 19.8909 13.086 41.0642 12.2679 62.8865-1.1342 30.2575-11.8272 56.7349-24.4408 83.6325-1.4815 2.7801-4.5353 2.0946-4.107-.4358 8.257-49.5939 19.6182-100.351-5.5102-147.853-10.3596-19.5828-25.5546-34.7821-44.1663-46.524-.1197.8546-.3098 1.6979-.5701 2.5229-4.7345 15.0083-30.1072 20.1245-48.0227 21.3017-3.378.1862-6.7502.3306-10.1357.2748-15.3003-.4445-46.7092-2.539-54.0268-19.0326-.9335-2.1037-1.4166-4.3056-1.5078-6.5559-18.126 10.0091-33.2636 23.459-44.2394 41.1861-11.6914 18.8823-17.3175 40.4314-19.2612 62.4029-2.2884 25.8665.3929 52.6354 5.0673 78.1019l2.3173 11.4681c.9018 5.5231-1.8562 5.8801-3.9948 1.8992l-5.4313-11.117c-19.9118-43.2366-25.1182-89.7171-4.6309-133.7777 3.7994-8.1716 8.33-15.9138 13.4644-23.2217-4.2391 2.6845-8.5951 5.1822-13.0725 7.4566-21.1878 10.7611-43.3918 15.6073-67.1503 14.5997-3.3174-.1417-6.6348-.2829-9.9527-.4241-4.1408-.4251-4.6068-3.9787-.3564-4.7726l9.7202-2.2207c25.5745-5.8441 50.0003-15.8956 70.2084-32.679-32.2694 6.448-67.0912-.788-93.0237-22.2201-2.5638-2.2158-5.1275-4.4317-7.6918-6.6482-3.1622-2.6914-1.7547-5.6964 2.1875-4.0366l9.4309 4.2546c34.2217 15.2965 74.8828 23.9292 108.0154 4.7554-3.4355.9609-6.9913 1.6206-10.7064 2.0549l-4.3641.51.1728-4.39c.0843-2.1326.4826-3.8783 1.1632-5.3394-1.3886.3746-2.7859.7187-4.1886 1.0376l-2.9652.6737-1.2776-2.7597c-1.321-2.8552-1.9566-5.9525-1.1503-8.6547-2.6207.555-5.2166.9952-7.7208 1.3511l-2.7644.3918-1.1735-2.5331c-1.627-3.5128-2.6034-7.3777-1.3774-11.0628-3.7468.066-7.5377-.1353-11.3661-.5905l-2.2588-.2684-.8095-2.1257c-1.6254-4.2691-.3038-7.9547 2.3399-10.9704-4.4082-.4687-8.8329-1.2567-13.2674-2.3453l-2.5492-.6259-.2894-2.6088c-.475-4.2826 1.2975-7.7304 4.1382-10.4149-3.8526-.6431-7.703-1.4542-11.5497-2.437l-2.7339-.6979-.0918-2.8197c-.1583-4.8403 2.1773-8.4492 5.6755-11.1681-4.7345-1.0816-9.418-2.4032-14.0307-3.9926l-3.0447-1.0495.5712-3.1697c.9324-5.1742 3.3512-9.3633 7.5559-11.9791-5.8334-2.4478-11.2711-5.521-16.0872-9.3751l-1.7387-1.3914.386-2.1939c.9947-5.6498 4.0769-9.1255 8.557-10.7423-3.6185-1.7323-7.2327-3.5896-10.8524-5.5778l-2.554-1.4027.723-2.823c1.2266-4.7903 4.0775-8.1721 8.2393-10.0053-4.0609-2.6389-7.7819-5.5038-11.0456-8.6188l-2.1171-2.0205 1.4407-2.5476c2.8091-4.9669 6.7824-7.8216 11.8476-9.0825-5.938-4.2493-10.9238-8.7444-14.4355-13.4494l-2.3254-3.1161 3.1934-2.2181c3.9728-2.7585 8.6075-3.8375 13.3184-3.9341-4.6937-4.2906-8.3879-8.986-9.6236-13.8209l-.5438-2.1278 1.5868-1.5181c3.9894-3.816 9.337-4.7694 14.6228-4.4741-4.2541-5.0502-8.0938-10.387-11.4117-16.0271l-2.2079-3.7533 4.0351-1.6351c4.5499-1.8433 9.1797-2.4171 13.8069-1.5765-3.7119-6.0465-6.7507-12.3962-8.9328-19.061l-1.2888-3.9385 4.0447-.8986c5.3551-1.1901 10.6736-1.1944 15.8092.1873-3.224-5.4157-6.0041-10.8878-8.2264-16.3813l-1.5669-3.8735 4.0173-1.1482c6.368-1.8208 12.6695-1.4397 18.8007.4428-2.7849-5.1242-5.3738-10.33-7.74-15.6132l-1.6979-3.7913 3.9422-1.3103c7.2607-2.4135 14.0565-2.0919 20.7407.7971-1.7945-6.0765-2.9186-12.1901-3.0179-18.1233l-.0719-4.2712 4.246.474c5.4871.6124 10.8062 2.0586 15.9214 4.0887-.9153-5.1129-1.4274-10.2527-1.4263-15.3679l.001-3.6502 3.6491-.1046c6.1925-.1777 11.5744 1.7177 16.2493 5.2729-.5653-6.8092-.3795-13.3506.737-19.4722l.7821-4.2917 4.1285 1.4102c4.5805 1.5637 8.6118 4.0619 12.1471 7.2263-.1465-5.1779-.0161-10.2973.4268-15.3325l.4235-4.8155 4.5617 1.5985c5.8747 2.0576 10.9178 4.704 15.3174 8.833.3811-4.7356 1.0253-9.4369 1.97-14.071l.5771-2.8284 2.8815-.1717c7.2816-.4338 13.0001 1.9598 17.3873 6.8274z" style="fill:#1b1918;fill-rule:evenodd" transform="translate(199.83642487 -36.3000255) scale(.69262)"/><path d="M363.625 519.9277c3.7285 1.7333 7.5865 2.7586 11.7337 2.2288-1.5857 6.1946-7.3052 4.8563-14.5202.7939.9286-1.0076 1.8573-2.0151 2.7865-3.0227zm-143.3789-.5803c-3.6845 1.7006-7.4861 2.692-11.5496 2.1257 1.4692 6.2086 7.1028 4.9203 14.2422.9212-.8975-1.0157-1.795-2.0313-2.6926-3.0469zm-6.0937-13.1085c.4134 2.1729 1.4757 4.1092 3.968 5.5268.1417 1.4644.2835 2.9288.4252 4.3932-5.2161 2.0607-10.5362 2.2609-15.9428.9211-.7086-3.4258.9217-5.2917 3.6137-6.448 3.3566-1.4643 5.7179-2.9287 7.9359-4.3931zm-14.7382-5.6685c4.647-1.1037 9.1465-2.6507 13.6045-4.3223 1.1574 1.2518 2.3147 2.5036 3.472 3.7554-12.1627 8.1518-21.5909 12.875-17.0765.5669zm14.3791-17.1957c-6.8393 3.881-13.3479 6.4941-18.9445 5.602-1.604 1.3607-2.5616 3.0468-2.0962 5.4463 3.4001 3.6534 9.8513 2.3887 18.0127-1.6335-1.8536-3.8413-1.283-4.8005 5.435-7.0803-.8025-.7783-1.605-1.5567-2.407-2.3345zm-24.2239-7.8581c5.5897 1.7123 11.1798 1.1412 16.7705-.4671 1.5267 1.7897 3.0539 3.5794 4.581 5.3691-7.4485 4.9519-19.0315 7.2494-25.7774.6999.5964-2.0886 2.1751-3.9304 4.4259-5.6019zm-11.3865-9.8803c.9201-2.8933 2.7876-4.8397 5.6026-5.8392 7.3975 3.4628 16.7163 3.2562 26.4344 2.2883.6576 1.4467 1.3151 2.8933 1.9727 4.34-5.0271.1492-8.7642 1.0822-7.8909 4.8134-11.8535 2.472-20.3692.3414-26.1188-5.6025zm4.1972-24.4966c6.3358 3.041 14.1505 5.7867 22.9791 8.3311 1.1208 2.9641 2.2417 5.9283 3.363 8.893-14.4682 1.6088-27.5198.2878-34.7493-13.1053 1.6823-2.4961 4.4849-3.8697 8.4072-4.1188zm.8369-16.4323c6.1452 5.5805 17.1849 9.3815 30.4502 12.3742.2823 2.2438.7671 4.7103 1.6984 7.2789-4.3276-.6066-8.0079-.2426-11.0397 1.0918-15.0018-4.5133-26.8199-9.8013-29.8436-17.2268 2.1026-2.7913 5.0147-3.9637 8.7347-3.5181zm-7.3997-17.0443c2.5642-1.6711 5.8988-2.1848 10.0048-1.5428 6.1269 7.8415 15.8354 14.1714 26.8407 19.9559-.0805 2.1525.0151 4.3056.1922 6.4592-20.6354-3.9159-33.8497-11.7021-37.0377-24.8723zm3.8236-19.9586c3.3818-1.2684 6.8629-1.437 10.4916 0 6.2998 9.482 18.6676 18.7991 34.0521 28.0363.0601 3.166.459 6.3325 1.0124 9.4996-2.6088-1.138-5.799-1.692-9.3875-1.8444-19.5044-10.4917-33.6033-22.0043-36.1686-35.6915zm4.1022-17.7781c3.772-.7724 7.5435-1.0902 11.3166-.409 7.6317 14.4006 19.8577 26.1827 33.6774 36.9497-4.0603.9013-4.0973.7869-4.4994 4.2267-17.7942-8.9752-32.52-21.2463-40.4946-40.7674zm11.453-18.4066c3.6813-.4542 7.3627.3634 11.044 2.4542 5.6009 15.0195 16.1672 29.609 30.1324 43.9033-.2732 3.1805-.3194 7.0438.1364 10.226-25.1193-18.7852-43.489-38.1634-41.3128-56.5835zm9.6805-12.8165c3.4425-.6823 7.3278-.1815 11.8621 2.0452 5.1881 18.0427 16.8972 36.0854 31.9049 54.1292-3.8633-1.1138-7.7271-1.6603-11.5894-.9544-16.6653-18.7196-29.3358-37.2294-32.1776-55.22zm16.2558-17.6004c3.1826.5067 6.2601 2.6963 9.2334 6.5709 3.8778 19.3095 13.8525 38.6207 24.8906 57.9324-1.9212 2.0092-3.2138 4.3346-4.4162 6.7051-17.0599-21.6709-39.0357-52.6418-29.7078-71.2084zm14.5391-13.5273c2.9346 1.0017 5.8687 1.5106 8.8045 7.0138 2.3495 22.0724 11.3274 45.6753 24.0258 70.1375-.4477.547-.8954 1.094-1.3431 1.6416-2.8858-1.4923-5.771-2.3877-8.6552-2.6862-18.9269-29.7625-31.3687-64.9005-22.832-76.1067zm13.1321-12.6844c3.6303.5915 7.3101 1.6324 11.3414 5.8199.1358 24.1053 7.01 51.098 15.5198 78.7928-1.5422.7956-3.0844 1.5916-4.6261 2.3877-20.3402-38.0287-26.9675-66.482-22.2351-87.0004zm35.0688 86.5527c-2.6738-29.1678-4.7373-58.0307-5.82-86.4035-2.8584-4.4516-5.9927-6.4404-9.2522-7.3122-13.4515 9.7799.8573 60.2707 9.9984 91.0296 1.6914.8954 3.3829 1.7907 5.0738 2.6861zm18.0207-.4015c3.1413-29.1404 4.5525-57.5508 6.0615-85.9102 2.9749-4.4253 6.1962-6.3862 9.5286-7.2285 13.5616 9.8985-.6324 59.8247-10.3832 90.4982-1.736.8803-3.4715 1.7601-5.2069 2.6405zm35.8557-85.798c-3.706.5593-7.469 1.5669-11.6356 5.7179-.4831 24.101-7.6262 51.3364-16.6905 78.9517 1.5594.809 3.1188 1.619 4.6776 2.4285 21.2624-37.8419 28.1753-66.5399 23.6485-87.0981zm13.1949 12.8004c-3.0039.9754-5.9997 1.4579-9.0686 6.9343-2.7092 22.0483-12.1916 45.5679-25.4762 69.9137.4482.5508.8964 1.102 1.3446 1.6533 2.961-1.4665 5.9123-2.3356 8.8545-2.6083 19.7046-29.5897 32.8808-64.6123 24.3457-75.893zm14.6159 13.6555c-3.2493.4783-6.4153 2.64-9.4992 6.4877-4.2261 19.272-14.663 38.4919-26.1826 57.7022 1.9281 2.0264 3.2116 4.363 4.4022 6.7437 17.6874-21.5152 40.5146-52.2859 31.2796-70.9336zm16.3056 17.7437c-3.4967-.7134-7.4614-.2469-12.1117 1.9384-5.5429 17.9944-17.7276 35.9303-33.2726 53.8373 3.9508-1.079 7.8946-1.5911 11.8186-.8503 17.2429-18.5683 30.4137-36.9626 33.5657-54.9254zm9.6773 12.9014c-3.7436-.4869-7.5049.2973-11.2844 2.3549-5.9203 14.9674-16.8913 29.4609-31.3209 43.6285.233 3.1826.2244 7.0459-.2851 10.2232 25.8547-18.558 44.8433-37.7694 42.8904-56.2066zm11.4021 18.5065c-3.8311-.8058-7.6681-1.1574-11.5212-.51-7.9795 14.3303-20.6011 26.0018-34.8321 36.6437 4.1232.9378 4.1623.8235 4.5225 4.2665 18.2537-8.8147 33.4289-20.9527 41.8308-40.4002zm3.924 17.8124c-3.4264-1.2985-6.9698-1.4982-10.6865-.0934-6.5527 9.424-19.2833 18.6295-35.086 27.7281-.1068 3.165-.5583 6.3278-1.1675 9.4895 2.6738-1.1144 5.931-1.6399 9.5882-1.7602 20.0171-10.3161 34.5433-21.7015 37.3518-35.364zm3.6094 19.9902c-2.5885-1.6935-5.9772-2.2368-10.1691-1.6318-6.3529 7.7856-16.3325 14.028-27.625 19.7132.051 2.1531-.0768 4.3051-.2883 6.4571 21.0751-3.7312 34.6463-11.3983 38.0824-24.5385zm-7.7814 16.9762c-6.3395 5.5252-17.6385 9.2269-31.1931 12.1004-.3199 2.2411-.8487 4.7028-1.8342 7.2628 4.4167-.5679 8.1603-.1707 11.2292 1.1906 15.3453-4.3786 27.4586-9.5603 30.645-16.9579-2.1021-2.8101-5.0512-4.0082-8.8469-3.5959zm.6173 16.4377c-6.4974 2.984-14.4961 5.6594-23.5255 8.1249-1.1842 2.9534-2.3684 5.9074-3.5531 8.8614 14.7146 1.7381 28.0277.5341 35.583-12.7929-1.678-2.5106-4.5128-3.9089-8.5044-4.1934zm3.9245 24.5309c-.8959-2.9008-2.7704-4.8639-5.6229-5.8886-7.5849 3.3963-17.0738 3.1064-26.9589 2.0522-.6903 1.4402-1.3806 2.8809-2.0715 4.3217 5.1184.1938 8.9119 1.1605 7.9687 4.8832 12.0387 2.5777 20.7428.5234 26.6846-5.3685zm-11.7397 9.7772c-5.7179 1.6625-11.4036 1.0414-17.0754-.6168-1.5803 1.7757-3.1617 3.552-4.7431 5.3277 7.5162 5.018 19.2816 7.4185 26.2465.9303-.5776-2.0941-2.159-3.9492-4.428-5.6412zm-24.7865 7.6407c6.9107 3.9417 13.5031 6.6128 19.2167 5.7706 1.6142 1.3752 2.5654 3.0694 2.057 5.4645-3.5154 3.6229-10.0686 2.3002-18.324-1.7945 1.9427-3.8241 1.3753-4.7882-5.435-7.1275.8288-.7714 1.6576-1.5422 2.4853-2.3131zm14.4001 17.3224c-4.7174-1.1455-9.2785-2.7323-13.7951-4.4436-1.197 1.2411-2.3936 2.4827-3.5906 3.7237 12.2722 8.2597 21.8083 13.0667 17.3857.7199zm-15.0931 5.5359c-.4519 2.1687-1.562 4.0952-4.1209 5.4904-.1654 1.4633-.3307 2.926-.496 4.3888 5.2836 2.1075 10.6999 2.3549 16.2262 1.0639.7708-3.4194-.8632-5.2992-3.5885-6.4796-3.3984-1.4945-5.7823-2.9798-8.0208-4.4635z" style="fill:#f07c00;fill-rule:evenodd" transform="translate(199.83642487 -36.3000255) scale(.69262)"/><path d="M370.3488 491.1673c-2.0398-.5201-4.1966-.818-6.4705-.8943-7.3476 6.0905-14.8262 11.5862-22.497 16.216-1.1375.7575-.7805 1.6695.3135 1.9287 1.5958.2142 3.2341.0258 4.9556-.5426 10.1122-3.6658 18.3069-8.9817 23.6984-16.7078zm-34.1809 18.5049 7.2017 11.9271c.2447.4058.5577.9673.1572 1.2121l-6.1785 3.772c-.4009.2453-.949.547-1.2115.1573l-4.6792-6.9375 3.4617 3.8069c.3151.3468.8428.1315 1.2116-.1567l4.9025-3.8306c.3693-.2883.1052-.817-.1567-1.2116l-3.6073-5.4345c-.2625-.394-.8288-.1229-1.2121.1573l-5.8338 4.274c-.1058.0773-.1638.1755-.1879.2877l-1.6839-2.4966c-.2625-.3892-.5615-.963-.1573-1.2116l6.7614-4.158c.4048-.2485.9668-.5625 1.2121-.1573zm-18.791-7.6407 6.4453 10.2227c.379.6007.8218 1.4231.2351 1.8149l-8.2113 5.4764c-.5873.3919-1.3791.7907-1.8149.2356l-7.2323-9.2113c-.4358-.5551-.8127-1.3984-.2356-1.8149l8.9988-6.4883c.5771-.416 1.4354-.8363 1.8149-.2351zm-.5148 2.8869 4.5354 6.7674c.2641.394.5287.9243.1567 1.212l-6.004 4.6417c-.372.2883-.9254.5309-1.2116.1573l-5.2922-6.9037c-.2861-.3731-.5524-.948-.1573-1.2116l6.7615-4.5058c.3956-.2636.9474-.5508 1.2115-.1573zm-23.4386-6.4534 7.5882 9.0504c.577.6871.9549 1.6839.2968 2.2873l-7.565 6.9268c-.6587.6033-1.6249.897-2.2873.2968l-7.9349-7.1946c-.6624-.5996-.897-1.6206-.2969-2.2868l7.9119-8.7835c.5996-.6662 1.7096-.984 2.2872-.2964zm-.4536 3.2187 5.2859 5.5268c.4911.5137.7123 1.2931.2351 1.8149l-4.9069 5.3604c-.4772.5218-1.2915.7107-1.8149.2357l-5.6089-5.0953c-.5234-.475-.7124-1.2861-.2357-1.8149l5.2305-5.792c.4773-.5287 1.3232-.7493 1.8149-.2356zm-22.2721-.204 6.8925 6.383c.6586.6093.8991 1.627.2963 2.2873l-7.9704 8.7245c-.6033.6608-1.6001.8707-2.2867.2968l-5.9069-4.9336c-.6865-.5733-.8046-1.5481-.2968-2.2873l6.9847-10.1744c.5078-.7386 1.6281-.9056 2.2873-.2963zm-.5116 2.9287 5.2274 4.6573c.5314.4729.6978 1.2775.2356 1.8149l-4.617 5.3604c-.4627.5373-1.2614.6774-1.8149.2351l-5.1451-4.1092c-.5535-.4417-.6689-1.2501-.2357-1.8149l4.5348-5.9079c.4338-.5647 1.2835-.7086 1.8149-.2357zm-20.4169 3.5643 6.6605 4.9917c.7177.5384.7913 1.5401.2969 2.2873l-6.6955 10.1164c-.4944.7472-1.5862.8546-2.2867.2963l-6.7765-5.3975c-.7005-.5577-.8122-1.5529-.2968-2.2872l6.8108-9.7106c.5153-.7338 1.5696-.8348 2.2873-.2964zm-.4364 3.6062 4.2884 4.3271c.3742.3774.5373.9679.1761 1.356l-4.3094 4.6261c-.3618.3875-.9474.5142-1.3554.1755l-4.472-3.7119c-.408-.3388-.5218-.9518-.1756-1.3554l4.4919-5.2418c.3457-.4037.9813-.5529 1.356-.1756zm-15.479 21.5351c-65.0208 34.7741-77.4933 102.597-62.0722 186.615-37.2213-80.823-10.8207-146.6753 43.7938-190.2995 1.3634.0343 2.5541-.6254 3.7881-1.1885 1.9137-.9839 3.8274-1.9684 5.7411-2.9529 2.2985 2.8053 5.2616 4.0276 8.8909 3.6658.6581-.0387 1.0059.1648 1.27 1.4257.2518 1.3946-.336 2.0796-1.4117 2.7344zM75.9687 521.0415c48.3893 21.6291 91.8466 22.5239 123.3285-3.7575.5577 2.116 1.7172 3.5616 3.7576 4.0259 1.2265.3677 1.5234.9507 2.4155 2.4156.9534 1.6018.2507 2.2712-.671 2.8182-36.9566 24.7059-91.2072 25.5916-128.8306-5.5022zM348.591 534.682c62.8677 38.6229 73.1747 104.9428 55.0686 186.5006 38.6771-80.4794 14.8671-145.8406-38.2407-190.0874-2.5143-1.8015-4.6433-3.7871-7.5253-5.302-2.4639 2.7844-5.2874 3.7313-8.9671 3.3373-.9164-.1433-1.2792.6028-1.6035 1.8611-.3177 1.3924.2013 3.0259 1.268 3.6904zm155.8523-14.7012c-47.2412 22.3489-90.0124 24.298-121.4991-.6253-.5111 2.0838-1.6249 3.5256-3.6255 4.0302-1.2008.3903-1.4821.9679-2.3335 2.422-.9088 1.59-.205 2.2277.714 2.7398 36.8471 23.2459 90.2802 22.7714 126.7441-8.5667zM265.485 390.3815c-7.9451-7.6133-13.1568 3.0329-13.6303 10.519-1.8444 31.2136 7.7283 62.7132 23.7049 94.3749.6914-.0988 1.3827-.1975 2.0741-.2963-12.8202-37.2836-17.1484-72.2267-12.1487-104.5976zm18.2891-3.3877c-9.4014 25.7023-8.8211 61.4066 1.7408 107.1152-1.3929.0579-2.7848.1159-4.1778.1744-11.576-29.3444-17.5612-67.5915-13.334-99.264.7096-5.3255 2.3361-10.2146 8.5055-11.533 2.6555-.5674 5.4082.2228 7.2655 3.5074zm-56.7944 23.8417c1.4848 30.3756 14.1053 59.5896 35.9534 87.841 1.2727-.4251 2.5455-.8502 3.8182-1.2754-15.2578-23.3704-26.9578-49.3239-29.908-81.6238-.3049-3.8424-3.837-4.8972-9.8636-4.9418zm-10.8685 16.4614c1.2421 24.9684 15.5219 49.3625 41.6724 73.2343.4788-.2056.9577-.4112 1.437-.6168-14.0613-18.8844-26.7076-39.281-32.5372-66.9603-1.0924-4.793-5.6111-4.9637-10.5722-5.6572zm84.6992-40.2741c9.2081 25.7833 8.1061 61.478-3.3062 107.0862 1.4177.0703 2.8349.1406 4.2531.212 12.211-29.2376 18.8549-67.4262 15.0023-99.1325-.6468-5.3314-2.2336-10.2345-8.4985-11.6076-2.6969-.591-5.5118.1744-7.4507 3.4419zm-28.8409 108.834c-15.7506-31.1223-24.2513-61.5617-23.3737-91.1155.1294-4.4081.6678-5.6342-4.261-6.9719-1.6936-.46-3.3877-.4788-5.0813-.0123 0 34.6195 9.3429 67.7316 31.0884 98.8453.5422-.2486 1.0849-.4971 1.6276-.7456zm47.4215-105.2831c8.2016-7.5414 13.3575 3.1499 13.7328 10.6393 1.4321 31.2264-8.7691 62.6363-25.4962 94.1515-.7026-.1052-1.4053-.2099-2.1085-.3151 13.5922-37.1644 18.5012-72.0641 13.8719-104.4757zm38.9283 20.7954c-1.9475 30.3589-15.2208 59.4564-37.8789 87.5087-1.2905-.4364-2.5809-.8728-3.8708-1.3092 15.8757-23.2314 28.1645-49.0769 31.6316-81.3463.3656-3.8392 3.9788-4.8623 10.1181-4.8532zm-109.7691 92.7248c-.5303.2233-1.0607.4466-1.591.6699-15.1151-9.2254-28.6251-19.9151-38.6041-33.8309 2.9867-1.4515 5.6385-.8933 7.9553 1.6748 9.6708 13.0527 20.7809 22.6844 32.2398 31.4862zm-20.1561 19.2945c1.7827-.1991 3.5241-.4198 5.1157-.7172 1.9426-.2984 1.8943 2.2696-1.2164 2.4376-2.1735.1256-3.1601-.6989-3.8993-1.7204zm133.0949-9.0101c-3.8965 1.3275-7.8243 2.0329-11.7965 1.8326-1.4435-.1073-1.7929 2.2787.1057 2.7613 6.4684 1.597 11.9748-.5593 11.6908-4.5939zm-26.4763-9.9554c.5374.2282 1.0742.4563 1.611.6844 15.5283-9.089 29.4426-19.6568 39.8059-33.4814-3.0216-1.4784-5.7302-.9437-8.127 1.6034-10.0375 12.9646-21.4917 22.4954-33.2899 31.1936zm-45.8808-10.3617h4.997c10.9898-41.9151 14.5498-83.4152-1.7231-115.793-18.0932 29.0916-12.7006 74.8576-3.2739 115.793zm40.624 7.93c13.1724-12.1379 25.9809-25.9142 36.699-49.0855 1.7387-3.4838 4.3711-4.2809 9.9688-4.4414-5.887 21.6097-22.9694 38.844-45.1411 54.0895-.5089-.1873-1.0173-.3747-1.5267-.5626zm34.7075.8208c-5.1124 3.4913-10.3429 6.4571-15.7796 8.4889-.875.4412 1.1133.9072 2.3834.8626 13.1273-1.2255 16.8639-6.0744 13.3962-9.3515zm-9.1958 21.0837c-1.8133-.2153-3.5836-.4515-5.2005-.7628-1.9748-.3162-1.9619 2.2518 1.2041 2.4478 2.2121.1449 3.2288-.6705 3.9964-1.685zm-132.8469-10.0789c3.8064 1.3613 7.652 2.1016 11.5539 1.9362 1.4183-.095 1.728 2.2943-.1427 2.7602-6.3718 1.5401-11.7467-.6645-11.4112-4.6964zm146.7332-85.8908c-1.6227 24.9539-16.5171 49.2176-43.4948 72.8521-.4853-.2099-.97-.4192-1.4552-.6291 14.5932-18.7567 27.7662-39.0373 34.1003-66.6613 1.1815-4.7823 5.7867-4.9127 10.8497-5.5617zm-115.4091 73.7824c-12.7596-12.254-25.1397-26.1425-35.335-49.4082-1.6582-3.4988-4.2311-4.319-9.7235-4.5289 5.4753 21.6618 22.0016 39.0458 43.5522 54.4862.5019-.183 1.0038-.3661 1.5063-.5491zm-39.6954-11.1804c2.0097-.5024 4.1311-.7816 6.3642-.8374 7.1276 6.1549 14.3915 11.7161 21.8561 16.413 1.1058.7676.743 1.6764-.3349 1.926-1.5696.2003-3.1752-.003-4.8569-.5861-9.8749-3.7544-17.8442-9.1422-23.0285-16.9155zm97.2268 5.4495c16.4887-30.9773 25.5831-61.3368 25.1123-90.8948-.0687-4.4087-.5996-5.6396 4.4399-6.9332 1.7317-.4445 3.4575-.4482 5.1757.0333-.4954 34.6151-10.4857 67.6398-33.0804 98.5548-.5492-.2533-1.0983-.5067-1.6475-.7601zm-91.613 6.2467c4.9696 3.5364 10.0622 6.5478 15.3705 8.6274.853.4487-1.1058.8975-2.3517.8417-12.8691-1.3409-16.4688-6.2226-13.0188-9.4691z" style="fill:#e30016;fill-rule:evenodd" transform="translate(199.83642487 -36.3000255) scale(.69262)"/><path d="M482.5947 582.921c-33.0778-7.3111-58.3947-20.2382-77.2812-37.8203-13.2739-3.7474-25.1376-8.5335-33.8991-15.6073-.7623.2839-1.524.5674-2.2862.8508 9.0385 7.4088 16.9144 15.1719 24.4445 23.9077 24.9207 18.3519 53.6011 29.1378 89.022 28.6691zM294.5895 66.2179c-3.5509 23.4628-6.462 46.2389-8.7267 68.6565l7.9714 5.7813 8.0406-6.361c-1.8433-22.402-4.2648-45.0998-7.2853-68.0768zm-9.8073 79.8482c-7.09 77.1969-6.397 150.7329 2.5187 234.0927 1.9523-3.0484 3.9041-6.0964 5.8558-9.1443 1.6598 3.5998 3.319 7.1995 4.9788 10.7993 8.9049-73.8898 10.7703-152.8345 4.6427-235.9302l-8.5301 6.2074zM97.1388 582.6033c33.0295-7.5474 58.4118-20.6554 77.4594-38.3722 13.2658-3.8424 25.1424-8.7133 33.963-15.8494.7547.278 1.5095.5561 2.2642.8341-9.1014 7.4733-17.2875 15.7592-24.9062 24.5487-25.0645 18.5302-53.5457 30.3332-88.7804 28.8388z" style="fill:#008bd0;fill-rule:evenodd" transform="translate(199.83642487 -36.3000255) scale(.69262)"/><path d="m285.0941 142.4465 9.0332 5.7496 8.3702-6.091-.3172-3.9455-8.2618 6.536-8.476-6.1473z" style="fill:#009035;fill-rule:evenodd" transform="translate(199.83642487 -36.3000255) scale(.69262)"/><path d="M337.6527 530.1048c.1213.3961.6007.7263.9415.4976l4.9799-3.3469c.3419-.2292.621-.5459.4981-.9426-.1224-.3967-.5996-.7279-.9421-.4976l-4.9803 3.3469c-.343.2302-.6195.5459-.4971.9426zm-96.1012-19.1158c.3393.2394.4187.7118.1798 1.0494l-3.2621 4.6154c-.2378.3403-.7112.4214-1.0499.182-.3393-.2395-.4187-.7118-.1799-1.0495l3.2621-4.6153c.2378-.3404.7113-.4214 1.05-.182zm-3.1907 11.1798c-.3387.2394-.4939.7794-.1804 1.0505l5.6493 4.8666c.314.2705.7117.4198 1.0505.1804.3392-.2395.4949-.7795.1803-1.0506l-5.6492-4.8665c-.314-.2711-.7113-.4198-1.0505-.1804zm26.8692-20.914c.3387.2394.4209.715.1804 1.0505l-5.6761 7.9059c-.0435.205-.1744.4106-.3462.5319-.3387.24-.7145.0607-1.0505-.1803l-5.8376-4.1752c-.3355-.2405-.1584-.8111.1803-1.0505.3393-.2394.7134-.0607 1.0505.1804l4.9675 3.553 5.4812-7.6354c.2421-.3371.7118-.4197 1.0505-.1803zm-5.464 15.0731c.1176.0833.2051.1928.2577.3168l4.946 4.4162c.3097.2759.1589.8105-.1804 1.0499-.3387.24-.7424.0956-1.0505-.1803l-4.2949-3.8338-4.3936 6.2832c-.2368.3387-.7118.4203-1.0505.1809-.3388-.24-.4187-.7108-.1804-1.0505l4.8961-7.002c.2378-.3398.7112-.4198 1.0505-.1804zm28.514-19.5323c.3382.2389.4579.7467.1798 1.0511l-7.6563 8.3675c-.051.1739-.1616.3398-.3129.4466-.3388.24-.7494.102-1.0506-.1803l-6.7169-6.3106c-.3006-.2823-.1583-.8111.1804-1.0505.3393-.2394.7488-.1036 1.0505.1804l5.9955 5.6331 7.28-7.9569c.2796-.306.7112-.4198 1.0505-.1804zm.5024 22.4836c.3377-.2388.4788-.7676.1798-1.051l-7.5457-7.1442c-.0504-.1621-.153-.3113-.2979-.4139-.3387-.2399-.7757-.1277-1.0505.1804l-6.5285 7.3154c-.2748.3076-.1584.8111.1804 1.05.3392.2399.7751.1288 1.051-.1798l5.9053-6.6182 7.0556 6.681c.3011.2845.7118.4198 1.0505.1803zm7.776-21.848c-.3376.2389-.4385.7306-.1798 1.051l6.6374 8.206c.0473.1873.1659.3693.327.4826.3387.2399.7413.0934 1.0505-.1804l7.2821-6.4361c.3092-.2733.1584-.8111-.1803-1.05-.3393-.24-.7414-.094-1.0506.1798l-6.5075 5.7518-6.3283-7.8244c-.2603-.3215-.7118-.4197-1.0505-.1803zm14.6454 23.481c.3376-.2389.4385-.7306.1798-1.0511l-6.6391-8.2076c-.0467-.1878-.1642-.3671-.3253-.4809-.3387-.24-.7413-.0934-1.0505.1803l-7.2821 6.4362c-.3092.2732-.1584.8111.1803 1.05.3393.2399.7413.0939 1.0505-.1799l6.5076-5.7517 6.3283 7.8243c.2603.3215.7118.4198 1.0505.1804zm9.4089-18.8968c-.3376.2394-.4203.7172-.1798 1.0516l5.4892 7.6563c.0435.204.174.409.3447.5298.3387.2399.715.0596 1.0505-.1804l5.398-3.8611c.3349-.2394.1583-.8111-.1804-1.05-.3393-.2399-.7145-.0607-1.0505.1798l-4.5273 3.239-5.2939-7.3841c-.2405-.336-.7123-.4198-1.0505-.1809zm13.0946 27.114c.3376-.2394.4009-.7043.1798-1.051l-7.3069-11.4547c-.0343-.2158-.1669-.4353-.3483-.5631-.3388-.2399-.7193-.066-1.0505.1804l-7.4078 5.4941c-.3307.2453-.1584.8111.1804 1.0499.3392.24.7193.0661 1.0505-.1798l6.5204-4.8365 7.1319 11.1798c.2216.3479.7123.4198 1.0505.1809zm5.3679-18.7824c.2555-.3264.8385-.4745 1.0575-.1267l4.1483 6.5913c.2196.3484.3838.7322.1273 1.058-.2566.3275-.838.4767-1.0575.1272l-4.1495-6.5913c-.22-.3499-.3827-.7316-.1261-1.0585zm-101.3344 24.4902c5.4114-2.7157 10.9823-5.0765 16.654-7.2774 6.7121 15.4023 63.5828 15.2283 71.5552.8734 6.1968 2.8831 12.393 5.8833 18.5908 9.0235-.9893 15.3824-31.2881 22.1336-54.9977 21.7348-29.5731-.8589-53.5426-7.1946-51.8023-24.3543z" style="fill:#fff;fill-rule:evenodd" transform="translate(199.83642487 -36.3000255) scale(.69262)"/><path d="M257.4932 526.5893c19.7524-7.5285 45.5078-7.1243 65.3585.8734-7.1662 10.3606-57.6131 10.7568-65.3585-.8734z" style="fill:#fff;fill-rule:evenodd" transform="translate(199.83642487 -36.3000255) scale(.69262)"/><path d="M304.9571 584.6098c.1541.9249.2426 1.89.2614 2.8976l.0006.0601v24.9561h-22.883l1.9716-4.5107c2.298-5.2568 3.8622-10.5823 2.7226-16.0447l-.6753.081c-8.1737.9807-13.3259-3.9379-16.1859-11.2286l-.5443-1.3877.7058-1.313c4.2638-7.9354 10.8095-12.4262 19.6236-13.7451l8.5581-1.2808-1.0612 1.2357c2.4693-.4332 5.0588-.0816 7.5124 1.1074 3.8209 1.8514 6.9837 5.7222 6.9376 10.1213-.0408 3.9137-2.5664 6.814-5.9171 8.5264zm-16.2047 159.0409c2.6807-4.1683-.422-9.0536-3.6937-11.8525l-.0467-.0408c-5.4485-4.8472-6.9606-12.0177-6.4689-19.0433l.2549-3.647 3.5858.7129c3.9084.7767 7.8168 1.554 11.7247 2.3313l3.3898.6742-.9109 3.334c-1.1117 4.0679-1.2964 7.4067 2.0409 10.3859 6.6911 6.1453 11.4138 14.924 7.4453 23.9352-2.7902 6.3357-9.5334 10.9951-16.4892 10.9452-6.9864.0531-13.4408-2.4875-17.2129-8.6054-2.8589-4.6368-3.604-10.6328-2.1938-15.8735l.7536-2.7999 2.8633.4563c1.365.2174 2.7301.4348 4.0952.6527l3.2836.5245-.6286 3.2647c-1.1241 5.8398 4.5525 8.9199 8.2076 4.6455z" style="fill:#1b1918;fill-rule:evenodd" transform="translate(199.83642487 -36.3000255) scale(.69262)"/><path d="M281.7558 712.939c3.9078.7768 7.8162 1.5541 11.7246 2.3313-1.6136 5.9053-.9936 10.0698 2.9776 13.6148 16.2257 14.903 3.851 29.3567-6.886 29.2799-14.6249.1111-18.5043-12.1702-16.2842-20.4212 1.3651.2174 2.7296.4348 4.0942.6527-1.8155 9.432 8.3589 14.0018 13.9582 7.1802 3.7866-5.6203.525-12.1938-4.1875-16.2257-4.4554-3.9637-5.8457-9.9946-5.3969-16.412zm8.6751-145.3789c-7.1383 1.0683-13.1788 4.4833-17.2633 12.0843 2.8622 7.2967 7.2956 9.8679 12.8036 9.2071-2.3136-7.9467-.9608-14.9803 4.4597-21.2914zm.4176 5.5446c-3.7854 4.4291-4.2315 9.192-1.9093 14.2342 3.1928 7.5634 1.4482 14.808-1.6802 21.964h14.7393v-21.7354c-.1251-6.6739-3.8993-11.4648-11.1498-14.4628zm2.5965-3.3673c4.3013 2.6018 7.9923 6.4275 11.0735 11.4793 10.9061-5.573-2.05-19.3278-11.0735-11.4793z" style="fill:#ffec00;fill-rule:evenodd" transform="translate(199.83642487 -36.3000255) scale(.69262)"/><path d="M234.6827 679.9133v-67.46l12.737 1.7752v67.2345l-.005.1026c-.5121 9.3563 13.1047 10.4358 13.5497.1632v-65.6129l13.6749 1.9007v62.7497l-.003.0708c-.2743 7.2763-3.3367 13.9621-9.7702 17.7304-5.3341 3.1246-12.0011 3.5401-17.7497 1.335-8.448-3.2407-12.8803-11.1149-12.4337-19.9892zm141.1677 19.3665V606.015l14.7554-7.3777v100.6425zm-20.6826-30.7455h-11.7537v26.1591c0 .1433.006.2867.0167.4294l.2898 4.0271h-14.4387v-69.7967c0-11.0123 8.9967-20.009 20.009-20.009 11.0124 0 20.009 8.9967 20.009 20.009v69.7967h-14.4387l.2899-4.0271c.0102-.1427.0167-.2861.0167-.4294zm-46.5626-13.0081v-38.0378h13.2904v81.8783l-12.6007-.001-14.0285-37.3668v37.3668l-14.0469-.002V617.488h13.1053zM204.1198 616.599v29.4517l16.4092 3.9159v11.4821l-16.4092-3.6298v43.411h-14.5477V598.3517l40.973 13.049v13.1455zm151.048 39.7013v-26.1591c0-3.225-2.6518-5.8768-5.8769-5.8768-3.225 0-5.8768 2.6518-5.8768 5.8768v26.1591z" style="fill:#1b1918;fill-rule:evenodd" transform="translate(199.83642487 -36.3000255) scale(.69262)"/><path d="M270.8814 680.6954v-59.4075l-6.1597-.8562v61.3727c-.5781 15.3459-21.8454 13.918-21.0595-.4439v-63.8619l-5.222-.7279v63.2408c-1.2099 22.1235 31.5501 24.3227 32.4412.6839zm108.7266 14.8268h7.2403V604.717l-7.2403 3.6202zm-20.709-.1299h6.6434v-66.0391c0-8.9387-7.3128-16.2514-16.2515-16.2514s-16.2514 7.3127-16.2514 16.2514v66.0391h6.6434c-.0167-.2313-.0263-.4638-.0263-.6989v-29.9166h19.2687v29.9166c0 .2351-.01.4676-.0263.6989zm-9.6081-35.3345h9.6344v-29.9166c0-5.2992-4.3351-9.6344-9.6344-9.6344-5.2992 0-9.6343 4.3352-9.6343 9.6344v29.9166zm-64.3138 35.5492v-74.361h6.7448l16.7888 44.7193c1 2.0054 3.9363 1.6211 3.852-.8374V621.246h5.7754v74.3626l-6.2403-.0005-16.537-44.0483c-1-2.0054-3.9363-1.6211-3.852.8374v43.2104zm-58.1896-76.1147v-5.3449l-33.4578-10.6553v93.9803h7.0325v-44.3333l16.4093 3.6298v-3.8359l-16.4093-3.916v-37.4719z" style="fill:#008bd0;fill-rule:evenodd" transform="translate(199.83642487 -36.3000255) scale(.69262)"/><path d="M280.1159 154.089c-3.9605 44.0885-3.8016 89.3542-2.3276 134.9973-1.9394-1.9271-3.8783-3.6969-5.8188-5.237-13.91-45.424-16.1527-91.5148-2.9094-138.4886 3.7768 1.728 7.4625 4.6374 11.0558 8.7283zm110.4985 351.6743c2.4424 1.8842 4.7319 3.6491 11.4756 6.7609 5.7963 2.1901 8.1078 4.0271 8.2398 9.1551-8.1104-1.0039-16.2063-3.1237-24.2556-8.3268 4.8387-2.6222 4.6148-4.1983 4.5402-7.5892zm-83.4162-351.6426c2.283 45.2018 4.537 87.3734 1.2905 133.5163 1.9668-1.8971 6.4318-3.0818 8.4024-4.5934 13.9744-44.9823 16.0598-90.73 2.3651-137.4918-3.8402 1.6818-8.4148 4.5381-12.058 8.5689zm20.1223 9.3649c8.3788 37.3582 5.9949 77.3617-7.1496 120.0121 2.1445 2.0302 4.0169 4.3255 5.7024 6.8028 18.7089-40.2526 24.3125-87.4706 19.0583-140.4586-7.5811 2.6045-13.5143 7.1184-17.6111 13.6437zm39.7877-4.3583c-6.923-.4654-13.1563 1.7661-17.8747 9.9334 3.7495 47.3243-6.1586 88.4047-21.6215 126.9486 3.4714-2.7301 7.0132-4.9562 10.891-4.7474 27.6749-53.5243 35.5862-98.6907 28.6052-132.1346zm5.9251 18.3879c.1643 36.3083-11.4675 74.3793-31.9929 113.7854 2.0044 4.8488 2.7887 10.4449 2.0994 16.9444 1.926-1.1283 3.852-2.2561 5.7775-3.3839 29.1329-53.936 43.7031-100.2936 40.6992-137.5031-5.9069 1.9738-11.6103 4.7082-16.5832 10.1572zm34.2781 1.3313c-5.4812 1.7864-10.3188 5.0952-14.5707 9.7911-2.64 30.1593-14.9863 68.1144-39.0384 115.1735 1.4086 1.6796 2.5938 3.6878 3.5525 6.0239 34.6104-49.9637 55.8116-99.2006 50.0566-130.9885zm20.7101 17.4624c-5.9531-.2195-11.7773 1.6206-17.3771 7.1324-4.3202 33.1111-26.5998 72.5118-52.4781 111.4455.4133 2.0226.4224 4.122.1535 6.274 2.4907-2.057 4.9058-3.1826 7.2441-3.3764 35.5744-44.2013 62.1682-86.1453 62.4576-121.4755zm18.8017 15.1779c-6.0437.6082-11.9512 2.261-17.7571 4.7002-5.0335 26.4467-28.9402 63.0894-60.5241 103.8809 2.1772 3.3775 2.7854 7.2317 2.5116 11.3532 46.7371-49.6551 74.8587-90.9233 75.7696-119.9343zm-74.3293 124.4128c33.636-36.4102 61.8129-71.2396 72.9186-101.1326 8.1373-4.4844 15.2026-4.362 21.7826-2.1466-15.96 33.7842-43.3837 68.1868-82.2707 103.2089-4.1279-1.0554-8.2757-.7918-12.4305.0703zm108.1184-82.8429c-6.9177-2.0098-13.8751-1.1713-20.8615 1.6152-16.3233 27.697-40.8666 55.9495-73.7839 84.9423-.838 3.2288-1.6759 6.4582-2.5149 9.6875 2.998-.8438 5.9874-1.0585 8.9661-.6404 44.3655-33.9973 75.5774-66.1244 88.1942-95.6046zm10.1363 21.3601c-6.6321-1.5095-12.8385-1.006-18.6182 1.5116-17.1683 24.3468-44.7896 49.4677-76.9972 75.0245 1.1498 3.1639 1.043 6.6246.3655 10.2195 45.0102-24.4418 82.8811-51.295 95.2499-86.7556zm-8.8867 24.8766c-20.3928 25.8558-51.398 47.428-87.6295 66.8927 4.4903.1782 8.9784.5523 13.4553 1.6254 42.746-18.8737 73.3953-41.3493 89.8642-68.0457-4.99-2.0398-10.1878-2.4478-15.69-.4724zm3.4318 22.4724c-22.5577 22.6227-49.6272 38.2654-78.8648 50.5564-1.2416 3.4505-3.2819 6.894-5.4372 10.3359 48.8655-20.2178 95.3186-40.2858 100.124-57.7386-3.5488-3.4092-9.0257-4.1827-15.822-3.1537zm4.465 21.8116c-13.9309 10.5007-44.234 24.7145-82.8198 40.8081 5.7249 3.4269 5.3787 3.7587 2.0763 9.8996 48.9744-15.085 84.0233-30.8109 97.0771-47.5498-4.0539-2.8267-9.4986-3.8794-16.3336-3.1579zm13.0527 29.7582c-2.3211-4.1521-5.9842-7.3664-13.364-7.9885-26.9648 14.5052-54.5818 24.8122-82.3808 33.9452-.643 1.2223-1.2861 2.4451-1.9292 3.6674 3.6502.3376 6.9644 1.3704 9.6687 3.9368 38.4715-7.5043 70.3448-17.3873 88.0053-33.5609zm-4.2423 22.2378c-1.1289-4.588-4.1027-7.4051-8.9215-8.4524-20.9146 11.32-47.4623 18.3992-75.5887 24.2911-1.35 2.947-2.9277 5.8918-4.7329 8.835 28.1522-2.131 57.2378-7.8264 89.2431-24.6737zm-15.6894 11.4181c-23.4284 10.5379-47.115 14.9766-70.8842 17.4657 5.552 3.5096 4.8692 3.5595 2.2658 8.5614 31.9022.344 60.8467-2.6974 79.7526-17.2204-1.0596-6.4308-5.4367-8.5903-11.1342-8.8067zm-7.3251 23.0484c-20.8351 6.4651-42.658 7.3326-64.7578 6.6332-.6388.9431-1.2781 1.8868-1.9174 2.8299 4.9444 2.276 8.0363 4.8156 7.0524 7.9338 24.2019 1.7334 46.9759.008 67.6602-6.7754-.9571-5.661-3.8386-8.9526-8.0374-10.6215zm-10.0021 19.3396c-17.5762 2.2347-34.5835 2.6083-51.2085 1.7279-1.4601 2.7221-4.172 5.4335-7.4534 8.1411 21.4916 4.9401 43.2554 5.2289 65.3466-.0967.1637-3.4311-1.3817-6.7394-6.6847-9.7723zm-9.9559 16.1581c-15.0904 2.2604-30.1995.8132-44.314-1.3936-.0633 4.4656.9212 4.2697-2.5197 7.3466 16.3958 6.7872 34.0081 8.0031 52.8383 3.6459.4605-3.6164-1.4499-6.8318-6.0046-9.5989zm-8.0143 25.1037c1.4692-3.64-.4569-6.6434-3.9283-9.3585-13.6501.5008-26.5359-2.3469-38.7871-7.9698-1.3227.6748-2.6454 1.349-3.9686 2.0237 1.7462 2.1139 3.4157 4.5107 4.8113 7.9135 13.0495 6.7861 27.0625 8.9864 41.8727 7.3911zm-15.2058 4.4688c-10.6162-.7386-20.5447-3.7313-29.7857-8.9811-1.992 1.5782-3.9744 2.4891-5.9535 3.0967 6.6342 7.8136 18.5161 12.6705 34.7456 15.0786 1.6286-3.3362 2.3297-6.4796.9936-9.1942zm-36.1901-.1965c.6704 2.225-.5181 4.4339-4.7727 6.6182 7.419 6.2005 16.6836 9.753 26.7866 12.1031 1.9018-3.8993 1.6544-6.6874-.7419-8.3622-7.7593-2.6523-14.8498-6.1055-21.272-10.3591zm-202.2351 10.0322c-2.4242 1.8626-4.6964 3.6078-11.3597 6.6605-5.7206 2.1391-8.0154 3.9556-8.2172 9.0826 7.9757-.9324 15.9524-2.9814 23.927-8.1137-4.713-2.6646-4.4709-4.239-4.3501-7.6294zm-5.317-10.8986c-.6898 2.2191.4461 4.4388 4.5918 6.66-7.3697 6.1356-16.514 9.607-26.4645 11.868-1.8123-3.9159-1.5299-6.7019.8454-8.3557 7.6542-2.5841 14.6631-5.9751 21.0273-10.1723zm-35.5282-.1213c10.4315-.6452 20.2199-3.5509 29.3647-8.7191 1.933 1.5953 3.8666 2.524 5.8006 3.1488-6.6224 7.7551-18.354 12.5078-34.3194 14.7737-1.5518-3.3507-2.1954-6.5001-.8459-9.2034zm-14.8639-4.6019c-1.3908-3.6529.5422-6.6396 3.9879-9.3241 13.3924.6205 26.0812-2.1139 38.1864-7.6295 1.2889.6866 2.5777 1.3726 3.8671 2.0586-1.7435 2.0989-3.4162 4.4806-4.8338 7.8716-12.9051 6.6712-26.6916 8.7486-41.2076 7.0234zm-7.514-25.1741c14.7811 2.3931 29.6332 1.0785 43.5195-1.0048-.0005 4.4661-.9646 4.2616 2.3699 7.3691-16.1897 6.6433-33.4959 7.704-51.9187 3.1821-.4015-3.6207 1.5191-6.8194 6.0293-9.5464zm-9.5464-16.2455c17.222 2.3887 33.912 2.9116 50.244 2.1772 1.3946 2.735 4.0189 5.4705 7.2016 8.2065-21.1658 4.7517-42.534 4.8494-64.1448-.6699-.1122-3.4328 1.451-6.7276 6.6992-9.7138zm-9.5463-19.4277c20.3617 6.6482 41.7712 7.7073 63.4748 7.2017.6141.949 1.2282 1.8981 1.8423 2.8471-4.8854 2.2326-7.9564 4.7448-7.0341 7.8716-23.7816 1.5213-46.1134-.4048-66.3221-7.3691 1.0189-5.6525 3.894-8.9189 8.0391-10.5513zm-6.8667-23.1122c22.8497 10.7434 46.0387 15.3899 69.3366 18.0878-5.4994 3.4608-4.83 3.5166-2.3447 8.5415-31.3208.0639-59.691-3.2315-78.0456-17.9203 1.1305-6.4217 5.4576-8.5431 11.0537-8.709zm-15.2407-11.5561c1.1724-4.5778 4.1312-7.3691 8.8765-8.374 20.3708 11.5035 46.3318 18.8157 73.8586 24.9545 1.284 2.9588 2.7913 5.9176 4.5219 8.8765-27.6052-2.378-56.0767-8.3289-87.257-25.457zm-3.852-22.2748c2.3367-4.1317 5.9777-7.3138 13.2309-7.8715 26.2654 14.7419 53.2301 25.2916 80.3903 34.6683.6141 1.2282 1.2282 2.4563 1.8423 3.6845-3.5879.3055-6.8559 1.3093-9.5464 3.8521-37.6593-7.8421-68.8084-18.0052-85.9171-34.3334zm13.2309-29.6439c13.5278 10.6231 43.074 25.1026 80.7253 41.535-5.668 3.3769-5.3331 3.7114-2.1773 9.8813-47.8632-15.5144-82.0468-31.5485-94.626-48.4017 4.0195-2.7913 9.3788-3.7962 16.078-3.0146zm4.6894-21.7724c21.8256 22.8207 48.1779 38.7013 76.7058 51.2488 1.1702 3.4613 3.1247 6.9225 5.1919 10.3838-47.6835-20.6467-93.0012-41.1228-97.4733-58.618 3.5316-3.378 8.9189-4.1032 15.5756-3.0146zm3.6846-22.4423c19.6547 26.0351 49.7877 47.8794 85.0797 67.6619-4.4103.139-8.8211.4734-13.2309 1.5073-41.6955-19.2489-71.4661-41.9934-87.2569-68.8342 4.9267-1.9964 10.0348-2.3587 15.4081-.335zm-8.374-24.9545c6.5317-1.4515 12.6168-.8932 18.2553 1.6748 16.5107 24.4977 43.2715 49.8612 74.5285 75.7009-1.1734 3.1537-1.117 6.6149-.5024 10.2163-43.84-24.8375-80.6378-52.0229-92.2814-87.592zm10.2506-21.271c6.8184-1.9491 13.6362-1.0494 20.4551 1.7983 15.6347 27.8403 39.3299 56.3081 71.2353 85.5897.7773 3.2363 1.5546 6.4732 2.3324 9.71-2.9309-.8706-5.8624-1.1111-8.7922-.7193-43.0729-34.387-73.2601-66.7879-85.2306-96.3787zm104.968 83.792c-32.5066-36.7055-59.6765-71.7823-70.1579-101.773-7.9247-4.5558-14.8623-4.4951-21.3526-2.3377 15.1923 33.9243 41.6289 68.5679 79.3092 103.9309 4.0673-1.0189 8.1351-.7188 12.2013.1798zm-71.216-125.0656c5.9246.6614 11.7 2.3662 17.3653 4.8564 4.5692 26.4908 27.522 63.3433 57.9523 104.4119-2.1847 3.3587-2.8358 7.2075-2.6249 11.3312-45.1809-50.0652-72.2058-91.5804-72.6927-120.5995zm18.6698-15.0125c5.8456-.1675 11.548 1.7237 16.9992 7.2854 3.9669 33.1503 25.5122 72.749 50.5928 111.9114-.4219 2.0194-.4482 4.1188-.2024 6.2735-2.4279-2.079-4.7892-3.2261-7.083-3.4403-34.5556-44.5158-60.3147-86.6955-60.3066-122.03zm20.5753-17.281c5.3728 1.8348 10.1067 5.1865 14.2599 9.92 2.4601 30.185 14.4146 68.2517 37.8199 115.5261-1.3903 1.6673-2.5622 3.6653-3.5134 5.9933-33.7568-50.2718-54.3541-99.6993-48.5664-131.4394Zm33.7219-1.0296c-.4761 36.3083 10.6119 74.4834 30.4191 114.0715-2.0098 4.8317-2.8284 10.4213-2.2079 16.9267-1.8809-1.145-3.7618-2.2899-5.6422-3.4344-28.1302-54.1947-42.031-100.6822-38.7598-137.867 5.7813 2.0253 11.3559 4.8102 16.1908 10.3032zm6.0207-18.3363c6.7953-.4048 12.9169 1.8814 17.5596 10.0917-3.6174 47.2975 6.164 88.4707 21.3945 127.1558-3.4108-2.7612-6.8908-5.0185-10.6972-4.844-27.2386-53.7744-35.0645-99.0165-28.2569-132.4035zm39.2225 4.7093c-8.1244 37.2905-5.6766 77.3209 7.3407 120.0932-2.0994 2.0114-3.931 4.2906-5.5789 6.7534-18.4733-40.4228-24.101-87.6972-19.0858-140.6471 7.4491 2.6716 13.2852 7.2382 17.324 13.8005z" style="fill:#ffec00;fill-rule:evenodd" transform="translate(199.83642487 -36.3000255) scale(.69262)"/></svg>