<svg xmlns="http://www.w3.org/2000/svg" viewBox="0 0 800.00006 499.99999"><g style="clip-rule:evenodd;fill-rule:evenodd;image-rendering:optimizeQuality;shape-rendering:geometricPrecision;text-rendering:geometricPrecision"><path d="M19.0174 20.5132v83.0628h87.2446V20.5132z" class="fil0" style="fill:#16316f;fill-rule:nonzero" transform="matrix(3.6928 0 0 3.57774 171.31005 26.054468)"/><path d="M32.4796 52.7971c19.6056-7.18861 33.1341-25.7491 29.081-33.5259-6.79641 1.3722-12.2849 5.0979-18.4283 7.58151 2.2208-8.16901 2.2208-14.9654 1.4373-21.5665-6.53521 4.8352-16.5334 8.95301-19.801 23.5262C19.2123 22.2129 12.6771 16.20011 0 16.78721c2.8743 8.16901 11.6319 25.8796 24.3106 28.4295l1.2416-2.5499c-8.95261-4.3127-15.5541-15.4219-20.4555-22.807 12.09 3.332 17.4495 13.1348 19.9978 14.3768 2.8108-1.1757 4.7708-10.6515 6.99291-12.8092 2.2872-2.1562 3.4629-5.4238 9.08361-9.93341.131 10.3267-3.2013 15.7509-4.7704 23.5925l2.0256 1.1757c3.8562-5.4885 12.0911-7.44981 18.1683-11.1092-.1965 10.5221-16.5345 19.6716-26.5327 26.2715l2.4178 1.3726z" class="fil1" style="fill:#1da838" transform="matrix(3.6928 0 0 3.57774 171.31005 26.054468)"/><path d="M96.0019 59.8551c6.79641-7.64631 12.3512-12.9398 23.6572-16.338-6.46931.1968-4.1178-11.0445-9.14981-13.8544-6.53521-2.2868-8.95301 3.0064-12.5465 8.75651-2.6801 4.1174-8.23491 7.12381-11.1107 1.8303.980801-5.816 3.3339-10.7833 2.8758-17.4491-1.2401-13.311-18.7659-21.4086-29.6837-22.8004h-.0577l-2.1507 2.8026c15.9459 5.49 23.4619 9.60631 28.0359 19.9978-.2612 6.66581-1.9598 11.959-3.3983 17.7102.524 2.7453 3.1371 5.0324 5.556 5.2936 4.1163 1.8303 6.79681-.2612 8.69181-1.1757 5.3579-3.921 6.274-11.5029 10.6511-11.5029 3.5951 2.5499 3.3339 6.66581 5.0335 9.01881-7.71251 3.2033-13.2669 8.95301-18.5604 14.7043l2.1565 3.0064z" class="fil2" style="fill:#9e441d" transform="matrix(3.6928 0 0 3.57774 171.31005 26.054468)"/><path d="M25.4216 103.903c.0659-.9146.1306-1.8954.1965-2.9406.0647-1.111.0647-2.4836.0647-4.1833 0-1.6338 0-3.0064-.0647-4.1163-.0659-1.1773-.1306-2.1577-.1965-3.0064.3271 0 .653001.0647.980401.0647.3259.0659.653401.0659.980501.0659.2612 0 .5875 0 .914501-.0659.3259 0 .653401-.0647.914601-.0647-.0647.848701-.1306 1.8954-.1306 3.0064-.0647 1.1099-.0647 2.4825-.0647 4.1163 0 1.7644 0 3.2029.0647 4.2481 0 1.0451.0659 2.0255.1306 2.8758-.3259-.0663-.653401-.0663-.980401-.0663-.3259 0-.5875-.0647-.848701-.0647-.3271 0-.654601.0647-.915701.0647-.3259 0-.653401 0-1.0452.0663zm14.7042-8.1692c.3918-.0663.719301-.2616.980501-.5228.5224-.4581.783901-1.111.783901-2.0919 0-.783901-.2615-1.3063-.719201-1.6985-.2616-.2612-.5875-.4577-1.0452-.5224v-1.242h.1306c1.6338 0 2.8096.2616 3.6594.784001.784001.5886 1.1773 1.3726 1.1773 2.4836 0 .979301-.3933 1.7644-1.1773 2.3519-.719201.5887-1.8291.915701-3.2676.980401v.1306c1.6338 0 2.8096.2612 3.6598.849901.785101.5886 1.1769 1.5032 1.1769 2.6789 0 1.242097-.4577 2.222497-1.3722 2.941697-.916101.7181-2.1566 1.0456-3.8563 1.0456h-.1306v-1.1762c.4577-.1306.849901-.3933 1.1758-.7192.5239-.4581.719201-1.1757.719201-2.156198 0-.916101-.2612-1.6338-.719201-2.0918-.3259-.326-.718101-.5228-1.1758-.653401v-1.3722zm-1.7648.1306c.0648 0 .131 0 .1954.0658h.2627c.4565 0 .914601-.0658 1.3067-.1964v1.3722c-.3274-.0659-.719201-.0659-1.1114-.0659h-.6534v2.6805c0 .5224 0 .9805.0648 1.5028v1.4374c.1968.0658.3274.0658.458.1306h.3275c.3259 0 .653001-.0648.914501-.0648v1.1762c-.3921 0-.980801 0-1.7-.0663h-1.9597c-.2612 0-.719301 0-1.3079.0663h-.1954c.0648-.5887.1306-1.3068.1306-2.0919.0648-.7181.0648-1.8291.0648-3.2017v-1.8303c0-2.1566 0-3.6598-.0648-4.6402 0-.914601-.0658-1.7644-.1306-2.4825h1.6338c.4581.0647.849901.0647 1.1115.0647.3259 0 .783901 0 1.3063-.0647h1.1114v1.242c-.2615-.0658-.5886-.1321-.914501-.1321h-.2616c-.0659.0663-.2612.0663-.4577.0663-.0662.327-.0662.719201-.131 1.1757v1.4385zm16.4036-6.4047v-.0658h.458c.1306.0658.2612.0658.4565.0658.1306 0 .2612 0 .3918-.0658h.3934c.848601 2.2883 1.8291 4.6402 2.8099 7.05911 1.0451 2.4178 2.1562 4.9014 3.2676 7.44981-.2616 0-.5886-.0659-.850201-.0659h-2.025601c-.3275 0-.5887.0659-.914601.0659-.1306-.5228-.3274-1.1114-.5227-1.6997-.2624-.5875-.524-1.3726-.915801-2.4825-.3259 0-.653301-.0659-.979201-.0659h-1.5691v-1.3067h1.961201c-.3274-.849801-.5886-1.6338-.916101-2.4836-.3259-.784001-.653301-1.568-1.0451-2.2872v.0647-4.1822zm-6.1435 14.4431c1.0456-2.2225 2.0919-4.5744 3.1371-6.99331.980801-2.3515 2.0259-4.8355 3.0064-7.44981v4.1822c-.3918.719301-.719301 1.4385-1.0452 2.2225-.3274.783901-.654501 1.6338-.916101 2.4836h1.9613v1.3067h-1.6338c-.3275 0-.653401.0659-.980501.0659-.3921 1.1758-.719201 2.0256-.914501 2.6131-.2616.5886-.4581 1.111-.653401 1.5691-.1965 0-.3275-.0659-.5228-.0659h-.3929c-.1953 0-.5228 0-.914601.0659h-.131zm16.8613.0002c.1969-1.0456.3275-2.026.4581-2.7452.1306-.784.2612-1.3064.2612-1.6338l1.4373-9.86761c.1306 0 .2612 0 .4577.0647h.9808c.1953-.0647.3259-.0647.4565-.0647.784001 1.6338 1.6338 3.2676 2.4837 4.9014.849801 1.6338 1.6996 3.2676 2.6142 4.8356.850201-1.568 1.6985-3.1371 2.5484-4.7709.849801-1.5679 1.7-3.2676 2.4836-4.9661.131 0 .3263 0 .4581.0647h1.0451c.1953-.0647.3259-.0647.5228-.0647l1.2416 9.93341c.131 1.1115.2616 2.026.3922 2.6131.0647.6545.1965 1.1773.3274 1.7001-.3933-.0663-.719601-.0663-1.0467-.0663-.2612 0-.5871-.0647-.849801-.0647-.2616 0-.5875.0647-.848701.0647-.3274 0-.653301 0-.980401.0663v-.1969c-.0663-1.5032-.1306-2.3515-.1969-2.7437l-.653001-6.66581c-.850201 1.5032-1.6985 3.0712-2.484 4.6387-.848301 1.5691-1.6981 3.2676-2.5484 4.9677-.0643 0-.0643 0-.1306-.0663h-.5886c-.0643.0663-.1306.0663-.1306.0663-.914601-1.7001-1.6985-3.3339-2.5484-4.8355-.783901-1.5691-1.6338-3.0065-2.4177-4.445l-.5224 4.3791v.1306c-.2612 2.2867-.3918 3.8562-.3918 4.7708-.1969-.0663-.3275-.0663-.5243-.0663-.1306 0-.2612-.0647-.3918-.0647s-.2612.0647-.4565.0647c-.1306 0-.2612 0-.4581.0663zm27.2519-14.4433v-.0658h.4581c.1306.0658.2612.0658.4565.0658.1306 0 .2612 0 .3918-.0658h.3933c.848701 2.2883 1.8291 4.6402 2.8096 7.05911 1.0451 2.4178 2.1565 4.9014 3.2676 7.44981-.2612 0-.5887-.0659-.849901-.0659h-2.025601c-.3274 0-.5886.0659-.914501.0659-.1306-.5228-.3275-1.1114-.5228-1.6997-.2627-.5875-.5239-1.3726-.915701-2.4825-.3259 0-.653401-.0659-.980801-.0659h-1.5676v-1.3067h1.960901c-.3271-.849801-.5883-1.6338-.915701-2.4836-.3259-.784001-.653401-1.568-1.0452-2.2872v.0647-4.1822zm-6.1434 14.4431c1.0451-2.2225 2.0919-4.5744 3.137-6.99331.980401-2.3515 2.0256-4.8355 3.0064-7.44981v4.1822c-.3921.719301-.719201 1.4385-1.0451 2.2225-.3275.783901-.654901 1.6338-.916101 2.4836h1.9612v1.3067h-1.6338c-.3274 0-.653301.0659-.980801.0659-.3918 1.1758-.719301 2.0256-.914201 2.6131-.2615.5886-.458 1.111-.653301 1.5691-.1969 0-.3275-.0659-.5228-.0659h-.3934c-.1953 0-.5223 0-.914501.0659h-.1306z" class="fil3" style="fill:#fff" transform="matrix(3.6928 0 0 3.57774 171.31005 26.054468)"/><path d="M33.0024 122.201c.1306-.8498.2612-1.5679.3274-2.1566.1306-.6533.1953-1.0451.1953-1.3079l1.1111-7.71091h.3921c.1306.0658.2612.0658.3918.0658s.2612 0 .3918-.0658h.3275c.653301 1.3063 1.3063 2.5483 1.9612 3.8562.653001 1.2417 1.3711 2.4837 2.0256 3.79.718101-1.2416 1.3726-2.4836 2.0256-3.7253.653401-1.3067 1.3067-2.6146 1.9601-3.9209h.3271c.1306.0658.3274.0658.458.0658s.2612 0 .3918-.0658h.3922l.980401 7.77721c.1306.9146.1953 1.5675.2612 2.0915.1306.4569.1953.9145.2616 1.3067-.2616-.0663-.5228-.0663-.784001-.0663-.1968 0-.458-.0643-.654501-.0643-.1953 0-.4569.0643-.718101.0643-.1964 0-.458 0-.719201.0663v-.1969c-.0659-1.1098-.1306-1.8291-.1306-2.0903l-.5887-5.2288c-.5871 1.1773-1.242 2.353-1.895 3.595-.653301 1.242-1.3067 2.5484-2.0259 3.921 0 0-.0659-.0663-.1306-.0663h-.3918c-.0663 0-.1306.0663-.1306.0663-.653401-1.3726-1.3079-2.6146-1.9613-3.8563-.653301-1.1757-1.3063-2.3518-1.895-3.3982l-.3921 3.3982-.0648.1306c-.1964 1.7644-.327 3.0065-.327 3.7257-.1306-.0663-.2612-.0663-.3275-.0663-.1306 0-.2612-.0643-.3259-.0643-.1306 0-.2612.0643-.3271.0643-.1309 0-.2615 0-.3921.0663zm24.9643 0c.131-.8498.2616-1.5679.3275-2.1566.1305-.6533.1953-1.0451.1953-1.3079l1.111-7.71091h.3922c.0658.0658.1964.0658.3918.0658.1305 0 .2615 0 .3921-.0658h.3271c.653401 1.3063 1.3067 2.5483 1.9613 3.8562.653301 1.2417 1.371 2.4837 2.0256 3.79.718001-1.2416 1.3726-2.4836 2.0259-3.7253.653001-1.3067 1.3064-2.6146 1.9597-3.9209h.3271c.131.0658.2616.0658.4581.0658.1306 0 .2612 0 .3921-.0658h.3918l.980501 7.77721c.1306.9146.1953 1.5675.2615 2.0915.1306.4569.1954.9145.2612 1.3067-.2612-.0663-.5227-.0663-.783901-.0663-.1965 0-.4581-.0643-.654601-.0643-.2611 0-.4565.0643-.718001.0643-.1965 0-.4577 0-.719301.0663v-.1969c-.0659-1.1098-.1306-1.8291-.1306-2.0903l-.5886-5.2288c-.653001 1.1773-1.2417 2.353-1.895 3.595-.653401 1.242-1.3064 2.5484-2.0256 3.921 0 0-.0663-.0663-.131-.0663h-.3918c-.0659 0-.1306.0663-.1306.0663-.719201-1.3726-1.3726-2.6146-1.9612-3.8563-.653001-1.1757-1.3064-2.3518-1.895-3.3982l-.4565 3.3982v.1306c-.1969 1.7644-.3275 3.0065-.3275 3.7257-.1306-.0663-.2612-.0663-.3271-.0663-.131 0-.2616-.0643-.3263-.0643-.1306 0-.2612.0643-.3917.0643-.0659 0-.1965 0-.3275.0663zm28.8862-11.371v-.0659c.1306.0659.2612.0659.3918.0659h.6533c.0659 0 .1965 0 .2612-.0659.719301 1.8303 1.4385 3.7257 2.2883 5.6207.784001 1.8949 1.6339 3.7903 2.5484 5.8159-.1965-.0647-.4581-.0647-.719201-.0647h-1.568002c-.2612 0-.4576 0-.719201.0647-.1306-.4565-.2612-.8487-.3918-1.3063-.1965-.4581-.3918-1.1762-.719201-2.026h-2.025601v-1.0452h1.567501c-.2612-.6545-.4565-1.3079-.717701-1.8949-.2616-.6546-.5228-1.2421-.785501-1.8966-.0643.0659-.0643.0659-.0643.1306V110.83Zm-4.7708 11.3707c.783901-1.7644 1.6338-3.5935 2.4177-5.4885.783601-1.8954 1.5691-3.7904 2.3531-5.8822v3.3323c-.2616.5239-.5228 1.1114-.784001 1.6997-.2616.6533-.5228 1.3067-.719201 1.9612h1.5032v1.0452h-2.026001c-.3271.9146-.5887 1.6338-.719301 2.0919-.1953.4565-.3259.8486-.5223 1.2404-.131-.0647-.2616-.0647-.3922-.0647h-.3271c-.131 0-.3922 0-.718101.0647h-.0658z" class="fil4" style="fill:#1f1a17" transform="matrix(3.6928 0 0 3.57774 171.31005 26.054468)"/><path d="M122.6 61.2928c-5.1626 4.1822-10.064 6.99331-17.3832 8.62711-12.2865-.915701-12.483-11.4366-21.5665-10.5221-6.40471-.1965-18.364 12.1559-22.0893 10.5221-5.6195 3.0064-14.4431-12.8751-19.8672-12.1559-4.3787-2.0919-13.6576 4.9014-19.3441 12.4171l2.2221 2.2871c4.379-4.9014 11.0448-11.1754 14.443-10.9785 6.66581-1.6338 10.7837 12.1543 22.2846 13.0704 11.7641-2.5499 16.7302-11.4366 22.6121-11.1754 5.6206-1.4385 9.54161 10.2593 21.3053 10.5209 9.54161-1.8954 14.443-6.53521 20.3237-10.7821l-2.9405-1.8307Z" class="fil5" style="fill:#0093dd" transform="matrix(3.6928 0 0 3.57774 171.31005 26.054468)"/></g></svg>