<svg xmlns="http://www.w3.org/2000/svg" xmlns:xlink="http://www.w3.org/1999/xlink" viewBox="0 0 800.00006 499.99999"><defs><path id="a" d="M0 0h841.89v595.276H0Z"/></defs><defs><clipPath id="b" clipPathUnits="userSpaceOnUse"><use xlink:href="#a"/></clipPath><clipPath id="c" clipPathUnits="userSpaceOnUse"><use xlink:href="#a"/></clipPath><clipPath id="d" clipPathUnits="userSpaceOnUse"><use xlink:href="#a"/></clipPath><clipPath id="e" clipPathUnits="userSpaceOnUse"><use xlink:href="#a"/></clipPath><clipPath id="f" clipPathUnits="userSpaceOnUse"><use xlink:href="#a"/></clipPath><clipPath id="g" clipPathUnits="userSpaceOnUse"><use xlink:href="#a"/></clipPath><clipPath id="h" clipPathUnits="userSpaceOnUse"><use xlink:href="#a"/></clipPath></defs><g fill="#0b552b" clip-path="url(#b)" transform="matrix(2.7784 0 0 -2.70687 -94.17713776 1453.36469233)"><path d="M222.4292 418.0273c-6.81 0-11.728-5.107-11.728-12.182 0-7.465 4.918-12.181 11.728-12.181s11.727 4.716 11.727 12.181c0 7.467-4.917 12.182-11.727 12.182m.378-17.291c-2.649 0-4.918 2.359-4.918 5.109 0 2.751 2.269 5.108 4.918 5.108 2.65 0 4.918-1.965 4.918-5.108s-2.268-5.109-4.918-5.109m-75.2821 2.752-6.431 1.964c-.379 0-.379 0-.758-.393-.756-2.357-3.025-3.536-6.051-3.536-3.785 0-7.19 2.357-7.19 8.253 0 4.715 2.649 8.251 7.19 8.251 3.026 0 4.915-1.179 6.43-3.929 0-.394 0-.394.379-.394l6.431 2.751c.378 0 .378.393 0 .786-1.892 4.717-6.431 8.645-13.619 8.645-8.702 0-15.511-6.679-15.511-16.11 0-8.645 6.431-16.112 15.89-16.112 6.809 0 11.726 4.323 13.618 9.431.377.393 0 .393-.378.393m44.6385 7.0722c3.406.788 5.297 3.144 5.297 6.681 0 5.108-3.405 8.252-8.7 8.252h-12.105c-.379 0-.759-.392-.759-.392l-.377-.394c-3.027-3.93-7.567-9.038-9.459-11.003-.378-.392-.378-.785-.756-.785-.379 0-.757.393-1.134.785-1.891 1.572-5.676 6.288-9.08 10.217-.756.786-.756.786-1.135 1.18l-.378.392h-3.026c-.379 0-.379 0-.379-.392 0-.394-.378-18.47 0-30.258 0-.393 0-.393.379-.393h7.186s.379 0 .379.393v13.36c.757-.787 5.675-5.108 6.431-5.501.378-.394.378-.394.757-.394 0 0 .378 0 .756.394.379.393 5.296 4.714 6.432 5.501v-13.36c0-.393 0-.393.378-.393h17.025c5.296 0 8.322 3.144 8.322 8.252 0 3.537-2.271 7.074-6.054 7.858m-11.348 8.252h5.674c1.892 0 3.028-.785 3.028-2.749 0-1.965-1.136-2.751-3.028-2.751h-5.674zm6.431-18.076h-6.431v6.68h6.431c1.514 0 3.026-1.177 3.026-3.142 0-2.358-1.512-3.538-3.026-3.538m17.0249 25.5433c-2.271 0-3.784-1.572-3.784-3.93 0-1.965 1.513-3.929 3.784-3.929 1.891 0 3.782 1.964 3.782 3.929 0 2.358-1.891 3.93-3.782 3.93m-89.2813-.7866h-7.188c-.378 0-.378-.392-.378-.392v-30.258c0-.393 0-.393.378-.393h7.188c.378 0 .378 0 .378.393v30.258s0 .392-.378.392m92.6846-8.6451h-7.188v-22.005c0-.393 0-.393.379-.393h6.809c.378 0 .378 0 .378.393v22.005Zm-17.4021-37.3305v.393h-.377l-.378-.393-6.432-14.54s0-.393.378-.393h2.647s0 .393.379.393l.378 1.572s0 .393.379.393h6.052v-.393l.757-1.572v-.393h3.027c.378 0 .378.393.378.393zm1.891-10.609h-4.162v.393l1.516 3.537v.391l.378.788h.377l1.891-4.716zm-27.6163 11.002h-1.133c-.379 0-.379-.393-.379-.393s-4.919-6.288-5.675-6.288c-.758 0-5.675 6.288-5.675 6.288s0 .393-.378.393h-1.135v-15.326h2.648c.379 0 .379.393.379.393v7.468s1.891-1.573 2.648-2.359c.378-.393 1.135-1.178 1.135-1.178h.755s.758.785 1.136 1.178c.757.786 2.648 2.359 2.648 2.359v-7.468s0-.393.38-.393h2.646l.378.393v14.54c0 .393-.378.393-.378.393m17.0249 0h-1.135c-.379 0-.379-.393-.379-.393s-4.917-6.288-5.674-6.288c-.378 0-5.674 6.288-5.674 6.288s0 .393-.38.393h-1.134v-15.326h2.649c.378 0 .378.393.378.393v7.468h.378s1.513-1.573 2.269-2.359c.379-.393 1.136-1.178 1.514-1.178h.377s.759.785 1.516 1.178c.378.786 2.267 2.359 2.267 2.359v-7.468s0-.393.379-.393h2.649l.379.393v14.54c0 .393-.379.393-.379.393"/></g><path fill="#0b552b" d="M204.28878 414.36092888h2.10322886V396.2789065H204.28878Zm19.97384921-.00178165-8.4129952-12.76559892v12.76559892h-3.153484v-18.0818916h3.153484l8.4129952 12.76289205v-12.76289205h2.1004704v18.0818916Z"/><g clip-path="url(#c)" transform="matrix(2.7784 0 0 -2.70687 -94.17713776 1453.36469233)"><path fill="#0b552b" d="M119.5303 383.4482c-1.135 0-1.891.392-2.271 1.178l.757.787c.379-.787.757-.787 1.514-.787.755 0 1.514.393 1.514 1.179 0 0 0 .393-.38.393 0 .393-.379.393-.756.393h-.756c-.379.392-1.136.392-1.136.787-.377.392-.757.784-.757 1.177 0 1.18 1.136 2.359 2.271 2.359 1.134 0 1.514-.395 2.269-1.179l-.755-.393c-.38.393-.759.393-1.514.393-.757 0-1.135-.393-1.135-1.18 0 0 0-.393.378-.393 0-.392.379-.392.757-.392h.755c.379-.392.759-.392 1.136-.787.378-.392.378-.785.378-1.178 0-1.572-.755-2.357-2.269-2.357"/></g><path fill="#0b552b" d="M255.78902968 398.40187317v15.95699865h-2.1004704v-15.95699865h-5.2567328v-2.12489295h12.6194928v2.12489295Zm10.51325634 15.95905571h2.10045704V396.2789065h-2.10045704zm14.71454684-15.95905571v15.95699865h-3.1507056v-15.95699865h-4.2064976v-2.12489295h12.6111576v2.12489295Z"/><g clip-path="url(#d)" transform="matrix(2.7784 0 0 -2.70687 -94.17713776 1453.36469233)"><path fill="#0b552b" d="M140.7156 383.4482c-1.135 0-2.271 1.178-2.271 2.75v4.321h1.136v-4.321c0-1.179.378-1.572 1.135-1.572 1.134 0 1.511.393 1.511 1.572v4.321h1.135v-4.321c0-1.572-1.135-2.75-2.646-2.75"/></g><path fill="#0b552b" d="M315.70475758 398.40187317v15.95699865h-2.1032488v-15.95699865h-5.2567328v-2.12489295h12.613936v2.12489295Z"/><g fill="#0b552b" clip-path="url(#e)" transform="matrix(2.7784 0 0 -2.70687 -94.17713776 1453.36469233)"><path d="M155.0901 384.2334c-.378-.394-1.134-.785-1.891-.785-.757 0-1.135.391-1.514.785-.755.786-.755 1.572-.755 2.75 0 1.572 0 2.358.755 3.144.379.392.757.787 1.514.787s1.513-.395 1.891-.787c.757-.786.757-1.572.757-3.144 0-1.178 0-1.964-.757-2.75m-.756 5.108c-.378.393-.756.393-1.135.393s-.757 0-.757-.393c-.378-.394-.378-.786-.378-2.358 0-1.178 0-1.57.378-1.964 0-.393.378-.393.757-.393s.757 0 1.135.393c.378.394.378.786.378 1.964 0 1.572 0 1.964-.378 2.358m8.3224-5.8932c-.756 0-1.512.392-1.891.785-.757.786-.757 1.572-.757 2.75 0 1.572 0 2.359.757 3.144.379.392 1.135.787 1.891.787 1.135 0 2.269-.787 2.269-2.359h-1.134c0 .787-.377 1.18-1.135 1.18-.377 0-.756 0-1.135-.393-.377-.394-.377-.787-.377-2.359 0-1.178 0-1.57.377-1.964.379-.393.758-.393 1.135-.393.758 0 1.135.393 1.135 1.179h1.134c0-1.572-1.134-2.357-2.269-2.357"/></g><path fill="#0b552b" d="M379.82003088 414.35914723v-7.44659937h-7.3599816v7.44659937h-3.1507056v-18.0818916h3.1507056v7.4438925h7.3599816v-7.4438925h3.153484v18.0818916Zm8.40601892-18.08024073h3.15068423v18.08202238h-3.15068422z"/><g fill="#0b552b" clip-path="url(#f)" transform="matrix(2.7784 0 0 -2.70687 -94.17713776 1453.36469233)"><path d="M179.303 383.4482c-.758 0-1.515.392-1.892.785-.756.786-.756 1.572-.756 2.75 0 1.572 0 2.359.756 3.144.377.392 1.134.787 1.892.787 1.134 0 1.891-.787 2.269-2.359h-1.135c0 .787-.378 1.18-1.134 1.18-.38 0-.758 0-1.135-.393-.38-.394-.38-.787-.38-2.359 0-1.178 0-1.57.38-1.964.377-.393.755-.393 1.135-.393.756 0 1.134.393 1.134 1.179h1.135c-.378-1.572-1.135-2.357-2.269-2.357m7.9436.7852c-.379-.394-.757-.785-1.514-.785-.756 0-1.512.391-1.891.785-.755.786-.755 1.572-.755 2.75 0 1.572 0 2.358.755 3.144.379.392 1.135.787 1.891.787.757 0 1.135-.395 1.514-.787.755-.786.755-1.572.755-3.144 0-1.178 0-1.964-.755-2.75m-.757 5.108c0 .393-.378.393-.757.393-.378 0-.756 0-1.134-.393-.378-.394-.378-.786-.378-2.358 0-1.178 0-1.57.378-1.964.378-.393.756-.393 1.134-.393.379 0 .757 0 .757.393.378.394.378.786.378 1.964 0 1.572 0 1.964-.378 2.358"/></g><path fill="#0b552b" d="M454.44596603 414.35914723v-11.70179901l-4.2064976 8.50769241h-2.097692l-4.2064976-8.50769241v11.70179901h-3.1507056v-18.0818916h3.1507056l5.2567328 11.69909214 5.2539544-11.69909214h3.153484v18.0818916Zm9.45986627 0v-18.0818916h11.5637008v2.12489295h-8.4102168v5.31899955h7.3572032v3.19139973h-7.3572032v5.31899955h8.4102168v2.12759982Zm28.37459352 0-8.40466-12.76559892v12.76559892h-3.153484v-18.0818916h3.153484l8.40466 12.76289205v-12.76289205h3.1618192v18.0818916Z"/><g clip-path="url(#g)" transform="matrix(2.7784 0 0 -2.70687 -94.17713776 1453.36469233)"><path fill="#0b552b" d="M218.2676 384.2334c-.378-.394-.756-.394-1.514-.394h-2.646v6.68h2.646c.758 0 1.136 0 1.514-.392.757-.786.757-1.965.757-2.749 0-1.18 0-2.359-.757-3.145m-.756 5.108c0 .393-.379.393-1.135.393h-1.134v-5.108h1.134c.756 0 1.135 0 1.135.393.378.394.378 1.179.378 2.359 0 .784 0 1.569-.378 1.963"/></g><path fill="#0b552b" d="M519.61202159 414.35914723v-18.0818916h12.6194928v2.12489295h-9.4660088v5.31899955h7.3572032v3.19139973h-7.3572032v5.31899955h9.4660088v2.12759982Z"/><g clip-path="url(#h)" transform="matrix(2.7784 0 0 -2.70687 -94.17713776 1453.36469233)"><path fill="#0b552b" d="M228.8601 383.4482c-.757 0-1.512.392-2.271 1.178l.759.787c.377-.787 1.134-.787 1.512-.787 1.134 0 1.512.393 1.512 1.179 0 0 0 .393-.378.393 0 .393-.377.393-.755.393h-.757c-.379.392-.757.392-1.134.787-.379.392-.379.784-.379 1.177 0 1.18.756 2.359 2.27 2.359.755 0 1.513-.395 1.891-1.179l-.758-.393c-.378.393-.755.393-1.512.393s-1.135-.393-1.135-1.18c0 0 0-.393.378-.393 0-.392.379-.392.757-.392h.757c.755-.392.755-.392 1.135-.787.378-.392.757-.785.757-1.178 0-1.572-1.137-2.357-2.649-2.357"/><path fill="#054729" d="M124.8259 489.9375c-.757 0-1.135-.393-1.135-1.178 0-.394.378-1.178 1.135-1.178.378 0 .757.784.757 1.178 0 .785-.379 1.178-.757 1.178"/><path fill="#67963f" d="M225.834 429.8164c-.377 0-1.135-.394-1.135-1.179 0-.393.758-1.179 1.135-1.179.755 0 1.135.786 1.135 1.179 0 .785-.38 1.179-1.135 1.179m4.1601-9.8242c-1.891 0-3.025-1.572-3.025-3.537 0-1.571 1.134-3.143 3.025-3.143 1.894 0 3.405 1.572 3.405 3.143 0 1.965-1.511 3.537-3.405 3.537m-82.8476 68.7671c-1.135 0-1.892-.394-2.649-1.178 0-.394-.377-.787-.377-1.573 1.134 0 1.891-.784 1.891-1.572 0-.785-.379-1.179-.757-1.572.757 0 1.135-.393 1.892-.393 1.134 0 1.89.786 2.648 1.965 0 .393.378.788.378 1.18 0 1.571-1.514 3.143-3.026 3.143m17.4009-57.3711c0 1.57-1.133 2.75-2.646 2.75-1.514 0-2.65-1.18-2.65-2.75 0-1.179.757-1.965 1.893-2.359.377 0 .377 0 .757-.392 1.513 0 2.646 1.179 2.646 2.751m-10.2129 1.5703c0-.785.377-1.177 1.135-1.177.377 0 1.133.392 1.133.784v.393c0 .395-.377 1.179-1.133 1.179-.379 0-.379-.392-.758-.392-.377-.392-.377-.392-.377-.787m16.2668 11.0034c-.756.393-1.514.786-2.271.786-1.512 0-2.648-.786-3.405-1.965-.378-.785-.378-1.571-.378-1.965 0-1.571.757-3.144 1.892-3.536.757-.392 1.136-.785 1.891-.785.38 0 1.137.393 1.515.393 0 1.572.756 2.749 2.268 3.536v1.572c-.757.392-1.512 1.179-1.512 1.964m-45.0185 52.2637c0-.785-.378-1.965-1.514-2.357.379 0 .379-.394.379-.787 0 0 0-.393-.379-.393 1.136-1.572 2.649-3.144 4.917-3.144 2.649 0 4.92 2.358 4.92 5.502 0 1.572-.757 3.143-1.892 3.931 0-.396 0-.788-.379-1.18-.755-.787-2.269-1.179-3.404 0-.756.392-1.136 1.18-1.136 2.357-.755-.393-1.512-1.177-2.269-1.965.379-.392.757-1.179.757-1.964m74.5256 4.7153c-1.512 0-2.271.786-2.271 2.357-.755 0-1.511 0-2.268-.392v-.393c0-1.179-.757-1.964-1.892-1.964 0-.787-.378-1.18-.378-1.967 0-1.572 1.135-3.141 2.27-3.929 0 1.18.757 1.965 1.891 1.965 1.136 0 2.271-.785 2.271-1.965l-.378-.392c1.889.392 3.404 2.357 3.404 4.321 0 1.18-.378 2.359-1.135 3.145-.38-.786-1.135-.786-1.514-.786m-40.4783 9.0381c1.891.392 3.405 1.964 3.405 3.929 0 1.966-1.514 3.538-3.405 3.538-1.892 0-3.783-1.572-3.783-3.538 0-1.178.755-2.357 1.514-2.75h.377c.757 0 1.514-.393 1.892-1.179m-13.2405 2.751h.757v1.178c0 1.572-1.514 3.145-3.026 3.145-1.894 0-3.027-1.573-3.027-3.145 0-1.178.378-2.357 1.513-2.75.755.785 2.269 1.572 3.783 1.572m-23.0776-27.5059c0 1.963-1.512 3.535-3.026 3.535-1.891 0-3.026-1.572-3.026-3.535 0-1.573 1.135-3.145 3.026-3.145 1.514 0 3.026 1.572 3.026 3.145m23.8345 33.0064v-1.572c0-1.572 1.134-2.751 2.648-2.751 1.135 0 1.891.395 2.269 1.572v.395c0 .784 0 1.178.379 1.178 0 1.571-1.136 2.751-2.648 2.751h-.758c-.756-.393-1.512-.786-1.89-1.573m-28.7517-5.8931c.378 0 1.135.393 1.135 1.177 0 .788-.757 1.179-1.135 1.179-.755 0-1.514-.391-1.514-1.179 0-.784.759-1.177 1.514-1.177m3.7832-10.2163c0-1.18 1.134-2.359 2.648-2.359 1.134 0 2.269 1.179 2.269 2.359 0 1.572-1.135 2.749-2.269 2.749-1.514 0-2.648-1.177-2.648-2.749m43.1262-48.7271h-.757c-2.268 0-4.16-1.964-4.16-4.324 0-2.356 1.892-4.322 4.16-4.322 2.271 0 4.163 1.966 4.163 4.322 0 1.179-.38 1.965-.758 2.36-.756.392-1.134.784-1.891 1.177-.379 0-.379.393-.757.787m-13.6189 29.8633.378-.393c0-1.179 1.136-2.357 2.271-2.357 1.513 0 2.648 1.178 2.648 2.75 0 .787-.38 1.572-1.135 1.967-.377.392-.757.784-1.513.784-1.135 0-2.649-1.179-2.649-2.751m26.4824 9.0386c-.757-.394-1.135-.786-1.512-1.572-.759-.786-1.136-1.965-1.136-3.143v-.786c.757-2.75 2.648-4.323 5.296-4.323s4.917 2.357 4.917 5.109c0 2.357-1.134 4.321-3.025 5.108-.757 0-1.514.393-1.892.393-1.134 0-1.893-.393-2.648-.786m-12.8635-21.2202c-.757 1.18-2.269 2.359-4.16 2.359-2.649-.394-4.542-2.359-4.542-5.109v-1.571c.759-1.967 2.65-3.144 4.542-3.144 1.512 0 2.648.393 3.782 1.572.756.785 1.135 1.964 1.135 3.143 0 1.179-.379 1.965-.757 2.75m20.4285 25.9346c.378 0 .757-.392 1.135-.392 2.27 0 4.161 1.964 4.161 4.323 0 2.357-1.891 4.322-4.161 4.322-1.513 0-2.647-.786-3.404-2.357-.377-.393-.377-1.18-.377-1.965 0-1.964 1.134-3.537 2.646-3.931m-18.1577-11.3941h-1.892c-1.136 0-2.648-.392-3.404-1.18.756-.392 1.513-1.571 1.513-2.751 0-1.57-1.135-2.749-2.648-2.749h-.378c.378-2.358 2.649-3.931 4.917-3.931 3.027 0 5.295 2.359 5.295 5.503 0 .784-.377 1.571-.755 2.357-1.136.392-2.271 1.179-2.648 2.751m15.1328-22.3984c-.757 0-1.514.393-2.271.393-1.134 0-2.269-.393-3.026-.787 1.134-.784 1.892-1.964 1.892-3.144 0-1.571-1.515-3.143-3.406-3.143-.377 0-.755 0-1.135.393 0-2.751 2.27-5.108 4.92-5.5h.755c1.136 0 1.891.392 3.027.785 1.513 1.179 2.647 3.144 2.647 5.501 0 1.572-.757 3.144-1.891 4.324-.756.391-1.134.391-1.512 1.178m-15.8897 42.0454c0-1.965-1.135-3.537-3.026-3.929.755-1.179 1.891-1.572 3.026-1.572 2.649 0 4.539 1.964 4.539 4.715 0 1.572-.379 2.751-1.511 3.537-.379-.393-1.136-.786-1.894-.786-1.134 0-1.891.786-2.648 1.573h-.378c1.135-.787 1.892-1.967 1.892-3.538"/><path fill="#398751" d="M237.562 418.4204c-1.514 0-2.271-1.179-2.271-2.357 0-1.18.757-2.359 2.271-2.359 1.135 0 2.268 1.179 2.268 2.359 0 1.178-1.133 2.357-2.268 2.357m-7.5679 5.8941c-.755-.393-.755-.785-.755-1.573 0-.783.378-1.177 1.133-1.177 1.137 0 1.516.394 1.516 1.177v.395h-.379c-.757 0-1.137.393-1.515 1.178m-29.507 38.1167c0-1.179.755-1.963 1.892-1.963 1.134 0 1.892.784 1.892 1.963s-.758 1.965-1.892 1.965c-1.137 0-1.892-.786-1.892-1.965m-9.4588 45.1904c.758 0 1.515.393 1.515 1.572 0 .785-.757 1.178-1.515 1.178-.756 0-1.511-.393-1.511-1.178 0-1.179.755-1.572 1.511-1.572m-5.2956.7847c.757.395 1.135 1.18 1.135 1.965 0 0 0 .394-.378.394 0 .393-.757.786-1.513.786-.756-.393-1.135-1.18-1.135-1.965.379-.785 1.135-1.18 1.891-1.18m-15.887-71.5167c0-1.965 1.511-3.537 3.403-3.537 1.893 0 3.407 1.572 3.407 3.537 0 1.965-1.514 3.537-3.407 3.537h-1.135c-1.512-.787-2.268-1.965-2.268-3.537m-30.2656 45.19c.756.785 1.514 2.357 1.514 3.537 0 3.143-2.649 5.893-5.676 5.893-3.026 0-5.296-2.75-5.296-5.893 0-3.145 2.27-5.501 5.296-5.501 1.136 0 1.893 0 3.027.784 0 .393.755.786 1.135 1.18m27.238-53.835c.378.393.378.785.378.785 0 1.179-.756 1.966-1.513 1.966-.757 0-1.513-.787-1.513-1.966v-.392h1.513c.378 0 .757 0 1.135-.393m30.6426 40.8672c0 2.357-2.269 4.715-4.539 4.715-2.271 0-4.161-1.964-4.54-4.322-.757.786-1.514 1.179-2.649 1.179-1.891 0-3.025-1.179-3.782-2.358-.378-.786-.757-1.571-.757-1.966 0-1.572.757-2.356 1.514-3.142.378-.787.756-.787 1.513-1.178.378 0 .756-.395 1.512-.395h.378c1.514.395 3.027 1.573 3.407 3.143 0 0 .378.395.378.787.755-.787 1.891-1.179 3.026-1.179 1.513 0 3.025.787 3.783 2.359v.392c0 .786.378 1.179.756 1.965m0 4.7153c0-.393.757-1.18 1.512-1.18.38 0 1.136.787 1.136 1.18 0 .785-.756 1.178-1.136 1.178-.755 0-1.512-.393-1.512-1.178m-44.2615-34.9726c.757 0 1.512.785 1.512 1.572 0 .786-.755 1.572-1.512 1.572s-1.514-.786-1.514-1.572c0-.787.757-1.572 1.514-1.572m30.2642-5.1089c0-1.18.378-1.964 1.514-1.964.755 0 1.512.784 1.512 1.964 0 .785-.757 1.572-1.512 1.572-1.136 0-1.514-.787-1.514-1.572m7.9448 55.4067c0-1.965 1.135-3.536 3.026-3.536.757 0 1.136 0 1.513.392 1.135.393 1.89 1.573 1.89 3.144 0 1.572-1.511 3.144-3.024 3.144h-.379c-1.891 0-3.026-1.572-3.026-3.144m-21.9409 25.9346c0-1.179 1.134-1.965 2.269-1.965.756 0 1.891.786 1.891 1.965 0 1.18-1.135 1.966-1.891 1.966-1.135 0-2.269-.786-2.269-1.966m6.8096-1.5723c.378 0 .755.393.755.788 0 .391-.377.784-.755.784-.38 0-.757-.393-.757-.784 0-.395.377-.788.757-.788m0-7.8579c0-.787.378-1.572.755-2.358 1.136.394 1.891.786 3.027.786.757 0 1.892 0 2.649-.392.378.392.756 1.177.756 1.964 0 1.965-1.892 3.929-3.782 3.929-.759 0-1.137-.392-1.894-.785 0-1.572-.377-2.751-1.511-3.144m-43.8846 3.5367c0-.787-.379-1.572-.757-2.359.757-.785 1.514-1.178 2.649-1.571.756.786 1.891 1.179 3.026 1.179h.756c.757.786 1.514 2.358 1.514 3.537 0 2.751-1.891 4.714-4.54 4.714-1.891 0-3.405-.786-4.16-2.356 1.133-.787 1.512-1.966 1.512-3.144m68.8501-24.7569c-1.889 0-3.405-1.572-3.405-3.537 0-1.179.38-1.963 1.136-2.357.38-.786 1.514-1.178 2.269-1.178 1.894 0 3.406 1.572 3.406 3.535 0 1.965-1.512 3.537-3.406 3.537m-76.0381 27.9009c.756 0 1.514.393 1.891 1.177.38.393.38.788.38 1.573v.392c0 1.179-1.136 2.359-2.271 2.359-1.514 0-2.649-1.18-2.649-2.751 0-1.573 1.135-2.75 2.649-2.75m1.8909-4.3232c0 1.179-.756 1.965-1.512 1.965h-.379c-.757 0-1.514-.786-1.514-1.965 0-.786.757-1.965 1.514-1.965.756 0 1.135.393 1.135.785.379 0 .756.787.756 1.18m-6.8096-11.0039v.787c0 1.572-.755 2.752-2.269 2.752-1.514 0-2.271-1.18-2.271-2.752 0-1.179.757-2.357 1.894-2.357h.377c1.135 0 1.892.392 2.269 1.57m31.0213-18.8614c0 .394 0 .394-.377.787-.379 1.572-1.514 2.75-3.405 2.75-1.892 0-3.783-1.571-3.783-3.537 0-2.356 1.891-3.929 3.783-3.929h.379c1.891.392 3.403 1.964 3.403 3.929m8.3232 23.9722c-.757 0-1.135-.395-1.514-.787-1.134-.393-1.514-1.572-1.514-2.357v-.787c.38-1.572 1.514-2.358 3.028-2.358 1.891 0 3.026 1.178 3.026 3.145 0 .785-.377 1.964-1.135 2.357-.377.392-.756.392-.756.392-.378.395-.757.395-1.135.395m2.2708-7.4678c-.757 0-1.514.393-2.271.393-2.269 0-4.54-2.357-4.54-5.109 0-.392 0-.785.38-1.178 0-.394.377-1.178.755-1.572.758-1.179 1.891-1.963 3.405-1.963 2.271 0 4.162 1.57 4.54 3.535.377.393.377 1.178.377 1.573 0 1.57-1.132 3.536-2.646 4.321m2.2693-36.5449c0 1.965-1.514 3.931-3.783 3.931-1.135 0-1.892-.394-2.649-.787-1.136-.785-1.513-1.965-1.513-3.144 0-1.572.377-2.75 1.513-3.537.757-.392 1.514-.785 2.649-.785 2.269 0 3.783 1.965 3.783 4.322m5.665-5.1084c-.374-.393-.75-.786-.75-1.57-.372-1.572 0-3.144 1.123-4.324l.374-.392c1.868-1.179 4.111-.787 5.609.785 0 .393 0 .393.374.787.746 1.572.372 3.928-1.122 5.108-.75.785-1.496 1.178-2.618 1.178-1.121 0-2.243-.393-2.99-1.572m-23.824 31.4365c0 .788-.757 1.572-1.891 1.572-.758 0-1.514-.784-1.514-1.572 0-1.179.756-1.965 1.514-1.965.377 0 .756.393 1.134.393.379.393.757.787.757 1.572m5.2957-22.7915c1.135 0 1.892.786 1.892 1.965 0 1.178-.757 1.965-1.892 1.965-.756 0-1.512-.787-1.512-1.965 0-1.179.756-1.965 1.512-1.965m-23.0762 36.1524c1.135-1.179 2.649-.787 3.405 0 .378.393.378.785.378 1.18.379.784 0 1.964-.757 2.749-1.135.787-2.648.787-3.403-.392-.379-.393-.379-.785-.758-1.18 0-1.177.379-1.964 1.135-2.357"/><path fill="#bccc32" d="M244.3713 418.4204c-1.135 0-2.271-1.179-2.271-2.357 0-1.572 1.136-2.359 2.271-2.359 1.512 0 2.648.787 2.648 2.359 0 1.178-1.136 2.357-2.648 2.357m-7.1877 3.1436c0 .786-.757 1.572-1.514 1.572-.756 0-1.514-.786-1.514-1.572s.758-1.572 1.514-1.572c.757 0 1.514.786 1.514 1.572m-50.6941 89.2011c.757.393 1.135 1.178 1.135 1.965-.378.785-1.135 1.178-1.892.785-.755 0-1.134-.785-1.134-1.572 0-.392.379-.392.379-.392.755 0 1.512-.393 1.512-.786m19.2944-16.1118c-.38.393-1.135.393-1.891.393-2.651 0-4.92-2.357-4.92-5.109 0-2.75 2.269-5.108 4.92-5.108 2.647 0 4.917 2.358 4.917 5.108v1.179c-1.892 0-3.026 1.573-3.026 3.537m-26.1025-43.2236c-.378-.395-.378-.787-.378-1.572 0-1.572 1.134-2.752 2.648-2.752 1.512 0 2.647 1.18 2.647 2.752 0 1.177-.378 1.965-1.135 2.357-1.136-.392-1.891-.785-3.026-.785Zm4.1604-9.0396c0-1.178.757-1.964 1.512-1.964 1.136 0 1.893.786 1.893 1.964 0 .787-.757 1.572-1.893 1.572-.755 0-1.512-.785-1.512-1.572m13.9958 38.5098c-.377.393-.755.786-1.133.786-.378.394-1.135.394-1.892.394-2.269 0-4.162-1.572-4.162-3.931v-.785c.378-1.964 2.271-3.537 4.162-3.537 2.27 0 4.16 1.966 4.16 4.322v.394c-.755.393-1.135 1.178-1.135 2.357m-1.1325 30.2583c1.891 0 3.026 1.572 3.026 3.536 0 1.572-1.135 3.144-3.026 3.144-1.892 0-3.028-1.572-3.028-3.144 0-1.964 1.136-3.536 3.028-3.536m-31.0225 5.5005c0-.785-.757-1.572-1.512-1.572h-.379c.379-1.179 1.513-1.965 2.648-1.965 1.513 0 2.648 1.181 2.648 2.752 0 1.572-1.135 2.75-2.648 2.75-.379 0-1.135 0-1.514-.393.379-.392.757-.785.757-1.572m0 5.501c.378 0 .757.395.757.787s-.379.786-.757.786-.757-.394-.757-.786.379-.787.757-.787m32.155-18.8614c0-1.572.758-2.357 2.271-2.357.378 0 1.134 0 1.514.785.378.395.757.787.757 1.572 0 1.179-1.137 2.358-2.271 2.358-1.136 0-2.271-1.179-2.271-2.358m7.1895-6.288c.757 0 1.135.394 1.135 1.18 0 .392-.378.787-1.135.787-.378 0-1.134-.395-1.134-.787 0-.786.756-1.18 1.134-1.18m-76.041 14.9326c-.755 0-1.133.395-1.511.787-1.135-.392-1.892-1.572-1.892-2.751.757 0 1.512-.786 1.512-1.965 0-.392-.377-1.179-.755-1.179.755-.786 1.513-1.178 2.646-1.178 1.135 0 1.894.392 2.649 1.178.379.787.757 1.571.757 2.358 0 1.178-.378 2.358-1.512 3.145l-.38.392c-.379-.392-1.134-.787-1.514-.787m-10.9697-21.2188c.757-.787 1.514-1.179 2.648-1.179 1.891 0 3.404 1.179 3.404 3.144.379 0 .379.392.379.392 0 .393 0 .788-.379.788h-.756c-1.513 0-2.648 1.177-2.648 2.356v.785h-.379c-.377-1.178-1.134-1.57-2.269-1.57h-.377c-.38-.787-.758-1.571-.758-2.359.758-.392 1.135-1.571 1.135-2.357m28.7517 27.1143.378.392c.379.787 1.134 1.18 1.89 1.573.38.392.38.786.38 1.178v.394c-1.136.392-1.891 1.179-2.27 2.358h-.378c-1.514 0-3.026-1.179-3.026-2.752 0-1.571 1.512-3.143 3.026-3.143m52.5849-53.4424c1.512 0 2.648 1.179 2.648 2.751 0 1.572-1.136 2.749-2.648 2.749-.757 0-1.515-.392-1.892-.784-.379-.786-.756-1.179-.756-1.965v-.393c0-.786.377-1.179.756-1.571.377-.395 1.135-.787 1.892-.787m-59.7729 34.186v.396c-1.135 0-2.269-.788-3.026-1.968-.379-.784-.379-1.178-.379-1.964 0-1.964 1.514-3.536 3.784-3.536 1.891 0 3.403 1.572 3.403 3.536v1.572c-.377-.392-.756-.392-1.512-.392-1.135 0-2.27 1.178-2.27 2.356m-1.8909 17.6846c0-.393 0-.787-.378-.787.378-.393 1.134-.786 1.889-.786 1.894 0 3.026 1.573 3.026 3.537 0 1.573-1.132 3.144-3.026 3.144 0 0 .38-.393.38-.785 0-1.179-1.135-1.966-1.891-1.966-.758 0-1.135.394-1.514.787 0-.393-.378-.787-.378-1.18 0-.392.378-.785.378-1.178 0 .393.379.393.379.393.757 0 1.135-.787 1.135-1.179m38.9661-25.5425c-.758 1.572-1.894 2.357-3.406 2.357h-1.136c-1.512-.392-2.268-1.964-2.646-3.536.378.392.756.392 1.134.392 1.891 0 3.405-1.571 3.405-3.536 0-.393 0-.393-.379-.785.757.392 1.514.392 1.893 1.178v.787c0 1.178.377 2.356 1.135 3.143m3.4033-12.1811c0 .786-.377 1.572-.377 1.965-.758 1.572-2.271 2.749-4.162 2.749-2.649 0-4.541-2.357-4.541-4.714 0-2.359 1.892-4.323 3.783-4.716h.758c2.648 0 4.539 1.966 4.539 4.716m3.7832-3.9307c0-1.178 1.135-2.357 2.648-2.357 1.512 0 2.648 1.179 2.648 2.75 0 1.179-1.513 2.359-2.648 2.359h-.379c-1.134 0-2.269-1.18-2.269-2.752m-4.5388-14.9321c0 1.179-.758 2.359-1.892 3.144h-1.514c-1.512 0-3.026-1.179-3.026-3.144 0-1.178.756-2.357 1.89-2.75.38-.394.759-.394 1.136-.394 1.891 0 3.406 1.572 3.406 3.144m-15.5113 22.0053c0 1.179-.757 2.359-1.512 2.751h-1.136c-1.514 0-2.649-1.179-2.649-2.751 0-1.178 1.135-2.357 2.271-2.75h.378c1.513 0 2.648 1.18 2.648 2.75m12.8636 19.6485c0 .393-.378.787-.378 1.179-.38.785-1.516 1.572-2.65 1.572-1.514 0-2.649-1.179-2.649-2.751 0-1.572 1.135-3.144 2.649-3.144.379 0 .379 0 .757.392 1.136 0 2.271 1.18 2.271 2.752m-4.9187-42.0464c-1.891 1.572-4.54 1.572-6.054-.393-1.512-1.572-1.512-3.929-.378-5.501.378-.394.378-.787.756-.787.758-.392 1.136-.784 1.892-1.177h1.135c0 .785.38 1.177.758 1.57.756 1.18 1.891 1.572 3.025 1.572.757 1.572 0 3.537-1.134 4.716m-6.054-35.3662c1.135 0 2.27 1.18 2.27 2.358 0 .786-.378 1.571-1.135 1.965-.378.393-.757.393-1.135.393h-1.512c-.379-.787-1.136-1.572-1.136-2.358 0-1.178 1.136-2.358 2.648-2.358m-6.8093 81.3418c0-1.57.757-2.75 1.892-3.537 0 0 .379 0 .756-.392h2.27c1.891.392 3.027 1.964 3.027 3.929 0 1.571-.757 2.751-1.893 3.538-.378.392-1.134.392-1.89.392-1.134 0-1.891 0-2.648-.787-.757-.785-1.514-1.964-1.514-3.143m-7.188 1.9653v1.178c-.378 2.359-2.269 3.931-4.539 4.323h-.757c-1.514 0-3.027-.787-3.783-1.571-1.135-1.18-1.512-2.358-1.512-3.93 0-2.751 2.268-5.107 4.917-5.107h.378c3.027 0 5.296 2.356 5.296 5.107"/><path fill="#0b552b" d="M231.5095 427.458c-1.137 0-1.892-1.178-1.892-2.357 0-.393 0-.393.377-.787.378-.784.758-1.178 1.515-1.178h.378c1.133.394 1.891 1.178 1.891 1.965 0 1.179-1.135 2.357-2.269 2.357m-36.6968 54.6216c.757 0 1.514 0 1.892-.394 0 .394.378.786.378 1.179 0 1.18-.378 2.36-1.136 3.144-.377-.392-.755-.392-1.512-.392-1.891 0-3.027 1.571-3.027 3.536 0 1.572 1.136 3.143 3.027 3.143h.378c-.378 2.358-2.269 3.93-4.162 3.93-2.269 0-4.161-1.965-4.161-4.323 0-1.571 1.135-3.143 2.648-3.929-1.891-.786-3.027-2.749-3.027-5.109 0-2.749 1.891-5.5 4.54-5.5v.784c0 2.359 1.893 3.931 4.162 3.931m-33.6687-8.645c0 3.537-3.028 6.681-6.432 6.681-1.513 0-2.648-.395-3.782-1.18.377-.393.377-.393.377-.787 0-1.964-1.513-3.536-3.403-3.928v-1.18c0-3.536 3.026-6.681 6.808-6.681.758 0 1.513.395 1.89.395v1.572c0 2.749 1.893 4.714 4.542 5.108m-8.7019 16.8974c0 1.178 0 2.357-.757 3.537-1.134 2.357-4.16 3.141-6.431 1.571-2.269-1.571-3.028-4.323-1.512-6.681.378-.393.755-.786.755-1.178.757.785 1.514 1.178 2.649 1.178 1.513 0 3.027-1.572 3.027-3.143 0-.392-.379-.787-.379-1.18.379-.785 1.136-1.571 2.27-1.571l-.379.392c0 1.572 1.514 2.751 2.649 2.751.756 0 1.136-.392 1.513-.784.378.392.378.784.378 1.177v.786c-.378.394-.755 1.179-.755 1.572-.758.786-1.893 1.573-3.028 1.573m12.1243-49.5136c0 .394 0 1.18.375 1.964-1.123.395-2.62.395-3.744-.392-1.874-.785-2.248-3.536-1.124-5.501 1.124-1.572 3.372-2.359 5.242-1.179.375.394.75.786 1.124 1.572-1.124.392-1.873 1.965-1.873 3.536m-7.9133-7.8599v-.393c.374 0 1.116 0 1.861.393 1.116 1.179 1.488 2.752.744 4.324-.744 1.179-2.605 1.572-3.719.786-1.489-.786-1.861-2.751-1.116-3.931l.371-.392c.372 0 .372.392.745.392.743 0 1.114-.784 1.114-1.179m14.3252-.7847c0 1.572-1.133 2.751-2.268 2.751-1.514 0-2.649-1.179-2.649-2.751 0-1.178 1.135-2.357 2.649-2.357 1.135 0 2.268 1.179 2.268 2.357m-10.5913 11.0034c.757 0 1.514.785 1.514 1.57 0 .787-.757 1.18-1.514 1.18s-1.135-.393-1.135-1.18c0-.785.378-1.57 1.135-1.57m27.238 10.2168c0 .392-.378 1.178-.757 1.178-.757 0-1.135-.786-1.135-1.178 0-.787.378-1.18 1.135-1.18.379 0 .757.393.757 1.18m-1.5139 8.251c-.378-.393-.378-.786-.378-1.177 0-1.966 1.513-3.931 3.404-3.931v-.393c0-1.572 1.136-3.144 2.65-3.144 1.512 0 3.026 1.572 3.026 3.144 0 .786-.757 1.964-1.514 2.358.378.786.378 1.178.378 1.966 0 2.356-1.89 4.32-3.781 4.32h-.379c-.38-1.57-1.892-2.748-3.406-3.143m-29.8858-3.5366c0 1.179.377 2.359 1.512 3.144-.755.393-1.512.787-2.267.787-1.893 0-3.785-1.966-3.785-4.324 0-1.964 1.892-3.929 3.785-3.929.755 0 1.512.393 2.267.785-1.135.787-1.512 1.965-1.512 3.537m-15.5097 18.4702c1.511 0 2.646 1.178 2.646 2.75 0 1.571-1.135 2.751-2.646 2.751h-1.135c-.38-.394-1.136-.787-1.136-1.18-.378-.392-.378-1.179-.378-1.571 0-1.572 1.134-2.75 2.649-2.75m56.7451 20.0396c-1.134 0-1.891-.786-1.891-1.965s.757-2.357 1.891-2.357c1.135 0 1.892.785 1.892 1.965l.379.392c0 1.179-1.136 1.965-2.271 1.965m-16.6453-51.4771c0 .394-.378.786-.757.786-.377 0-.755-.392-.755-.786s.378-.786.755-.786c.379 0 .757.392.757.786m26.1026 55.4082c.757 0 1.135.392 1.135 1.177 0 .787-.378 1.179-1.135 1.179-.378 0-.756-.392-.756-1.179 0-.785.378-1.177.756-1.177m-11.3482 1.9639v.393c0 .787-.757 1.571-1.892 1.571-.756 0-1.891-.784-1.891-1.964 0-1.179 1.135-1.964 1.891-1.964 1.135 0 1.892.785 1.892 1.964m-61.2854 2.75c-1.135-.786-1.515-1.965-1.515-3.537 0-2.357 1.515-4.322 3.785-4.716.756 1.18 1.89 1.967 3.026 1.967v-.395c0-1.178 1.135-2.357 2.269-2.357.757 0 1.135 0 1.513.393.38.392 1.135 1.179 1.135 1.964 0 1.573-1.135 2.359-2.648 2.359v.785c0 2.359-1.514 4.323-3.783 4.716h-.756c-1.135 0-2.27-.393-3.026-1.179m35.5613 13.3603c1.133 0 1.891 1.18 1.891 1.966 0 1.178-.758 1.965-1.891 1.965-1.135 0-1.894-.787-1.894-1.965 0-.786.759-1.966 1.894-1.966m-6.054-3.5366h.378c.756 0 1.513.787 1.513 1.572 0 .787-.379 1.179-.757 1.572h-.756c-.755 0-1.513-.785-1.513-1.572 0-.785.758-1.179 1.135-1.572m45.397-16.897c-1.892 0-3.405-1.572-3.405-3.537 0-1.964 1.134-3.536 3.027-3.536h.378c1.889 0 3.405 1.572 3.405 3.536 0 1.965-1.516 3.537-3.405 3.537m1.5125-19.6469c-.756 0-1.512-.394-1.512-1.179 0-1.18.756-1.571 1.512-1.571.757 0 1.515.391 1.515 1.571 0 .785-.758 1.179-1.515 1.179m-13.2405-13.3604c-1.134 0-2.269-1.179-2.269-2.358 0-1.18 1.135-2.357 2.269-2.357 1.135 0 2.271 1.177 2.271 2.357 0 .786-.379 1.179-.379 1.571-.757 0-1.515.392-1.892.787m-70.3655 48.332c0-.393.38-.785.38-.785.378-.392.755-.787 1.511-.787.38 0 1.135.395 1.514.787.38.392.38.785.38 1.573 0 1.177-.759 1.964-1.894 1.964-.756 0-1.133-.393-1.511-.787v-.393c0-.784 0-1.179-.38-1.572m-4.1616-4.3212c.378 0 1.135.393 1.135 1.178 0 .787-.757 1.572-1.135 1.572-.756 0-1.512-.785-1.512-1.572 0-.785.756-1.178 1.512-1.178m4.5415-27.5079c1.511 0 2.646 1.179 2.646 2.751 0 1.572-1.135 2.751-2.646 2.751-1.515 0-2.649-1.179-2.649-2.751 0-1.572 1.134-2.751 2.649-2.751m-9.4587 9.0386c0 .786-.377 1.965-1.135 2.357-.379.393-1.136.788-1.891.788-1.513 0-3.026-1.573-3.026-3.145s1.513-3.143 3.026-3.143c1.512 0 3.026 1.571 3.026 3.143"/><path fill="#0b552b" d="M154.7117 508.0142v-.393c-.377.393-1.134.393-1.512.393-.758.392-1.136.392-1.514.392v-1.178c0-2.751-2.27-5.107-5.296-5.107h-.378c0-3.144 1.892-5.503 4.54-6.289 2.648-.392 4.918.393 6.051 2.358v.787c0 .785.38 1.964 1.514 2.357 0 1.179-.379 2.359-.756 3.535h.377c.379 0 .757 0 1.136.394 0 1.179.756 2.358 1.513 3.143 0 .787-.378 1.18-.757 1.573-.378.786-1.135 1.179-1.892 1.179h-.377c-1.514-.393-2.649-1.572-2.649-3.144m-2.648 7.8598v-.395c.378-.392.757-.785 1.135-.785.757 0 1.513.785 1.513 1.18 0 .785-.756 1.572-1.513 1.572 0 0-.378 0-.757-.393-.378 0-.378-.394-.378-1.179m-27.2378 4.7154h.378c0-.786.756-1.572 1.891-1.966.759 0 1.891.787 1.891 1.966.38 1.178-.377 2.357-1.511 2.357h-1.135c0 .393-.38.787-1.136.787-.756.393-1.513-.394-1.892-1.179 0-1.179.757-1.965 1.514-1.965m24.5901.7856h.378c1.136 0 2.27 1.179 2.27 2.751 0 1.572-1.134 2.75-2.27 2.75-1.513 0-2.648-1.178-2.648-2.75v-.393c.379-1.179 1.135-1.966 2.27-2.358m4.9185-9.4321c0 1.179-.757 1.965-1.892 1.965-1.136 0-2.27-.786-2.27-1.965 0-1.178 1.134-2.357 2.27-2.357 1.135 0 1.892 1.179 1.892 2.357m-31.0225-18.0742h.757c1.135.392 1.514 1.572 1.514 2.357 0 .785-.379 1.572-.757 1.964-.379.392-1.136.788-1.514.788-1.512 0-2.268-.788-2.648-1.967v-.785c0-1.179 1.136-2.357 2.648-2.357m62.4207-23.1851c.378.392.757.786.757 1.572-1.513 0-2.648 1.179-2.648 2.357 0 1.571 1.135 2.752 2.269 2.752-.756 1.964-3.024 3.535-5.295 3.535-.379 0-.757-.392-1.134-.392 0-.392.377-1.179.377-1.965 0-2.75-1.891-4.715-4.539-4.715h-.758c.38-3.144 3.026-5.895 6.054-5.895.378 0 .757.394 1.135.394.757 1.178 1.891 2.357 3.782 2.357m-8.7005 32.6147c-.377-.393-.377-.393-.755-.785 0-.392.378-.787.378-1.179 0-1.573-1.135-2.752-2.271-2.752v-.392c0-2.75 1.513-5.109 3.783-5.894.756.393 1.514.785 2.648.785.379 0 1.136-.392 1.893-.392 1.512.785 2.646 2.357 3.024 4.321-1.512.394-2.646 1.967-2.646 3.931 0 .785 0 1.572.377 1.964-.377.393-.377.393-.755.788-.757.392-1.893.392-2.65.392-1.135 0-1.891-.392-3.026-.787m-6.4309-56.5839c0-.394 0-.394-.378-.788 0-.785 0-1.179.378-1.964 0-.785.755-1.572 1.512-1.964.379-.393.757-.786 1.136-.786 2.27-.394 4.161 1.178 4.539 3.143.379 1.571-.378 2.751-1.133 3.931-.378-.395-.378-.395-.378-.788-1.516-1.572-3.785-1.964-5.676-.784m5.2957 20.8252c0 3.536-2.648 5.895-5.674 5.895-1.892 0-3.783-.787-4.919-2.359.379-.785.757-1.571.757-2.749 0-1.18-.378-2.359-1.135-3.144.757-2.358 3.026-3.538 5.297-3.538 3.404 0 5.674 2.751 5.674 5.895m-4.5403 41.2612c0-1.966 1.514-3.538 3.405-3.538.38 0 1.135 0 1.515.394 1.134.393 1.511 1.572 1.511 3.144 0 1.964-1.511 3.142-3.026 3.142-1.891 0-3.405-1.572-3.405-3.142m-.7554-18.8633c-.378 0-.756 0-1.134-.393.378 1.572 1.134 3.144 2.646 3.537v.393c0 3.144-2.268 5.503-5.295 5.503-2.271 0-4.539-1.967-4.917-4.324 1.513-.785 2.646-2.751 2.646-4.321 0-.395 0-1.18-.377-1.573.755-.394 1.891-.786 2.648-.786h1.134c-.377-.392-.756-.786-.756-1.572 0-.393 0-.785.379-.785.377-1.572 1.512-2.359 2.648-2.752h.378c1.512 0 3.026 1.18 3.026 2.752.379.392.379.392.379.785 0 1.964-1.514 3.536-3.405 3.536m-9.4573-60.9082c-1.135-.392-1.514-.785-1.514-1.571 0-1.179.757-1.965 1.514-1.965s1.512.786 1.512 1.965c0 .392-.377.786-.755 1.179-.38.392-.38.392-.757.392m6.8081 78.1992c.758 0 1.515.393 1.894.786.377.786.755 1.179.755 2.357 0 1.571-1.134 2.751-2.649 2.751-1.512 0-2.648-1.18-2.648-2.751v-1.571c.757-.786 1.514-1.572 2.648-1.572m-30.2629 11.395c.756 0 1.891.787 1.891 1.966 0 .392-.38.785-.38.785-.377.785-.755 1.18-1.511 1.18-1.135 0-1.892-.787-1.892-1.965 0-.394 0-.786.378-1.179.379-.393.756-.787 1.514-.787m-2.2707-2.3569c0-.787.378-1.18 1.135-1.18.377 0 .757 0 .757.393.379 0 .379.394.379.787 0 .392-.379 1.179-1.136 1.179 0 0-.378 0-.378-.393-.379 0-.757-.394-.757-.786"/></g></svg>