<svg xmlns="http://www.w3.org/2000/svg" viewBox="0 0 800.00006 499.99999"><defs><radialGradient id="b" cx="0" cy="0" r="1" fx="0" fy="0" gradientTransform="matrix(128.08169 0 0 122.12101 404.63356 139.3346)" gradientUnits="userSpaceOnUse" spreadMethod="pad"><stop offset="0" stop-color="#82b829"/><stop offset="1" stop-color="#578434"/></radialGradient><linearGradient id="a" x1="0" x2="1" y1="0" y2="0" gradientTransform="matrix(0 -112.34382 117.82754 0 402.23152 413.23979)" gradientUnits="userSpaceOnUse" spreadMethod="pad"><stop offset="0" stop-color="#578434"/><stop offset=".5" stop-color="#82b829"/><stop offset="1" stop-color="#578434"/></linearGradient></defs><path fill="url(#a)" d="M330.48624 358.52376c0 31.08104 20.23578 54.7167 59.5248 54.7167 13.65692 0 24.44958-2.59161 29.00315-4.69456l-3.7108-19.42611c-5.2274 2.10296-13.65693 3.56163-21.58344 3.56163-22.76597 0-36.25394-13.7597-36.25394-35.45346 0-24.27993 15.85113-36.09775 36.085-36.09775 9.27418 0 16.52498 1.94369 21.58344 4.04665l5.39444-19.58718c-4.54977-2.10295-14.66862-4.69456-27.98957-4.69456-34.39759 0-62.05308 20.55904-62.05308 57.62864m102.17539-54.39095v107.4879h25.46317v-42.89707h7.58865c10.62374.16107 15.51138 3.72089 18.71539 17.48241 3.20401 13.43576 6.07016 22.17697 7.75759 25.41466h26.30404c-2.19233-4.20954-5.56337-18.45427-9.10525-30.91817-2.86614-10.0352-7.25079-17.15847-15.17541-20.23509v-.48502c9.78098-3.40056 20.06685-12.95074 20.06685-26.71226 0-10.03338-3.71271-17.64348-10.62374-22.82306-8.09545-6.3143-19.89981-8.74301-36.76074-8.74301-13.82585 0-25.96807.97365-34.23055 2.42871m25.46317 16.83633c1.85445-.48502 5.39443-.81078 11.63543-.81078 11.80246 0 18.88622 5.17957 18.88622 15.0555 0 9.55199-7.59056 15.70342-20.40661 15.70342H458.1248Zm99.13651-18.45427-34.73736 109.10584h26.64381l7.92461-28.00444h32.71207l8.76738 28.00444h27.6555l-35.40928-109.10584Zm10.4529 39.49832c1.68932-6.3143 3.54188-14.57049 5.05847-21.04405h.50869c1.68553 6.31249 3.70892 14.56868 5.56337 21.04405l7.08186 23.14881h-25.12531Zm-274.48412-39.49832v31.72715c0 16.51238.50679 31.24394 2.02528 45.65154h-.33787c-5.2274-12.30284-11.80435-25.90148-18.55024-37.39535l-23.60683-39.98334h-30.01295v109.10584h23.60493v-32.86188c0-17.80635-.33597-33.18401-1.17873-47.75268h.67383c5.39633 12.78605 12.98499 26.71045 19.72898 38.52646l24.28065 42.0881h26.98166V302.51487ZM178.23675 411.62071h25.6302V302.51487h-25.6302z"/><path fill="url(#b)" d="m387.28479 91.673976-13.09713 7.163928 25.18659 7.767506 17.24667-9.856568-22.62608-5.892758c-.59169-.155203-1.28413-.226644-2.00759-.226644-1.6562 0-3.48809.379374-4.70246 1.044536m25.49923 19.065234 36.30457 11.19673 18.42229-11.93086-37.0797-9.65703zm-51.4067-4.89749-34.71555 18.98887c-1.74922.95338-1.6097 2.21717.30488 2.81088l23.12733 7.12945 39.91668-22.81472-21.97496-6.77471c-.66662-.20693-1.465-.30547-2.29698-.30547-1.55543 0-3.22454.34489-4.3614.9657m-25.97982 99.561 98.88608 31.49619c3.8214 1.21698 9.52637.2562 12.67857-2.13588l119.12218-90.38929c1.50117-.87701 2.51142-2.44134 2.51142-4.24219 0-2.31078-1.65877-4.2348-3.89891-4.80142l-.002-.01-86.37288-22.50186zm29.0545-66.20238 35.79815 11.03906c1.91457.59371 4.84716.19462 6.51368-.8844l33.70789-21.8367-36.87042-11.37165zm-58.49916-3.04738-62.8244 34.35635c-3.49583 1.9117-3.22971 4.47376.59169 5.68828l74.57022 23.75334c3.8214 1.21944 9.67363.44589 13.00411-1.70969l56.38564-36.52425c3.33049-2.15806 2.92225-4.89011-.91207-6.0726l-67.49326-20.81681c-1.33323-.41141-2.93259-.60849-4.59136-.60849-3.11345 0-6.45427.68733-8.73057 1.93387"/></svg>