<svg xmlns="http://www.w3.org/2000/svg" fill="none" viewBox="0 0 65.832146 25.394188"><g fill="#f9f9f9"><path d="M30.228221 22.371073h1.735947v-6.548081h-1.735947zm0-7.569245h1.735947v-1.557235h-1.735947zm2.854497 9.713657h1.735947v-2.884716h.02558c.370121.561593.970059.931776 1.889074.931776 1.684905 0 2.833674-1.340241 2.833674-3.459132 0-2.042327-1.110488-3.459133-2.846434-3.459133-.893495 0-1.506193.421226-1.927419.995579h-.03828v-.816867h-1.672144zm3.280485-3.395329c-1.033924 0-1.58282-.778586-1.58282-1.965701 0-1.174291.433987-2.10613 1.518954-2.10613 1.072206 0 1.506192.867973 1.506192 2.10613 0 1.238157-.561592 1.965701-1.442326 1.965701zm6.666673 1.442389c1.633798 0 2.757046-.791409 2.757046-2.10613 0-1.531714-1.212572-1.838031-2.310299-2.067785-.93184-.191472-1.799813-.242578-1.799813-.804171 0-.472268.446747-.727607 1.123312-.727607.740304 0 1.187051.255339 1.263615.957361h1.570058c-.127669-1.314721-1.084966-2.169933-2.808152-2.169933-1.493432 0-2.667786.676501-2.667786 2.093306 0 1.42963 1.148833 1.748771 2.323123 1.978525.893495.178648 1.723187.242515 1.723187.867973 0 .459508-.433988.753065-1.199876.753065-.778585 0-1.314721-.331839-1.429566-1.084967h-1.608341c.102149 1.391348 1.161594 2.310363 3.063492 2.310363zm9.347918-.191472v-6.548081h-1.735947v3.77821c0 .867973-.497789 1.480672-1.31472 1.480672-.740305 0-1.084967-.421226-1.084967-1.187115v-4.071767h-1.723186v4.365387c0 1.429566.816931 2.361406 2.272081 2.361406.919016 0 1.429566-.344663 1.876376-.944601h.03828v.765889zm1.122867 0h1.73601v-3.803795c0-.867974.472269-1.429566 1.174291-1.429566.63822 0 1.008403.382881 1.008403 1.123249v4.110112h1.735947v-3.803795c0-.867974.446747-1.429566 1.17429-1.429566.63822 0 1.008403.382881 1.008403 1.123249v4.110112h1.735947v-4.403669c0-1.42963-.778649-2.323124-2.157172-2.323124-.829692 0-1.518954.433987-1.965701 1.148769h-.02552c-.319141-.689261-.982882-1.148769-1.812574-1.148769-.906255 0-1.544474.459508-1.901897 1.059445h-.03828v-.880733h-1.672143zM30.253742 11.155667h1.735947V2.02918h-1.735947zm5.980586.191472c2.029567 0 3.42085-1.506193 3.42085-3.459133 0-1.95294-1.391283-3.459127-3.42085-3.459127-2.029504 0-3.420852 1.506187-3.420852 3.459127 0 1.95294 1.391348 3.459133 3.420852 3.459133zm0-1.327481c-1.072206 0-1.65932-.855213-1.65932-2.131652 0-1.276438.587114-2.144399 1.65932-2.144399 1.059445 0 1.659383.867961 1.659383 2.144399 0 1.276439-.599938 2.131652-1.659383 2.131652zm7.112531 3.369809c.970121 0 1.812574-.229754 2.361405-.740368.485029-.446748.778649-1.072206.778649-1.991222V4.607579h-1.672144v.689274h-.02552c-.395705-.54887-.995643-.867974-1.812574-.867974-1.65932 0-2.833674 1.250906-2.833674 3.203852 0 1.978462 1.429629 3.127231 2.88478 3.127231.829692 0 1.327481-.331838 1.710426-.765826h.03828v.714784c0 .893494-.472268 1.365762-1.45515 1.365762-.804171 0-1.174291-.319077-1.314721-.727543H40.28343c.178712 1.276439 1.276439 2.042328 3.063429 2.042328zm-.02552-4.020789c-.893495 0-1.480672-.65098-1.480672-1.761468 0-1.097727.587177-1.787021 1.467911-1.787021 1.046685 0 1.557235.8169 1.557235 1.774261 0 .970058-.446747 1.774228-1.544474 1.774228zm7.385073 1.978461c2.029503 0 3.42085-1.506193 3.42085-3.459133 0-1.95294-1.391347-3.459127-3.42085-3.459127-2.029504 0-3.420851 1.506187-3.420851 3.459127 0 1.95294 1.391347 3.459133 3.420851 3.459133zm0-1.327481c-1.072206 0-1.659383-.855213-1.659383-2.131652 0-1.276438.587177-2.144399 1.659383-2.144399 1.059445 0 1.659383.867961 1.659383 2.144399 0 1.276439-.599938 2.131652-1.659383 2.131652zm4.942597-1.365763h7.505316V7.160462h-7.505316zm8.055735 6.056768c0-.293748.23807-.531882.532008-.531882h1.063382c.293938 0 .532008.238134.532008.531882 0 .293683-.23807.531817-.532008.531817h-1.063382c-.293938 0-.532008-.238134-.532008-.531817z" class="ccustom"/><path fill-rule="evenodd" d="M12.69709 0c7.012414 0 12.697094 5.68468 12.697094 12.697094s-5.68468 12.697094-12.697094 12.697094C5.684682 25.394188 0 19.709508 0 12.697094S5.684682 0 12.69709 0zm-.458936.950118c-1.448485.203851-2.82777 1.367788-3.898453 3.314455-.310571.564659-.590795 1.188486-.835024 1.862054 1.455849-.365847 3.055111-.581539 4.733477-.614901zM6.431582 6.431586c.303651-.953057.675168-1.829905 1.103886-2.609348.530738-.965017 1.160641-1.798353 1.870345-2.438401-3.859219 1.120811-6.901169 4.162756-8.021974 8.02198.640042-.709704 1.473384-1.339607 2.438401-1.870346.779443-.428717 1.656286-.800234 2.609342-1.103885zm-.304984 1.073095c-.365822 1.455849-.581508 3.055111-.61487 4.733476H.950113c.203858-1.448547 1.367794-2.827833 3.314463-3.898452.564658-.31057 1.188485-.590796 1.862022-.835024zm.303206 4.733476c.0379-1.831618.301556-3.551186.737829-5.070521 1.519334-.436271 3.238965-.699991 5.070521-.737891v1.982587c-.683295 1.74928-2.076928 3.142785-3.826269 3.825825zm-.918076.917874H.950113c.203858 1.448547 1.367794 2.827769 3.314463 3.898452.564658.31057 1.188485.590796 1.862022.835024-.365822-1.455849-.581508-3.055111-.61487-4.733476zm1.655905 5.070521c-.436273-1.519335-.699928-3.238903-.737829-5.070521h1.982081c1.749341.68304 3.143038 2.076545 3.826269 3.825825v1.982587c-1.831556-.0379-3.551187-.30162-5.070521-.737891zm-.736051.73605c-.953056-.303651-1.829899-.675168-2.609342-1.103885-.965017-.530739-1.798359-1.160642-2.438401-1.870346 1.120805 3.859218 4.162755 6.901188 8.021974 8.02196-.709704-.64006-1.339607-1.47337-1.870345-2.438412-.428718-.779412-.800235-1.656273-1.103886-2.609317zm5.806572 5.481462c-1.448485-.203852-2.82777-1.367794-3.898453-3.314449-.310571-.564639-.590795-1.188511-.835024-1.862029 1.455849.365804 3.055111.581527 4.733477.614857zm3.750213-.433733c.709704-.64006 1.339607-1.47337 1.870409-2.438412.428654-.779412.800171-1.656273 1.103822-2.609317.953044-.303651 1.829905-.675168 2.60938-1.103885.964979-.530739 1.798352-1.160642 2.43835-1.870346-1.120773 3.859218-4.162743 6.901188-8.021961 8.02196zm1.901136-4.742745c-.244229.673518-.524453 1.29739-.835024 1.862029-1.070619 1.946655-2.449904 3.110597-3.898453 3.314449v-4.561621c1.678366-.03333 3.277628-.249053 4.733477-.614857zm1.378079-1.378079c.673517-.244228 1.297389-.524454 1.862029-.835024 1.946655-1.070683 3.110598-2.449905 3.314449-3.898452h-4.561621c-.03333 1.678365-.249054 3.277627-.614857 4.733476zm-.303143-4.733476c-.0379 1.831618-.301619 3.551186-.737892 5.070521-1.519334.436271-3.238901.699991-5.070521.737891v-1.981127c.683041-1.749914 2.076991-3.144055 3.826841-3.827285zm.918-.917874h4.561621c-.203851-1.448547-1.367794-2.827833-3.314449-3.898452-.56464-.31057-1.188512-.590796-1.862029-.835024.365803 1.455849.581527 3.055111.614857 4.733476zm-1.655892-5.070521c.436273 1.519335.699991 3.238903.737892 5.070521h-1.981572c-1.74985-.68323-3.1438-2.077371-3.826841-3.827285V6.429745c1.83162.0379 3.551187.30162 5.070521.737891zm.736051-.73605c.953044.303651 1.829905.675168 2.60938 1.103885.964979.530739 1.798352 1.160642 2.43835 1.870346-1.120773-3.859224-4.162743-6.901169-8.021961-8.02198.709704.640048 1.339607 1.473384 1.870409 2.438401.428654.779443.800171 1.656291 1.103822 2.609348zM13.156026.950118c1.448549.203851 2.827834 1.367788 3.898453 3.314455.310571.564665.590795 1.188486.835024 1.862054-1.455849-.365847-3.055111-.581539-4.733477-.614901z" class="ccustom" clip-rule="evenodd"/></g></svg>