<svg xmlns="http://www.w3.org/2000/svg" viewBox="0 0 800.00006 499.99999"><defs><clipPath id="a" clipPathUnits="userSpaceOnUse"><path d="M385 182.022v-45.689h2.575v15.834h7.724c4.098 0 7.594 1.458 10.493 4.378 2.894 2.919 4.342 6.447 4.342 10.582 0 4.091-1.448 7.603-4.342 10.533-2.426 2.433-5.376 3.889-8.852 4.362zm2.575-2.617h7.724c3.369 0 6.253-1.196 8.658-3.587 2.402-2.392 3.603-5.289 3.603-8.691 0-3.426-1.201-6.338-3.603-8.741-2.405-2.403-5.289-3.603-8.658-3.603h-7.724z"/></clipPath><clipPath id="b" clipPathUnits="userSpaceOnUse"><path d="M422 182.829v-46.496h15.995c3.841.517 7.015 2.048 9.526 4.589 3.111 3.123 4.668 6.796 4.668 11.018 0 4.264-1.502 7.904-4.507 10.921-1.502 1.528-2.607 2.38-3.315 2.553 1.996 1.981 2.994 4.362 2.994 7.142 0 2.756-1.02 5.157-3.057 7.203-2.039 2.047-4.571 3.07-7.596 3.07zm5.826-5.04h8.849c1.244 0 2.361-.495 3.348-1.486.986-.991 1.481-2.24 1.481-3.747 0-1.553-.473-2.792-1.415-3.717-.688-.711-1.665-1.131-2.93-1.26h-9.333zm0-15.283h8.431c2.681 0 5.027-1.012 7.033-3.039 2.005-2.025 3.007-4.534 3.007-7.527 0-2.995-1.002-5.498-3.007-7.513-2.006-2.015-4.352-3.02-7.033-3.02h-8.431z"/></clipPath><clipPath id="c" clipPathUnits="userSpaceOnUse"><path d="M488 176.432c-4.667-4.697-7-10.287-7-16.77 0-6.526 2.333-12.133 7-16.819 4.665-4.685 10.356-7.028 17.072-7.028 6.737 0 12.44 2.343 17.105 7.028 4.667 4.686 7 10.293 7 16.819 0 6.483-2.333 12.073-7 16.77-4.665 4.696-10.368 7.043-17.105 7.043-6.716 0-12.407-2.347-17.072-7.043m4.265-30.081c-3.606 3.619-5.406 8.054-5.406 13.311 0 5.212 1.8 9.634 5.406 13.265 3.605 3.629 7.873 5.443 12.807 5.443 4.956 0 9.239-1.814 12.842-5.443 3.604-3.631 5.406-8.053 5.406-13.265 0-5.257-1.802-9.692-5.406-13.311-3.603-3.621-7.886-5.429-12.842-5.429-4.934 0-9.202 1.808-12.807 5.429"/></clipPath><clipPath id="d" clipPathUnits="userSpaceOnUse"><path d="M651.776 180.196c-2.096-2.122-3.142-4.583-3.142-7.383 0-2.864 1.011-5.311 3.026-7.334 2.015-2.025 4.688-3.586 8.015-4.686 2.36-.991 4.418-2.359 6.177-4.104 1.737-1.746 2.609-3.931 2.609-6.558 0-2.629-.887-4.832-2.657-6.608-1.769-1.778-3.843-2.666-6.225-2.666-2.361 0-4.401.861-6.115 2.585-1.568 1.552-2.524 4.017-2.865 7.4L645 148.806c.513-3.533 1.888-6.409 4.119-8.629 2.852-2.906 6.34-4.361 10.46-4.361 4.098 0 7.558 1.418 10.378 4.249 2.823 2.832 4.23 6.188 4.23 10.066 0 3.877-1.426 7.238-4.279 10.081-2.487 2.498-5.579 4.351-9.269 5.556-1.931.906-3.454 1.896-4.57 2.974-1.072 1.12-1.607 2.477-1.607 4.071 0 1.615.519 2.947 1.56 3.991 1.039 1.045 2.226 1.565 3.557 1.565 1.35 0 2.553-.537 3.606-1.615.513-.516 1.093-1.647 1.737-3.391l5.213 2.034c-.644 2.024-1.534 3.598-2.673 4.718-2.186 2.175-4.815 3.265-7.883 3.265-3.114 0-5.713-1.063-7.803-3.184"/></clipPath></defs><g transform="translate(-248.23905 -114.86216) scale(1.01543)"><path fill="#808283" d="m430.20839 477.30361-21.92799945 28.86533261L386.31105776 477.30361h-4.9773332v60.91733181h3.4319999v-57.21199857l23.51466609 30.88933256 23.47333274-30.88933256v57.21199857h3.43199992V477.30361Zm42.7272 0-22.26799944 60.91733181h3.64533324l9.86933309-26.79599933h20.9813328l9.69999976 26.79599933h3.60399991L476.45558991 477.30361Zm1.75866662 5.1733332 9.22666644 25.54399937h-18.4946662Z"/><g clip-path="url(#a)" transform="matrix(1.33333 0 0 -1.33333 0 720)"><path fill="#808283" d="M380 131.333h35.135v55.689H380Z"/></g><g clip-path="url(#b)" transform="matrix(1.33333 0 0 -1.33333 0 720)"><path fill="#84caa0" d="M417 131.333h40.188v56.496H417Z"/></g><path fill="#84caa0" d="M618.66665 538.22134h7.768v-61.99333h-7.768z"/><g clip-path="url(#c)" transform="matrix(1.33333 0 0 -1.33333 0 720)"><path fill="#84caa0" d="M476 130.815h58.177v57.659H476Z"/></g><path fill="#84caa0" d="m769.22158 476.22841-19.78266617 26.06266602-19.8239995-26.06266602h-8.28133313v61.99466512h7.76533314v-50.40533208l20.33999949 26.754666 20.29733282-26.754666v50.40533208h7.76666648V476.22841Zm46.7664 0-22.6546661 61.99466512h8.1079998l9.48666643-25.76399936h16.77599958l9.31066643 25.76399936h8.06666647L822.72531316 476.22841Zm3.34933325 13.053333 5.91999985 16.45866626h-11.88533303z"/><g clip-path="url(#d)" transform="matrix(1.33333 0 0 -1.33333 0 720)"><path fill="#84caa0" d="M640 130.816h39.188v57.563H640Z"/></g><path fill="#84caa0" d="m556.21079 262.96561 41.33466563 41.24266564V221.7282777z"/><path fill="#77b893" d="m597.49199 304.20841 41.32666563-41.24266564L597.49199 221.72707873Z"/><path fill="#75c7e0" d="m600.21718 219.06121 82.66399793-.00533333-41.33066563-41.24666564Z"/><path fill="#62a5bb" d="m600.21718 219.00121 41.3333323 41.23999897L682.88117793 219.00121Z"/><path fill="#75c7e0" d="m512.43119 219.03241 41.3333323 41.24266564v-82.4946646Z"/><path fill="#62a5bb" d="m553.70399 260.27521 41.33466563-41.24266564L553.70399 177.7805454Z"/><path fill="#dcdb77" d="m644.24638 350.79121 41.33466563 41.2493323v-82.4866646Z"/><path fill="#c5c56c" d="m685.52638 392.04121 41.32799897-41.2493323-41.33466564-41.23866564Z"/><path fill="#84caa0" d="m600.21478 306.87841 41.33466563 41.2493323v-82.4866646Z"/><path fill="#77b893" d="m641.49478 348.12721 41.32799897-41.2493323L641.49478 265.6405454Z"/><path fill="#84caa0" d="m688.28398 219.03241 41.32666563 41.24266564v-82.4946646Z"/><path fill="#77b893" d="m729.55678 260.27521 41.33466563-41.24266564L729.55678 177.7805454Z"/><path fill="#dcdb77" d="M644.22118 262.96801h82.65733127l-41.33066564-41.24266564Z"/><path fill="#c5c56c" d="m644.22118 262.91401 41.32666563 41.2493323 41.33066564-41.2493323Z"/><path fill="#75c7e0" d="M512.40479 306.66361h82.66533127l-41.33066564-41.2493323Z"/><path fill="#62a5bb" d="m512.40479 306.61081 41.33466563 41.2413323 41.33066564-41.24799897Z"/><path fill="#75c7e0" d="M556.43639 350.60401h82.6586646l-41.3253323-41.23999897Z"/><path fill="#62a5bb" d="m556.43639 350.55121 41.32799897 41.2493323L639.0950546 350.55121Z"/><path fill="#84caa0" d="M600.44038 394.51801h82.6586646l-41.33066563-41.2493323Z"/><path fill="#77b893" d="m600.44038 394.46401 41.32799897 41.2413323L683.0990446 394.46401Z"/><path fill="#84caa0" d="m688.30318 394.48201 41.34266563 41.2493323-.008-82.4866646Z"/><path fill="#77b893" d="m729.58438 435.73201 41.32666563-41.2493323L729.58438 353.24401206Z"/><path fill="#75c7e0" d="m468.42719 350.55001 41.3333323 41.2413323v-82.48799794Z"/><path fill="#62a5bb" d="m509.70719 391.79161 41.32799897-41.2413323L509.70719 309.30361206Z"/><path fill="#75c7e0" d="M468.40199 262.99441h82.6586646l-41.33199897-41.2493323Z"/><path fill="#62a5bb" d="m468.40199 262.94161 41.32666563 41.2493323L551.0606546 262.94161Z"/><path fill="#75c7e0" d="m512.45879 394.48201 41.3333323 41.2493323v-82.4866646Z"/><path fill="#62a5bb" d="m553.73879 435.73201 41.32666563-41.2493323-41.3333323-41.23866564z"/><path fill="#f7963f" d="M688.22398 306.91441h82.6586646l-41.33066563-41.2493323Z"/><path fill="#e18837" d="m688.22398 306.85441 41.32799897 41.2493323L770.8826446 306.85441Z"/><path fill="#dcdb77" d="M732.22078 350.82841h82.65999793l-41.3253323-41.2493323Z"/><path fill="#c5c56c" d="m732.22078 350.76721 41.33466563 41.2493323 41.3253323-41.2493323Z"/><path fill="#dcdb77" d="m732.25438 262.96561 41.3333323 41.2493323v-82.4866646Z"/><path fill="#c5c56c" d="m773.52718 304.20841 41.33466563-41.24266564L773.52718 221.72707873Z"/></g></svg>