<svg xmlns="http://www.w3.org/2000/svg" xmlns:xlink="http://www.w3.org/1999/xlink" viewBox="0 0 800.00006 499.99999"><defs><path id="a" fill="#000" fill-opacity="1" fill-rule="nonzero" stroke="none" stroke-width="1.10789025" d="M463.07734 170.54007v1.39927c0 5.59927-3.75021 9.24423-8.71577 9.24423-5.28242 0-9.42926-4.12024-9.42926-9.37607 0-5.25584 4.17343-9.42815 9.40267-9.42815 3.30151 0 6.33824 1.68953 8.00229 4.46369l-4.12024 2.45508c-.79215-1.42585-2.24459-2.24458-3.93523-2.24458-2.64121 0-4.51576 2.03409-4.51576 4.78055 0 2.69439 1.87455 4.6487 4.59553 4.6487 1.90114 0 3.11649-.95057 3.5386-2.11385h-4.83262v-3.82887zm20.25501 1.24162c0-2.53596-1.82248-4.4371-4.17342-4.4371-2.40302 0-4.25209 1.90114-4.25209 4.4371s1.84907 4.4371 4.25209 4.4371c2.35094 0 4.17342-1.90114 4.17342-4.4371m-13.60268 0c0-5.22924 4.17343-9.40266 9.42926-9.40266 5.20376 0 9.37718 4.17342 9.37718 9.40266 0 5.22924-4.17342 9.40266-9.37718 9.40266-5.25583 0-9.42926-4.17342-9.42926-9.40266m42.17816-8.98023-7.02624 17.96001h-4.83262l-6.94647-17.96001h5.20265l4.17343 11.06672 4.22549-11.06672zm11.16986 4.38448v2.6678h5.28242v3.85546h-5.28242v2.6678h8.00229v4.38503h-12.8626v-17.96001h12.8626v4.38392zm20.25558 3.27514h3.38128c1.13448 0 1.84796-.79214 1.84796-1.66405 0-.89739-.68689-1.68953-1.84796-1.68953h-3.38128zm2.03409 4.09365h-2.03409v6.20751h-4.78055v-17.96111h8.68919c3.51312 0 6.2064 2.50937 6.2064 5.83747 0 2.29776-1.24084 4.1989-3.14309 5.20376l3.98841 6.91988h-5.36108zm31.69153-11.75327v17.96001h-4.09365l-7.23674-9.45474v9.45474h-4.78055v-17.96001h4.06706l7.26333 9.48133v-9.48133zm20.57228 8.98023c0-2.53596-1.82248-4.4371-4.17231-4.4371-2.40413 0-4.2532 1.90114-4.2532 4.4371s1.84907 4.4371 4.2532 4.4371c2.34983 0 4.17231-1.90114 4.17231-4.4371m-13.60157 0c0-5.22924 4.17342-9.40266 9.42926-9.40266 5.20265 0 9.37607 4.17342 9.37607 9.40266 0 5.22924-4.17342 9.40266-9.37607 9.40266-5.25584 0-9.42926-4.17342-9.42926-9.40266m42.52009-4.67475v3.03784h5.28242v4.06706h-5.28242v6.54985h-4.86031v-17.96001h12.86371v4.30526zm20.12366.079v2.6678h5.28242v3.85546h-5.28242v2.6678h8.0034v4.38503h-12.86371v-17.96001h12.86371v4.38392zm27.36063 4.59575c0-2.61573-1.95432-4.30526-4.80714-4.30526h-2.1914v8.61052h2.1914c2.85282 0 4.80714-1.69064 4.80714-4.30526m5.01764 0c0 5.14947-4.12025 8.98056-9.58769 8.98056h-7.3154v-17.96112h7.3154c5.46744 0 9.58769 3.83109 9.58769 8.98056m11.83104-4.59575v2.6678h5.28242v3.85546h-5.28242v2.6678h8.0034v4.38503h-12.86371v-17.96001h12.86371v4.38392zm20.2552 3.27514h3.38128c1.13559 0 1.84796-.79214 1.84796-1.66405 0-.89739-.68578-1.68953-1.84796-1.68953h-3.38128zm2.03409 4.09365h-2.03409v6.20751h-4.78055v-17.96111h8.68919c3.51312 0 6.20751 2.50937 6.20751 5.83747 0 2.29776-1.24195 4.1989-3.14309 5.20376l3.98841 6.91988h-5.36219zm25.85492-1.16184-1.79589-4.41162-1.79589 4.41162zm1.7693 4.27867h-7.1049l-1.24084 3.08991h-5.04533l7.50153-17.96001h4.59552l7.58019 17.96001h-5.01763zm25.24749-1.53188v4.62212h-12.651v-17.96001h5.0974v13.33789z"/></defs><g fill="#222221" font-size="26.80983734"><path d="M108.28209 219.16029h-5.00067v-13.05147l-3.613041 8.46971h-3.469047l-3.613044-8.46971v13.05147H87.84744v-19.49211h5.83847l4.385398 9.77878 4.372312-9.77878h5.83847zm18.7899 0h-11.41512v-3.45595h3.19414v-12.5802h-3.19414v-3.45596h11.41512v3.45596h-3.19414v12.5802h3.19414zm19.84109 0h-4.84358l-8.27334-13.37873v13.37873h-4.60795v-19.49211h6.00865l7.10828 11.1664v-11.1664h4.60794zm18.73828 0h-11.41513v-3.45595h3.19414v-12.5802h-3.19414v-3.45596h11.41513v3.45596h-3.19415v12.5802h3.19415zm22.40248-6.12646q0 2.87996-2.44797 4.68648-2.43487 1.79343-6.62391 1.79343-2.42179 0-4.22831-.4189-1.79343-.43199-3.36432-1.08653v-4.6734h.54981q1.5578 1.24362 3.48214 1.91125 1.93743.66763 3.71777.66763.45817 0 1.20435-.0785.74617-.0786 1.21744-.26182.57599-.23563.94253-.58908.37963-.35345.37963-1.04726 0-.64145-.54981-1.09962-.53672-.47127-1.58398-.72-1.09962-.26181-2.33015-.48435-1.21744-.23564-2.29088-.58909-2.46106-.79853-3.54759-2.15997-1.07344-1.37453-1.07344-3.40359 0-2.72287 2.43487-4.43776 2.44797-1.72798 6.28356-1.72798 1.92434 0 3.79631.37963 1.88507.36654 3.2596.92944v4.49013h-.53672q-1.17817-.94253-2.89305-1.57089-1.7018-.64145-3.48214-.64145-.62836 0-1.25671.0916-.61527.0785-1.19126.31418-.51054.19636-.87708.60217-.36654.39272-.36654.90326 0 .77236.58908 1.19126.58909.40581 2.22543.74617 1.07344.22254 2.05524.432.9949.20945 2.1338.57599 2.23851.73308 3.29886 2.00288 1.07344 1.25671 1.07344 3.27269zm20.49748-9.59552h-6.08719v15.72198h-5.02685v-15.72198h-6.08719v-3.77013h17.20123zm18.27235 15.72198h-14.09873v-19.49211h14.09873v3.77013h-9.09807v3.36432h8.44353v3.77014h-8.44353v4.81739h9.09807zm-2.19925-26.82292v.26181l-4.60794 4.88285h-3.22032l3.23341-5.14466zm19.2084 13.30019q0-.73308-.30109-1.25671-.30108-.52363-1.03417-.82472-.51053-.20945-1.19125-.24872-.68072-.0524-1.58398-.0524h-1.81962v5.24939h1.54471q1.20435 0 2.01598-.11782.81162-.11781 1.36143-.53672.52363-.40581.75927-.89017.24872-.49745.24872-1.32216zm7.84135 13.52273h-6.13955l-5.31484-7.14754h-2.31707v7.14754h-5.00066v-19.49211h8.43044q1.72798 0 2.9716.19636t2.33015.8509q1.09962.65454 1.74107 1.7018.65453 1.03416.65453 2.60505 0 2.15998-1.00798 3.52141-.9949 1.36144-2.85378 2.2647zm14.84921 0h-11.41513v-3.45595h3.19414v-12.5802h-3.19414v-3.45596h11.41513v3.45596h-3.19414v12.5802h3.19414zm21.0716-9.73951q0 4.66031-2.67051 7.40936-2.67051 2.73597-7.38318 2.73597-4.69958 0-7.37009-2.73597-2.67051-2.74905-2.67051-7.40936 0-4.69957 2.67051-7.42245 2.67051-2.73596 7.37009-2.73596 4.68648 0 7.37009 2.73596 2.6836 2.72288 2.6836 7.42245zm-6.66319 4.93521q.73308-.89017 1.08653-2.09452.35345-1.21744.35345-2.85378 0-1.75416-.40581-2.98469-.40581-1.23053-1.06035-1.98979-.66763-.78544-1.54471-1.13889-.86399-.35345-1.80652-.35345-.95563 0-1.80652.34035-.83781.34036-1.54471 1.12581-.65454.73308-1.07344 2.02906-.40581 1.2829-.40581 2.98469 0 1.74107.39272 2.9716.40581 1.21744 1.06035 1.98979.65453.77236 1.53161 1.1389t1.8458.36654q.96871 0 1.84579-.36654.87708-.37963 1.53162-1.16508zm43.63346-4.92212q0 2.72288-1.24362 4.88285-1.24363 2.14688-3.14178 3.29887-1.42689.86399-3.12869 1.20434-1.7018.34036-4.03195.34036h-6.87264v-19.49211h7.069q2.38252 0 4.1105.40581 1.72797.39273 2.90614 1.12581 2.01597 1.23053 3.16796 3.32505 1.16508 2.08142 1.16508 4.90902zm-5.19703-.0393q0-1.92434-.7069-3.28578-.69381-1.37452-2.21233-2.14688-.77236-.37963-1.58398-.51054-.79854-.14399-2.42179-.14399h-1.2698v12.20057h1.2698q1.79343 0 2.63124-.15709.83781-.17018 1.63634-.60218 1.37453-.78544 2.01598-2.09451.64144-1.32217.64144-3.2596zm30.29152.02621q0 4.66031-2.67052 7.40936-2.67051 2.73597-7.38317 2.73597-4.69958 0-7.37009-2.73597-2.67051-2.74905-2.67051-7.40936 0-4.69957 2.67051-7.42245 2.67051-2.73596 7.37009-2.73596 4.68648 0 7.37008 2.73596 2.68361 2.72288 2.68361 7.42245zm-6.66319 4.93521q.73308-.89017 1.08653-2.09452.35345-1.21744.35345-2.85378 0-1.75416-.40581-2.98469-.40582-1.23053-1.06035-1.98979-.66763-.78544-1.54471-1.13889-.86399-.35345-1.80652-.35345-.95563 0-1.80652.34035-.83781.34036-1.54471 1.12581-.65454.73308-1.07344 2.02906-.40582 1.2829-.40582 2.98469 0 1.74107.39273 2.9716.40581 1.21744 1.06035 1.98979.65453.77236 1.53161 1.1389t1.8458.36654q.96871 0 1.84579-.36654.87708-.37963 1.53162-1.16508z" aria-label="MINISTÉRIO DO" font-family="Rawline SemiBold" font-weight="600" style="-inkscape-font-specification:Rawline-SemiBold"/><path d="M64.367566 256.8013h-5.000663v-13.05147l-3.613044 8.46971h-3.469047l-3.613044-8.46971v13.05147h-4.738849v-19.49211h5.838471l4.385398 9.77878 4.372308-9.77878h5.83847zm21.908237 0H72.177075v-19.49211h14.098728v3.77013h-9.098065v3.36432h8.443528v3.77013h-8.443528v4.8174h9.098065zm17.806777 0H92.66745v-3.45596h3.194141v-12.5802H92.66745v-3.45595h11.41513v3.45595h-3.19414v12.5802h3.19414zm22.27801-9.73951q0 4.6603-2.67051 7.40936-2.67052 2.73596-7.38318 2.73596-4.69958 0-7.37009-2.73596-2.67051-2.74906-2.67051-7.40936 0-4.69958 2.67051-7.42245 2.67051-2.73597 7.37009-2.73597 4.68648 0 7.37009 2.73597 2.6836 2.72287 2.6836 7.42245zm-6.66319 4.93521q.73308-.89017 1.08653-2.09452.35345-1.21744.35345-2.85378 0-1.75416-.40581-2.98469-.40581-1.23053-1.06035-1.98979-.66763-.78545-1.54471-1.1389-.86399-.35345-1.80652-.35345-.95563 0-1.80652.34036-.83781.34036-1.54471 1.12581-.65454.73308-1.07344 2.02906-.40581 1.28289-.40581 2.98469 0 1.74107.39272 2.9716.40581 1.21744 1.06035 1.98979.65453.77235 1.53161 1.13889t1.8458.36654q.96871 0 1.84579-.36654.87708-.37963 1.53162-1.16507zm42.18206 4.8043h-5.19702l-1.34835-3.94031H148.108l-1.34834 3.94031h-5.06612l7.19991-19.49211h5.78611zm-7.76281-7.51409-2.3956-6.99045-2.39561 6.99045zm33.4287 7.51409h-5.00067v-13.05147l-3.61304 8.46971h-3.46905l-3.61304-8.46971v13.05147h-4.73885v-19.49211h5.83847l4.3854 9.77878 4.37231-9.77878h5.83847zm24.48711-5.96938q0 1.4138-.57599 2.52652-.56291 1.11271-1.5578 1.84579-1.15199.86399-2.53961 1.23053-1.37452.36654-3.49522.36654h-8.50898v-19.49211h7.56644q2.35634 0 3.44287.15709 1.09962.15708 2.17306.69381 1.11271.5629 1.64943 1.51852.54982.94253.54982 2.15997 0 1.4138-.74618 2.50033-.74617 1.07345-2.10761 1.67562v.10473q1.91125.37963 3.02397 1.57088 1.1258 1.19126 1.1258 3.14178zm-6.44065-8.01153q0-.48436-.24872-.96872-.23563-.48435-.8509-.71999-.54981-.20945-1.37453-.22254-.81162-.0262-2.29087-.0262h-.47127v4.12358h.78544q1.19126 0 2.02907-.0393.83781-.0393 1.32216-.26181.68072-.30109.89017-.77236.20945-.48436.20945-1.11271zm1.23053 7.93299q0-.92944-.36654-1.42689-.35345-.51054-1.21744-.75927-.58908-.17018-1.62325-.18327-1.03417-.0131-2.15997-.0131h-1.09962v4.85667h.36654q2.1207 0 3.03705-.0131t1.68871-.34036q.78544-.32727 1.07344-.86399.30108-.54981.30108-1.25671zm22.93136 6.04792h-11.41513v-3.45596h3.19414v-12.5802h-3.19414v-3.45595h11.41513v3.45595h-3.19414v12.5802h3.19414zm17.42133 0h-14.09872v-19.49211h14.09872v3.77013h-9.09806v3.36432h8.44353v3.77013h-8.44353v4.8174h9.09806zm24.99357 0h-4.84357l-8.27335-13.37874v13.37874h-4.60794v-19.49211h6.00865l7.10827 11.1664v-11.1664h4.60794zm23.10243-15.72198h-6.08719v15.72198H284.157v-15.72198h-6.0872v-3.77013h17.20123zm20.93936 15.72198h-14.09873v-19.49211h14.09873v3.77013h-9.09807v3.36432h8.44353v3.77013h-8.44353v4.8174h9.09807zm32.74823 0h-14.09873v-19.49211h14.09873v3.77013h-9.09807v3.36432h8.44353v3.77013h-8.44353v4.8174h9.09807zM21.793529 294.81766h-5.000663v-13.05147l-3.613045 8.46971H9.710775l-3.6130445-8.46971v13.05147H1.3588823v-19.49212h5.8384704l4.3853983 9.77879 4.372307-9.77879h5.838471zm24.87986-7.05591q0 3.61304-2.199245 5.53738-2.199244 1.92434-6.479916 1.92434-4.280673 0-6.479917-1.92434-2.186154-1.92434-2.186154-5.52429v-12.4493h5.053026v12.1613q0 2.02907.850898 3.02396.850898.9949 2.762147.9949 1.885066 0 2.749055-.95562.87708-.95563.87708-3.06324v-12.1613h5.053026zm26.630023-2.67051q0 2.72287-1.24362 4.88284-1.24362 2.14688-3.141778 3.29887-1.426891.86399-3.128687 1.20435-1.701796.34036-4.031948.34036H54.88474v-19.49212h7.069q2.382515 0 4.110493.40582 1.727977.39272 2.906144 1.1258 2.015974 1.23053 3.167959 3.32505 1.165076 2.08143 1.165076 4.90903zm-5.197024-.0393q0-1.92433-.7069-3.28577-.693809-1.37453-2.212335-2.14688-.772354-.37963-1.58398-.51054-.798535-.144-2.421787-.144h-1.269802v12.20057h1.269802q1.793432 0 2.631239-.15709.837808-.17018 1.636343-.60217 1.374528-.78545 2.015974-2.09452.641446-1.32217.641446-3.2596zm28.571515 9.76572h-5.197024l-1.348346-3.94032h-7.226089l-1.348346 3.94032h-5.066117l7.199907-19.49212h5.786108zm-7.762809-7.51409-2.395606-6.99045-2.395605 6.99045zm30.718966 7.51409h-4.84358l-8.27335-13.37874v13.37874h-4.60794v-19.49212h6.00865l7.10827 11.16641v-11.16641h4.60795zm16.59634.34036q-2.18616-.0131-4.00577-.64145-1.80652-.64145-3.11559-1.91125-1.30908-1.25671-2.04216-3.14178-.71999-1.88506-.71999-4.3723 0-2.31706.69381-4.20213.69381-1.88507 2.01597-3.23341 1.2698-1.29599 3.14178-2.00289 1.88507-.7069 4.11049-.7069 1.23053 0 2.21234.144.99489.13091 1.8327.35345.87708.24873 1.58398.5629.71999.30109 1.25671.5629v4.72576h-.57599q-.36654-.31418-.92944-.74617-.54981-.43199-1.25671-.8509-.71999-.4189-1.5578-.7069-.83781-.28799-1.79343-.28799-1.06035 0-2.01598.34035-.95562.32727-1.76725 1.09963-.77235.74617-1.25671 1.9767-.47127 1.23053-.47127 2.98469 0 1.8327.51054 3.06323.52363 1.23053 1.30908 1.93743.79853.71999 1.78034 1.03417.9818.30109 1.93743.30109.91635 0 1.80652-.27491.90326-.2749 1.66252-.74617.64145-.37963 1.19126-.81163.54981-.43199.90326-.74617h.52363v4.6603q-.77235.34036-1.80652.75927-1.03417.40581-2.21233.62835 0 .19636.0131.49745.0262.30109.0262.53672 0 2.1207-1.30908 3.2596-1.29598 1.15198-3.3905 1.15198-.45817 0-1.33525-.0785-.86399-.0655-1.45308-.23564v-2.61815h.30109q.31418.144.91635.30109.60218.15709 1.15199.15709 1.04726 0 1.58398-.52363.54981-.52363.54981-1.57089zm32.85286-.34036h-5.19702l-1.34835-3.94032h-7.22609l-1.34835 3.94032h-5.06611l7.19991-19.49212h5.7861zm-7.76281-7.51409-2.3956-6.99045-2.39561 6.99045zm42.00798-2.21233q0 2.72287-1.24362 4.88284-1.24362 2.14688-3.14178 3.29887-1.42689.86399-3.12869 1.20435-1.70179.34036-4.03194.34036h-6.87264v-19.49212h7.069q2.38251 0 4.11049.40582 1.72798.39272 2.90614 1.1258 2.01598 1.23053 3.16796 3.32505 1.16508 2.08143 1.16508 4.90903zm-5.19703-.0393q0-1.92433-.7069-3.28577-.6938-1.37453-2.21233-2.14688-.77235-.37963-1.58398-.51054-.79854-.144-2.42179-.144h-1.2698v12.20057h1.2698q1.79343 0 2.63124-.15709.83781-.17018 1.63634-.60217 1.37453-.78545 2.01598-2.09452.64144-1.32217.64144-3.2596zm30.29156.02621q0 4.6603-2.67051 7.40936-2.67051 2.73596-7.38317 2.73596-4.69958 0-7.37009-2.73596-2.67051-2.74906-2.67051-7.40936 0-4.69958 2.67051-7.42245 2.67051-2.73597 7.37009-2.73597 4.68648 0 7.37008 2.73597 2.6836 2.72287 2.6836 7.42245zm-6.66318 4.93521q.73308-.89017 1.08653-2.09452.35345-1.21744.35345-2.85378 0-1.75416-.40581-2.98469-.40582-1.23053-1.06035-1.9898-.66763-.78544-1.54471-1.13889-.86399-.35345-1.80652-.35345-.95563 0-1.80653.34036-.8378.34036-1.5447 1.1258-.65454.73308-1.07344 2.02907-.40582 1.28289-.40582 2.98469 0 1.74106.39273 2.97159.40581 1.21744 1.06035 1.9898.65453.77235 1.53161 1.13889t1.8458.36654q.96871 0 1.84579-.36654.87708-.37963 1.53162-1.16507zm33.78355 5.18393q-2.17307 0-4.01886-.64145-1.8327-.64144-3.15487-1.91125-1.32216-1.2698-2.05525-3.16795-.71999-1.89816-.71999-4.3854 0-2.31706.69381-4.20213.69381-1.88507 2.01598-3.23341 1.2698-1.29599 3.14177-2.00289 1.88507-.7069 4.1105-.7069 1.23053 0 2.21233.144.9949.13091 1.83271.35345.87708.24873 1.58398.5629.71999.30109 1.25671.5629v4.72576h-.576q-.36654-.31418-.92944-.74617-.54981-.43199-1.25671-.8509-.71999-.4189-1.5578-.7069-.8378-.28799-1.79343-.28799-1.06035 0-2.01597.34035-.95563.32727-1.76725 1.09963-.77236.74617-1.25671 1.9767-.47127 1.23053-.47127 2.98469 0 1.8327.51054 3.06323.52363 1.23053 1.30907 1.93743.79854.71999 1.78034 1.03417.98181.30109 1.93743.30109.91635 0 1.80653-.27491.90326-.2749 1.66252-.74617.64145-.37963 1.19126-.81163.54981-.43199.90326-.74617h.52363v4.6603q-.73308.32727-1.40071.61527t-1.40071.49745q-.95563.2749-1.79343.4189-.83781.144-2.30397.144zm29.13694-.37963h-14.05945v-19.49212h5.02684v15.72198h9.03261zm17.52434 0h-11.41513v-3.45596h3.19414v-12.5802h-3.19414v-3.45596h11.41513v3.45596h-3.19414v12.5802h3.19414zm23.75726 0h-5.00067v-13.05147l-3.61304 8.46971h-3.46905l-3.61304-8.46971v13.05147h-4.73885v-19.49212h5.83847l4.3854 9.77879 4.3723-9.77879h5.83848zm25.82238 0h-5.19702l-1.34835-3.94032h-7.22609l-1.34835 3.94032h-5.06611l7.1999-19.49212h5.78611zm-7.76281-7.51409-2.39561-6.99045-2.3956 6.99045z" aria-label="MEIO AMBIENTE EMUDANÇA DO CLIMA" font-family="Rawline Black" font-weight="900" style="-inkscape-font-specification:Rawline-Black"/></g><path d="M451.29714 330.84837c-.87302 0-1.6563-.12962-2.35205-.38776-.69576-.25925-1.27186-.60491-1.73163-1.03809-.45867-.43319-.84089-.95501-1.14445-1.56656-.30357-.61156-.52182-1.25192-.65477-1.92108-.13294-.66917-.19831-1.38154-.19831-2.13823v-7.14922h2.23129v7.14922c0 .53733.0377 1.04252.11633 1.51781.0764.47528.21161.93284.40216 1.37267.19056.43984.42765.8143.71238 1.12562.28473.31021.65033.55838 1.09681.74672.44648.18723.95389.2814 1.52224.2814.575 0 1.08795-.0964 1.53775-.28694.44981-.19056.81652-.44426 1.10014-.76112.28472-.31686.52071-.69465.70905-1.13448.18723-.43983.31796-.89407.39219-1.36271.0742-.46863.1119-.96829.1119-1.49897v-7.14922h2.25012v7.14922c0 .98934-.11633 1.89892-.34898 2.73095-.23266.83092-.58719 1.57431-1.06247 2.23018-.47529.65698-1.11232 1.16883-1.91111 1.53775-.79768.36893-1.72499.55284-2.77859.55284m15.2541-10.0685v9.97101h-2.22132v-14.10344h1.82359l7.99232 10.19481v-10.17487h2.24126v14.0835h-1.94989zm16.9802-4.13166h2.22131v14.10345h-2.22131zm16.76647 8.6226-2.26896-6.1787-2.33765 6.1787zm-3.57959-11.2606c-.20607 0-.38112.0432-.52293.13073-.14181.0864-.24263.19388-.30134.31908-.0576.1263-.0964.23044-.11633.31131-.0188.0809-.0288.14403-.0288.18834h-1.23197c0-.0964.0188-.22933.0587-.39662.0388-.1684.11079-.3645.21825-.58718.10636-.2238.23598-.42986.38776-.62042.15178-.19167.35564-.35342.61156-.48526.25481-.13294.53732-.19942.84864-.19942.32905 0 .64369.0731.9406.21826.29692.14624.58164.29137.85308.43651.27254.14624.54065.21825.80543.21825.18059 0 .34123-.0321.47972-.0964.13959-.0654.24595-.13959.32018-.22379.0742-.0842.13405-.17615.17948-.27586.0454-.10082.0731-.17948.0831-.2382.01-.0576.0144-.10303.0144-.13516h1.25081c0 .0842-.0211.20717-.0632.36782-.0421.16175-.11965.35563-.23266.58275-.113.22601-.25038.43651-.41213.63039s-.38001.36006-.65476.49966c-.27476.13848-.57722.20828-.90737.20828-.34234 0-.66805-.0709-.97937-.21382-.31021-.14181-.59605-.28362-.85862-.42654-.26146-.14181-.50852-.21272-.74228-.21272m.26257 2.63789h2.10499l5.48073 14.10344h-2.34762l-1.48457-3.83219h-5.44085l-1.4746 3.83219h-2.36646zm18.6464 12.19245c.68468 0 1.31507-.14846 1.89117-.44648.5761-.29691 1.04806-.69022 1.41588-1.1788.36893-.48747.65477-1.03587.85862-1.6441.20385-.60713.30578-1.23087.30578-1.87123 0-.66584-.10858-1.30842-.32462-1.92551-.21714-.6171-.51517-1.1644-.89296-1.63968-.37779-.47529-.85086-.85308-1.41588-1.13448-.56613-.28141-1.1788-.42211-1.83799-.42211-.68578 0-1.31839.14735-1.89671.44094-.57832.2947-1.05582.68468-1.43028 1.16883-.37558.48525-.66585 1.03255-.87302 1.63967-.20718.60824-.31132 1.23198-.31132 1.87234 0 .89185.18059 1.72609.53954 2.50272.35896.77553.88742 1.40924 1.58539 1.90114.69798.4908 1.49344.73675 2.3864.73675m-6.77032-5.14061c0-.93174.17283-1.83245.5185-2.70104.34676-.86969.81651-1.63192 1.41145-2.28447.59493-.65365 1.31506-1.17768 2.1626-1.57209.84754-.39441 1.74714-.59162 2.6966-.59162.97716 0 1.89117.20718 2.74536.62153.85307.41324 1.56655.95832 2.13933 1.63414.57167.67581 1.02259 1.44136 1.35274 2.29887.33015.8564.49412 1.72831.49412 2.61351 0 .93174-.17284 1.83024-.5185 2.69661-.34566.86637-.81319 1.62638-1.40148 2.28004-.5894.65254-1.3062 1.17547-2.15374 1.56655-.84753.39109-1.74603.58608-2.6966.58608-.78882 0-1.53886-.13073-2.25013-.3922-.71126-.26257-1.33722-.62263-1.87676-1.0813-.53955-.45977-1.00929-.98934-1.40592-1.59093-.39884-.60158-.70018-1.25302-.90736-1.95542-.20717-.7013-.31021-1.41035-.31021-2.12826m38.32458 5.08234v1.96872h-9.67077v-14.10344h9.49572v1.96983h-7.2744v4.00613h6.29503v1.85239h-6.29503v4.30637zm17.34433-4.90806h3.89977c.61488 0 1.12119-.25703 1.52225-.77109.40105-.51406.60158-1.1367.60158-1.8668 0-.71791-.22601-1.3339-.67914-1.84796-.45202-.51406-.97605-.77109-1.57099-.77109h-3.77347zm-2.22132 6.87668v-14.10345h6.13993c.61488 0 1.19874.13295 1.75046.39773.55395.2659 1.01816.61488 1.39262 1.04807.37558.43318.67249.92509.89185 1.4746.22047.54951.33016 1.10567.33016 1.66848 0 .95611-.2515 1.82137-.75669 2.59468-.50409.7722-1.16994 1.2918-1.99864 1.55659l3.31813 5.3633h-2.50272l-3.06442-4.90796h-3.27936v4.90796zm26.76788-1.96862v1.96872h-9.67077v-14.10344h9.49572v1.96983h-7.2744v4.00613h6.29503v1.85239h-6.29503v4.30637zm11.92998-12.21205c1.2353 0 2.31992.2803 3.25387.83867.93506.55949 1.63747 1.3051 2.10943 2.23683l-1.74604 1.17326c-.18723-.4077-.42321-.76112-.70794-1.06247-.28362-.30024-.59494-.53289-.93063-.69797-.3368-.16507-.6747-.28583-1.01372-.36449-.33901-.0776-.68689-.11633-1.04252-.11633-.56946 0-1.09903.0986-1.59093.2958-.49191.19832-.9118.46089-1.26078.79104-.3501.33015-.65033.71459-.90182 1.15442-.2526.43983-.43873.90182-.55838 1.38708-.11965.48525-.17948.97605-.17948 1.4746 0 .91179.19277 1.76155.57721 2.55036.38444.78882.92952 1.42475 1.63414 1.90668.70573.48193 1.48457.72235 2.33765.72235.48525 0 .95832-.0765 1.42142-.22823.46199-.15178.90847-.4077 1.33833-.76666.42986-.35895.76112-.7999.99378-1.32393l1.8535 1.04807c-.27808.67249-.73121 1.2641-1.35827 1.77484-.62707.51073-1.31618.88963-2.06622 1.13558-.75004.24485-1.50341.36782-2.26009.36782-.95611 0-1.86126-.21049-2.71101-.63039-.85086-.41989-1.56545-.97272-2.14377-1.65851-.57832-.68467-1.03588-1.46352-1.37268-2.33321-.33569-.8697-.50409-1.75047-.50409-2.64232 0-.68579.0975-1.36603.29138-2.04184.19388-.67582.48636-1.31285.87745-1.91111.39108-.59827.85529-1.12673 1.39151-1.5854.53733-.45977 1.17436-.82316 1.91111-1.09127.73785-.26922 1.52335-.40327 2.35759-.40327m17.31566 12.27032c.68468 0 1.31507-.14846 1.89117-.44648.5761-.29691 1.04806-.69022 1.41588-1.1788.36893-.48747.65477-1.03587.85862-1.6441.20385-.60713.30578-1.23087.30578-1.87123 0-.66584-.10858-1.30842-.32462-1.92551-.21714-.6171-.51517-1.1644-.89296-1.63968-.37779-.47529-.85086-.85308-1.41588-1.13448-.56613-.28141-1.1788-.42211-1.83799-.42211-.68578 0-1.31839.14735-1.89671.44094-.57832.2947-1.05582.68468-1.43028 1.16883-.37558.48525-.66585 1.03255-.87302 1.63967-.20718.60824-.31132 1.23198-.31132 1.87234 0 .89185.18059 1.72609.53954 2.50272.35896.77553.88742 1.40924 1.58539 1.90114.69798.4908 1.49344.73675 2.3864.73675m-6.77032-5.14061c0-.93174.17283-1.83245.5185-2.70104.34676-.86969.81651-1.63192 1.41145-2.28447.59493-.65365 1.31506-1.17768 2.1626-1.57209.84754-.39441 1.74714-.59162 2.6966-.59162.97716 0 1.89117.20718 2.74536.62153.85307.41324 1.56655.95832 2.13933 1.63414.57167.67581 1.02259 1.44136 1.35274 2.29887.33015.8564.49412 1.72831.49412 2.61351 0 .93174-.17284 1.83024-.5185 2.69661-.34566.86637-.81319 1.62638-1.40148 2.28004-.5894.65254-1.3062 1.17547-2.15374 1.56655-.84753.39109-1.74603.58608-2.6966.58608-.78882 0-1.53886-.13073-2.25013-.3922-.71126-.26257-1.33722-.62263-1.87676-1.0813-.53955-.45977-1.00929-.98934-1.40592-1.59093-.39884-.60158-.70018-1.25302-.90736-1.95542-.20717-.7013-.31021-1.41035-.31021-2.12826m22.02373-2.92006v9.97101h-2.22132v-14.10344h1.82359l7.99232 10.19481v-10.17487h2.24126v14.0835h-1.94989zm25.32189-.81463c-.30356-.33569-.82095-.6603-1.55105-.97051-.7312-.31021-1.48457-.46532-2.2612-.46532-.91733 0-1.60533.16951-2.06068.50963-.45645.33902-.68356.81984-.68356 1.44026 0 .19388.0255.36893.0775.52403.0521.15511.11743.29249.19831.41214.0809.11965.20274.23487.3645.34455.16064.10968.32128.20385.47971.2803.15843.0787.37558.16064.64923.24817.27475.0875.53289.16175.7722.22268.23819.062.55172.1407.94059.2382.62042.14846 1.1511.29581 1.59093.44094.43873.14513.86305.33015 1.27076.55284.40659.22379.73342.47196.97937.74671.24595.27476.44094.61045.58718 1.00375.14514.39552.21826.84422.21826 1.34831 0 .5628-.0897 1.07022-.26701 1.52334-.17837.45313-.4221.83425-.73231 1.14445-.31021.31021-.68578.57057-1.12562.78107-.43983.2105-.91179.36228-1.41588.45534-.5052.0942-1.04696.1407-1.62971.1407-1.07354 0-2.11164-.16286-3.11428-.48968-1.00153-.32683-1.90335-.79658-2.70547-1.41146l1.01816-1.91111c.4077.421 1.07133.82649 1.9942 1.21757.92066.3922 1.86901.58719 2.84617.58719.87966 0 1.55658-.15511 2.03187-.46532.47528-.31132.71348-.75669.71348-1.33944 0-.23265-.0354-.44205-.10746-.62928-.0709-.18834-.19389-.35785-.36782-.50963-.17505-.15178-.35453-.28251-.53844-.3933-.18502-.10968-.44648-.22269-.78549-.33901-.34013-.11633-.65033-.21383-.93174-.29138-.2814-.0775-.66141-.17726-1.14002-.30024-.74339-.19499-1.35716-.39219-1.84242-.59161-.48526-.20053-.91401-.44648-1.28515-.73786-.37225-.29026-.64147-.63482-.80987-1.03255-.1684-.39773-.2526-.86859-.2526-1.41145 0-.67914.13184-1.2918.3933-1.83799.26146-.54619.62264-.9971 1.0813-1.35274.45867-.35674.99932-.62817 1.61974-.8154.62042-.18724 1.29623-.28141 2.02744-.28141 1.73274 0 3.32034.53068 4.76282 1.59093zm18.11533-1.34831h-4.68527v12.13472h-2.25012v-12.13472h-4.70411v-1.96872h11.6395zm8.07627 5.25728h3.89977c.61378 0 1.12119-.25703 1.52225-.77109.40105-.51406.60158-1.1367.60158-1.8668 0-.71791-.22712-1.3339-.67914-1.84796s-.97605-.77109-1.57099-.77109h-3.77347zm-2.22132 6.87668v-14.10345h6.13993c.61488 0 1.19763.13295 1.75046.39773.55395.2659 1.01705.61488 1.39262 1.04807.37447.43318.67138.92509.89185 1.4746.22047.54951.33016 1.10567.33016 1.66848 0 .95611-.2526 1.82137-.75669 2.59468-.5052.7722-1.16994 1.2918-1.99864 1.55659l3.31703 5.3633h-2.50162l-3.06553-4.90796h-3.27825v4.90796zm22.95447.09748c-.87302 0-1.6563-.12962-2.35205-.38776-.69576-.25925-1.27186-.60491-1.73163-1.03809-.45867-.43319-.84089-.95501-1.14445-1.56656-.30357-.61156-.52293-1.25192-.65477-1.92108-.13294-.66917-.19831-1.38154-.19831-2.13823v-7.14922h2.23018v7.14922c0 .53733.0388 1.04252.11744 1.51781.0764.47528.21161.93284.40106 1.37267.19166.43984.42875.8143.71348 1.12562.28473.31021.65033.55838 1.0957.74672.44759.18723.955.2814 1.52335.2814.575 0 1.08795-.0964 1.53775-.28694.44981-.19056.81652-.44426 1.10014-.76112.28472-.31686.52071-.69465.70794-1.13448.18834-.43983.31907-.89407.3933-1.36271.0742-.46863.1119-.96829.1119-1.49897v-7.14922h2.25012v7.14922c0 .98934-.11633 1.89892-.34898 2.73095-.23266.83092-.58719 1.57431-1.06247 2.23018-.47529.65698-1.11232 1.16883-1.91111 1.53775-.79768.36893-1.72499.55284-2.77859.55284m24.55628-3.25908c-.36228.86637-.98713 1.58318-1.87233 2.1482-.88632.56613-1.8524.92287-2.90046 1.07244.67914.56834 1.01926 1.20538 1.01926 1.91 0 .56946-.19056 1.02147-.57278 1.35827-.38112.33569-.91512.50409-1.6009.50409-.8143 0-1.59426-.19055-2.33765-.57167l.55394-1.17436c.50409.27808.97273.41767 1.40592.41767.37446 0 .66805-.0798.87745-.23819.21049-.15843.31574-.38887.31574-.69243 0-.5185-.35563-1.00929-1.06689-1.47461-.89961-.072-1.74161-.33015-2.5271-.77663-.7855-.44648-1.44691-1.00485-1.98313-1.67734-.53732-.67249-.95943-1.42586-1.26631-2.2601-.30689-.83424-.46089-1.67845-.46089-2.53264 0-.68467.0975-1.36492.29138-2.04073.19388-.67581.48636-1.31285.87745-1.91111.39108-.59826.85529-1.12673 1.39151-1.5865.53732-.45867 1.17436-.82206 1.91222-1.09127.73674-.26811 1.52224-.40217 2.35648-.40217 1.2353 0 2.31992.2803 3.25387.83868.93506.55948 1.63746 1.30509 2.10943 2.23572l-1.74604 1.17436c-.18723-.4077-.42321-.76112-.70794-1.06246-.28362-.30024-.59494-.5329-.93063-.69798-.33569-.16507-.6747-.28583-1.01372-.36449-.33901-.0775-.68689-.11633-1.04252-.11633-.56946 0-1.09903.0986-1.59093.29581-.49191.19831-.9118.46088-1.26078.79103-.3501.33015-.64923.71459-.90183 1.15442-.25259.43983-.43872.90183-.55837 1.38708-.11965.48415-.17948.97605-.17948 1.4746 0 .9118.19277 1.76155.57721 2.55037.38444.78881.92952 1.42474 1.63525 1.90668.70461.48193 1.48346.72234 2.33654.72234.48525 0 .95943-.0764 1.42142-.22823.46199-.15178.90847-.4077 1.33833-.76666.42986-.35895.76112-.79989.99489-1.32392zm13.22139-2.31848-2.26896-6.1787-2.33765 6.1787zm-3.57959-11.2606c-.20607 0-.38112.0432-.52293.13073-.14181.0864-.24263.19388-.30134.31908-.0576.1263-.0964.23044-.11633.31131-.0188.0809-.0288.14403-.0288.18834h-1.23197c0-.0964.0188-.22933.0587-.39662.0388-.1684.11079-.3645.21825-.58718.10636-.2238.23598-.42986.38776-.62042.15178-.19167.35564-.35342.61156-.48526.25481-.13294.53732-.19942.84864-.19942.32905 0 .64369.0731.9406.21826.29692.14624.58164.29137.85308.43651.27254.14624.54065.21825.80543.21825.18059 0 .34123-.0321.47972-.0964.13959-.0654.24595-.13959.32018-.22379.0742-.0842.13405-.17615.17948-.27586.0454-.10082.0731-.17948.0831-.2382.01-.0576.0144-.10303.0144-.13516h1.25081c0 .0842-.021.20717-.0631.36782-.0421.16175-.11965.35563-.23266.58275-.113.22601-.25038.43651-.41213.63039s-.38001.36006-.65476.49966c-.27476.13848-.57722.20828-.90737.20828-.34234 0-.66805-.0709-.97937-.21382-.31021-.14181-.59605-.28362-.85862-.42654-.26146-.14181-.50852-.21272-.74228-.21272m.26257 2.63789h2.10499l5.48073 14.10344h-2.34762l-1.48457-3.83219h-5.44085l-1.4746 3.83219h-2.36646zm18.64558 12.19245c.68578 0 1.31617-.14846 1.89117-.44648.5761-.29691 1.04806-.69022 1.41699-1.1788.36893-.48747.65366-1.03587.85862-1.6441.20274-.60713.30467-1.23087.30467-1.87123 0-.66584-.10858-1.30842-.32462-1.92551-.21714-.6171-.51406-1.1644-.89296-1.63968-.37779-.47529-.84975-.85308-1.41588-1.13448-.56613-.28141-1.17769-.42211-1.83799-.42211-.68468 0-1.31728.14735-1.8956.44094-.57943.2947-1.05693.68468-1.43139 1.16883-.37447.48525-.66585 1.03255-.87302 1.63967-.20718.60824-.31021 1.23198-.31021 1.87234 0 .89185.17948 1.72609.53843 2.50272.35896.77553.88742 1.40924 1.58539 1.90114.69908.4908 1.49344.73675 2.3864.73675m-6.77032-5.14061c0-.93174.17283-1.83245.5185-2.70104.34676-.86969.81762-1.63192 1.41256-2.28447.59382-.65365 1.31506-1.17768 2.1626-1.57209.84643-.39441 1.74603-.59162 2.6966-.59162.97605 0 1.89117.20718 2.74425.62153.85418.41324 1.56655.95832 2.13933 1.63414.57278.67581 1.02259 1.44136 1.35274 2.29887.33015.8564.49522 1.72831.49522 2.61351 0 .93174-.17283 1.83024-.5196 2.69661-.34566.86637-.81319 1.62638-1.40148 2.28004-.58829.65254-1.3062 1.17547-2.15263 1.56655-.84754.39109-1.74714.58608-2.6966.58608-.78882 0-1.53886-.13073-2.25013-.3922-.71237-.26257-1.33722-.62263-1.87787-1.0813-.53955-.45977-1.00818-.98934-1.40592-1.59093-.39773-.60158-.70018-1.25302-.90736-1.95542-.20717-.7013-.31021-1.41035-.31021-2.12826"/><path fill="#00cf00" d="M483.58203 257.35352v37.45898h43.57227l8.55273-14.38086-15.00781-23.07812h-37.11719z"/><path fill="red" d="M444.51172 238.17578v56.63672h10.75195c15.64009 0 28.31836-12.67938 28.31836-28.31836 0-15.64008-12.67827-28.31836-28.31836-28.31836h-10.75195z"/><path fill="#183eff" d="M444.51172 200.22461v37.95117h7.57422c10.47953 0 18.97461-8.49396 18.97461-18.97461 0-10.47953-8.49508-18.97656-18.97461-18.97656h-7.57422z"/><path fill="#ffcf00" d="m583.41016 200.22461-47.69922 80.20117 9.35156 14.38672h3.83984c0-19.05793 15.44989-34.50586 34.50782-34.50586 19.05682 0 34.50586 15.44793 34.50586 34.50586h5.3789v-27.52539l-39.88476-67.0625zm182.63334-.00017h-32.70609v62.81849h32.70609z"/><path fill="#183eff" d="M766.0435 294.8128h32.706v-31.76987h-32.706z"/><path fill="#3c3c3c" d="M733.33741 294.8128h32.70609v-31.76987h-32.70609Z"/><path fill="red" d="M623.29492 242.26172v25.02539l16.3711 27.52539h14.54687v-52.55078h-30.91797z"/><path fill="#3c3c3c" d="M527.15384 294.81247h17.90794l-9.3517-14.38706zm96.14131-27.52532v27.52553h16.37019z"/><path fill="#00cf00" d="M727.82012 200.22444h-32.70601v94.58836h32.70601zm-283.30858 0h-32.70603v37.9519h32.70603z"/><path fill="#183eff" d="m483.58203 200.22461 37.11719 57.12891c15.77414 0 28.56445-12.78921 28.56445-28.56446s-12.79031-28.56445-28.56445-28.56445h-37.11719zm206.01479-.00017h-35.3838v34.39557h35.3838z"/><path fill="#ffcf00" d="M665.0186 234.62023h-10.80525v60.19279h10.80525c16.62168 0 30.09584-13.47527 30.09584-30.09695 0-16.62168-13.47416-30.09584-30.09584-30.09584"/><path fill="#00cf00" d="M644.31413 200.22467c-11.60847 0-21.01889 9.41042-21.01889 21.01889 0 11.60848 9.41042 21.0189 21.01889 21.0189h9.899v-42.03779z"/><path fill="#ffcf00" d="M444.51154 294.8128h-32.70603v-56.63646h32.70603zm76.1874-37.46021-37.11654-57.12836v57.12836z"/><path fill="#183eff" d="M617.91653 294.81247c0-19.05793-15.44953-34.50635-34.50635-34.50635-19.05793 0-34.50746 15.44842-34.50746 34.50635z"/><use xlink:href="#a" stroke-width="1.10789025"/><use xlink:href="#a" stroke-width="1.10789025"/></svg>