<svg xmlns="http://www.w3.org/2000/svg" xmlns:xlink="http://www.w3.org/1999/xlink" viewBox="0 0 800.00006 499.99999"><defs><path id="a" d="M0 0v-1.263c0-5.054-3.385-8.343-7.866-8.343-4.768 0-8.51 3.718-8.51 8.462 0 4.743 3.766 8.509 8.486 8.509 2.979 0 5.721-1.525 7.223-4.028l-3.719-2.216c-.715 1.287-2.026 2.025-3.552 2.025-2.383 0-4.076-1.835-4.076-4.314 0-2.431 1.693-4.195 4.148-4.195 1.716 0 2.812.858 3.194 1.907h-4.362V0Z" style="fill:#000;fill-opacity:1;fill-rule:nonzero;stroke:none"/><path id="b" d="M0 0c0 2.288-1.645 4.005-3.766 4.005-2.169 0-3.838-1.717-3.838-4.005s1.669-4.004 3.838-4.004C-1.645-4.004 0-2.288 0 0m-12.276 0c0 4.72 3.766 8.486 8.51 8.486C.93 8.486 4.696 4.72 4.696 0c0-4.719-3.766-8.486-8.462-8.486-4.744 0-8.51 3.767-8.51 8.486" style="fill:#000;fill-opacity:1;fill-rule:nonzero;stroke:none"/><path id="c" d="m0 0-6.341-16.21h-4.362L-16.972 0h4.696l3.766-9.988L-4.696 0Z" style="fill:#000;fill-opacity:1;fill-rule:nonzero;stroke:none"/><path id="d" d="M0 0v-2.408h4.767v-3.48H0v-2.407h7.222v-3.957H-4.386V3.957H7.222V0Z" style="fill:#000;fill-opacity:1;fill-rule:nonzero;stroke:none"/><path id="e" d="M0 0h3.051C4.076 0 4.72.715 4.72 1.502c0 .81-.62 1.525-1.669 1.525H0Zm1.835-3.695H0v-5.602h-4.315v16.21h7.843c3.17 0 5.602-2.264 5.602-5.268 0-2.074-1.121-3.79-2.837-4.696l3.599-6.246H5.053Z" style="fill:#000;fill-opacity:1;fill-rule:nonzero;stroke:none"/><path id="f" d="M0 0v-16.21h-3.695l-6.531 8.534v-8.534h-4.314V0h3.67l6.556-8.557V0Z" style="fill:#000;fill-opacity:1;fill-rule:nonzero;stroke:none"/><path id="g" d="M0 0v-2.741h4.767v-3.671H0v-5.912h-4.386v16.21H7.223V0Z" style="fill:#000;fill-opacity:1;fill-rule:nonzero;stroke:none"/><path id="h" d="M0 0v-2.408h4.767v-3.48H0v-2.407h7.223v-3.957H-4.386V3.957H7.223V0Z" style="fill:#000;fill-opacity:1;fill-rule:nonzero;stroke:none"/><path id="i" d="M0 0c0 2.36-1.764 3.886-4.339 3.886h-1.978v-7.771h1.978C-1.764-3.885 0-2.36 0 0m4.529 0c0-4.648-3.719-8.105-8.653-8.105h-6.603v16.21h6.603C.81 8.105 4.529 4.648 4.529 0" style="fill:#000;fill-opacity:1;fill-rule:nonzero;stroke:none"/><path id="j" d="M0 0h3.051C4.076 0 4.72.715 4.72 1.502c0 .81-.62 1.525-1.669 1.525H0Zm1.836-3.695H0v-5.602h-4.314v16.21h7.842c3.171 0 5.602-2.264 5.602-5.268 0-2.074-1.12-3.79-2.837-4.696l3.6-6.246H5.054Z" style="fill:#000;fill-opacity:1;fill-rule:nonzero;stroke:none"/><path id="k" d="m0 0-1.621 3.981L-3.242 0Zm1.597-3.861h-6.412l-1.121-2.79h-4.553l6.77 16.21H.429L7.27-6.651H2.741Z" style="fill:#000;fill-opacity:1;fill-rule:nonzero;stroke:none"/><path id="l" d="M0 0v-4.172h-11.418v16.21h4.601V0Z" style="fill:#000;fill-opacity:1;fill-rule:nonzero;stroke:none"/></defs><g style="font-variant:normal;font-weight:600;font-stretch:normal;font-size:30.09586525px;font-family:'Rawline SemiBold';-inkscape-font-specification:Rawline-SemiBold;writing-mode:lr-tb;fill:#222221;fill-opacity:1;fill-rule:nonzero;stroke:none;stroke-width:1.2438159"><path d="M24.191499 220.56523h-5.613584v-14.65116l-4.055888 9.50782h-3.894241l-4.0558876-9.50782v14.65116H1.2522191v-21.88122h6.55408l4.9229079 10.97735 4.908212-10.97735h6.55408zm21.092978 0H32.470222v-3.87954h3.58564v-14.12214h-3.58564v-3.87954h12.814255v3.87954h-3.58564v14.12214h3.58564zm22.272934 0H62.12017l-9.287396-15.01854v15.01854h-5.172727v-21.88122h6.745119l7.979519 12.53504v-12.53504h5.172726zm21.035032 0H75.778188v-3.87954h3.58564v-14.12214h-3.58564v-3.87954h12.814255v3.87954h-3.58564v14.12214h3.58564zm25.020347-6.87737q0 3.23295-2.74801 5.26089-2.73332 2.01325-7.43579 2.01325-2.71863 0-4.746574-.47024-2.013249-.48495-3.776679-1.21971v-5.2462h.617201q1.748734 1.39604 3.908935 2.1455 2.174897.74946 4.173457.74946.51433 0 1.35196-.0882.83763-.0882 1.36666-.29391.64659-.26451 1.05805-.66128.42617-.39677.42617-1.17562 0-.72007-.6172-1.2344-.60251-.52903-1.77813-.80824-1.2344-.29391-2.61575-.54373-1.36666-.26451-2.57167-.66128-2.76271-.89641-3.982415-2.42472-1.20501-1.543-1.20501-3.82076 0-3.05661 2.733316-4.98169 2.748009-1.93977 7.053729-1.93977 2.16019 0 4.26161.42616 2.11612.41147 3.65912 1.04336v5.04047h-.60251q-1.32257-1.05806-3.24764-1.76343-1.91039-.72007-3.90894-.72007-.70537 0-1.41074.10287-.69068.0882-1.33727.35269-.57312.22043-.98459.67598-.41146.44086-.41146 1.01397 0 .86702.66128 1.33727.66129.45555 2.4982.83763 1.20501.24982 2.30715.48494 1.11684.23512 2.39533.64659 2.51288.82294 3.7032 2.24837 1.20501 1.41075 1.20501 3.67382zm22.67322-10.77162h-6.83329v17.64899h-5.64298v-17.64899h-6.83329v-4.23223h19.30956zm21.03547 17.64899H141.4947v-21.88122h15.82678v4.23223h-10.2132v3.77668h9.47844v4.23223h-9.47844v5.40785h10.2132zm-2.4688-30.11056v.29391l-5.17273 5.48132h-3.61503l3.62973-5.77523zm21.51879 14.93037q0-.82293-.33799-1.41074-.338-.58781-1.16093-.9258-.57311-.23513-1.33727-.27921-.76415-.0588-1.77812-.0588h-2.04264v5.89279h1.73404q1.35196 0 2.26307-.13226.9111-.13225 1.5283-.6025.58781-.45555.85233-.99928.27921-.55842.27921-1.48422zm8.80245 15.18019h-6.89207l-5.96627-8.0236h-2.60106v8.0236h-5.61359v-21.88122h9.46374q1.93978 0 3.33582.22043 1.39605.22043 2.61576.95519 1.2344.73476 1.95447 1.91038.73476 1.16093.73476 2.92435 0 2.42472-1.13154 3.95303-1.11683 1.5283-3.20356 2.54227zm16.66924 0h-12.81425v-3.87954h3.58564v-14.12214h-3.58564v-3.87954h12.81425v3.87954h-3.58564v14.12214h3.58564zm23.65429-10.93326q0 5.23151-2.99783 8.31751-2.99783 3.0713-8.28812 3.0713-5.27559 0-8.27342-3.0713-2.99783-3.086-2.99783-8.31751 0-5.2756 2.99783-8.33221 2.99783-3.0713 8.27342-3.0713 5.2609 0 8.27342 3.0713 3.01253 3.05661 3.01253 8.33221zm-7.47988 5.54011q.82293-.99928 1.2197-2.35124.39678-1.36666.39678-3.20357 0-1.96916-.45556-3.35051-.45555-1.38136-1.19031-2.23368-.74946-.88172-1.73404-1.27849-.96989-.39677-2.02794-.39677-1.07276 0-2.02795.38208-.94049.38207-1.73404 1.26379-.73476.82293-1.20501 2.27776-.45555 1.44014-.45555 3.35052 0 1.95447.44086 3.33582.45555 1.36666 1.19031 2.23368.73476.86702 1.71935 1.27848.98458.41147 2.07203.41147 1.08744 0 2.07203-.41147.98458-.42616 1.71934-1.30787zm48.98149-5.52542q0 3.05661-1.39605 5.48133-1.39605 2.41002-3.52686 3.7032-1.60178.96989-3.51217 1.35196-1.91038.38208-4.52613.38208h-7.71501v-21.88122h7.93544q2.67453 0 4.6143.45555 1.93978.44086 3.26235 1.26379 2.26307 1.38136 3.55625 3.7326 1.30788 2.33654 1.30788 5.51071zm-5.83402-.0441q0-2.1602-.79354-3.68851-.77885-1.543-2.4835-2.41002-.86702-.42616-1.77812-.57311-.89641-.16165-2.71862-.16165h-1.42544v13.69597h1.42544q2.01325 0 2.95374-.17635.9405-.19103 1.83691-.67598 1.543-.88171 2.26307-2.35124.72006-1.48422.72006-3.65911zm34.00435.02941q0 5.23151-2.99783 8.31751-2.99783 3.0713-8.28812 3.0713-5.2756 0-8.27343-3.0713-2.99783-3.086-2.99783-8.31751 0-5.2756 2.99783-8.33221 2.99783-3.0713 8.27343-3.0713 5.26089 0 8.27342 3.0713 3.01253 3.05661 3.01253 8.33221zm-7.47988 5.54011q.82293-.99928 1.2197-2.35124.39677-1.36666.39677-3.20357 0-1.96916-.45555-3.35051-.45555-1.38136-1.19032-2.23368-.74945-.88172-1.73403-1.27849-.96989-.39677-2.02795-.39677-1.07275 0-2.02794.38208-.9405.38207-1.73404 1.26379-.73476.82293-1.20501 2.27776-.45555 1.44014-.45555 3.35052 0 1.95447.44085 3.33582.45556 1.36666 1.19032 2.23368.73476.86702 1.71934 1.27848.98458.41147 2.07203.41147 1.08745 0 2.07203-.41147.98458-.42616 1.71935-1.30787z" aria-label="MINISTÉRIO DO" style="stroke-width:1.2438159"/></g><g style="font-variant:normal;font-weight:900;font-stretch:normal;font-size:30.09586525px;font-family:'Rawline Black';-inkscape-font-specification:Rawline-Black;writing-mode:lr-tb;fill:#222221;fill-opacity:1;fill-rule:nonzero;stroke:none;stroke-width:1.2438159"><path d="M108.75004 241.61953h-6.83329v17.64899h-5.642973v-17.64899h-6.83329v-4.23223h19.309553zm19.93456 2.4688q0-.82293-.33799-1.41074t-1.16093-.9258q-.57311-.23512-1.33726-.27921-.76416-.0588-1.77813-.0588h-2.04264v5.89279h1.73404q1.35196 0 2.26307-.13225.9111-.13226 1.52831-.60251.5878-.45555.85232-.99928.27921-.55842.27921-1.48422zm8.80245 15.18019h-6.89207l-5.96627-8.0236h-2.60106v8.0236h-5.61358V237.3873h9.46374q1.93977 0 3.33582.22043t2.61575.95519q1.2344.73476 1.95447 1.91038.73476 1.16093.73476 2.92436 0 2.42471-1.13153 3.95302-1.11684 1.5283-3.20357 2.54228zm25.48155 0h-5.83402l-1.51361-4.42327h-8.11177l-1.51361 4.42327h-5.68706l8.08238-21.88122h6.4953zm-8.71428-8.43507-2.68923-7.84726-2.68923 7.84726zm33.30846 1.73404q0 1.58709-.64659 2.83618-.6319 1.2491-1.74874 2.07203-1.29318.96989-2.85088 1.38136-1.543.41146-3.92363.41146h-9.55191V237.3873h8.49385q2.64515 0 3.86485.17634 1.23441.17635 2.43942.77885 1.24909.6319 1.8516 1.70465.6172 1.05806.6172 2.42472 0 1.58708-.83763 2.80679-.83763 1.20501-2.36594 1.88099v.11756q2.14551.42617 3.3946 1.76343 1.2638 1.33727 1.2638 3.52686zm-7.23007-8.99349q0-.54372-.2792-1.08745-.26452-.54372-.9552-.80824-.6172-.23512-1.543-.24982-.9111-.0294-2.57167-.0294h-.52902v4.62901h.88171q1.33727 0 2.27776-.0441.9405-.0441 1.48422-.2939.76416-.33799.99928-.86702.23512-.54373.23512-1.2491zm1.38136 8.90532q0-1.04336-.41147-1.60178-.39677-.57312-1.36666-.85233-.66128-.19103-1.82221-.20573-1.16092-.0147-2.42471-.0147h-1.2344v5.45193h.41146q2.38063 0 3.4093-.0147t1.89569-.38208q.88171-.36738 1.20501-.96989.33799-.6172.33799-1.41074zm33.6183 6.7892h-5.83402l-1.51361-4.42327h-8.11177l-1.51361 4.42327h-5.68706l8.08238-21.88122h6.4953zm-8.71428-8.43507-2.68923-7.84726-2.68923 7.84726zm30.36947 8.43507h-15.7827V237.3873h5.64298v17.64899h10.13972zm27.4607 0h-5.64297v-9.64008h-8.33221v9.64008h-5.64297V237.3873h5.64297v8.00891h8.33221v-8.00891h5.64297zm30.25161-10.93326q0 5.23151-2.99783 8.31751-2.99783 3.07131-8.28812 3.07131-5.27559 0-8.27342-3.07131-2.99783-3.086-2.99783-8.31751 0-5.27559 2.99783-8.3322 2.99783-3.07131 8.27342-3.07131 5.2609 0 8.27343 3.07131 3.01252 3.05661 3.01252 8.3322zm-7.47988 5.54011q.82294-.99928 1.21971-2.35124.39677-1.36666.39677-3.20356 0-1.96917-.45555-3.35052-.45556-1.38135-1.19032-2.23368-.74946-.88171-1.73404-1.27848-.96988-.39678-2.02794-.39678-1.07275 0-2.02795.38208-.94049.38208-1.73403 1.26379-.73477.82293-1.20501 2.27776-.45556 1.44014-.45556 3.35052 0 1.95447.44086 3.33582.45555 1.36666 1.19032 2.23368.73476.86702 1.71934 1.27849.98458.41146 2.07203.41146 1.08745 0 2.07203-.41146.98458-.42617 1.71934-1.30788zM93.823437 301.31244H77.996656v-21.88122h15.826781v4.23223H83.61024v3.77668h9.478435v4.23223H83.61024v5.40785h10.213197zm36.777163 0h-15.82678v-21.88122h15.82678v4.23223h-10.2132v3.77668h9.47844v4.23223h-9.47844v5.40785h10.2132zm31.0989 0h-5.61358v-14.65116l-4.05589 9.50782h-3.89424l-4.05589-9.50782v14.65116h-5.31968v-21.88122h6.55408l4.92291 10.97735 4.90821-10.97735h6.55408zm26.82722-14.97446q0 1.46953-.51433 2.88027-.51434 1.39605-1.46953 2.35124-1.30788 1.29318-2.92435 1.95447-1.60179.66128-3.99711.66128h-3.51216v7.1272h-5.64298v-21.88122h9.2874q2.08672 0 3.51216.36738 1.44013.35268 2.54228 1.07275 1.32257.86702 2.01325 2.21898.70537 1.35197.70537 3.24765zm-5.83401.13226q0-.9258-.49964-1.58709-.49964-.67598-1.16093-.94049-.88171-.35269-1.71934-.38208-.83763-.0441-2.23368-.0441h-.96988v6.55408h1.61647q1.44014 0 2.36594-.17635.94049-.17634 1.57239-.70537.54372-.47025.77885-1.11684.24982-.66128.24982-1.60178zm24.81291-.33799q0-.82293-.33799-1.41074t-1.16092-.92581q-.57312-.23512-1.33727-.2792-.76415-.0588-1.77813-.0588h-2.04264v5.8928h1.73404q1.35197 0 2.26307-.13226.91111-.13226 1.52831-.6025.58781-.45556.85232-.99928.27921-.55842.27921-1.48422zm8.80245 15.18019H209.416l-5.96627-8.02361h-2.60106v8.02361h-5.61358v-21.88122h9.46374q1.93977 0 3.33582.22043 1.39605.22042 2.61575.95519 1.2344.73476 1.95447 1.91038.73476 1.16092.73476 2.92435 0 2.42472-1.13153 3.95302-1.11684 1.52831-3.20356 2.54228zm21.08774 0h-15.82678v-21.88122h15.82678v4.23223h-10.2132v3.77668h9.47844v4.23223h-9.47844v5.40785h10.2132zm27.16413-1.2491q-1.46953.57312-3.89424 1.14623-2.42472.55842-4.83474.55842-5.58419 0-8.74367-3.02722-3.15948-3.04192-3.15948-8.39099 0-5.09925 3.18887-8.21464 3.18887-3.13009 8.89062-3.13009 2.1602 0 4.11467.39678 1.95447.38207 4.3498 1.543v5.12864h-.6319q-.41147-.3086-1.20501-.86702-.79354-.57312-1.52831-.96989-.85232-.47025-1.99855-.80824-1.13153-.33799-2.41002-.33799-1.49892 0-2.71862.44086-1.21971.44086-2.18959 1.35196-.9258.88172-1.46953 2.24838-.52903 1.35196-.52903 3.13008 0 3.62973 1.92508 5.55481 1.92508 1.92507 5.68706 1.92507.3233 0 .70537-.0147.39677-.0147.72007-.0441v-4.29101h-4.36449v-4.12936h10.09564zm30.18507-9.68416q0 5.2315-2.99783 8.31751-2.99783 3.0713-8.28812 3.0713-5.27559 0-8.27342-3.0713-2.99784-3.08601-2.99784-8.31751 0-5.2756 2.99784-8.33221 2.99783-3.07131 8.27342-3.07131 5.2609 0 8.27342 3.07131 3.01253 3.05661 3.01253 8.33221zm-7.47988 5.5401q.82293-.99927 1.2197-2.35124.39678-1.36665.39678-3.20356 0-1.96916-.45556-3.35052-.45555-1.38135-1.19031-2.23367-.74946-.88172-1.73404-1.27849-.96989-.39677-2.02795-.39677-1.07275 0-2.02794.38207-.9405.38208-1.73404 1.2638-.73476.82293-1.20501 2.27776-.45555 1.44013-.45555 3.35052 0 1.95446.44086 3.33582.45555 1.36665 1.19031 2.23367.73476.86702 1.71934 1.27849.98459.41147 2.07203.41147 1.08745 0 2.07203-.41147.98459-.42616 1.71935-1.30788z" aria-label="TRABALHOE EMPREGO" style="stroke-width:1.2438159"/></g><path d="M437.36094 202.7292c-1.05067 0-1.99333-.156-2.83067-.46667-.836-.312-1.53066-.728-2.08266-1.24933-.55334-.52133-1.012-1.14933-1.37734-1.88533-.36666-.73467-.62933-1.50534-.788-2.31067-.16-.80533-.24-1.664-.24-2.57333v-8.60267h2.68534v8.60267c0 .64533.0467 1.25466.14 1.82666.0933.572.25466 1.12134.484 1.65067.22933.52933.51466.98133.85866 1.35467.34134.37333.78134.67333 1.31867.89866.53733.22534 1.148.33867 1.832.33867.692 0 1.30933-.11467 1.85067-.344.54-.22933.98133-.536 1.324-.91733.34266-.38.62666-.836.852-1.36534.22666-.52933.384-1.076.47333-1.64.0893-.564.13467-1.16533.13467-1.80266v-8.60267h2.70666v8.60267c0 1.19066-.14 2.28533-.42 3.28533-.28 1-.70533 1.89467-1.27733 2.684-.572.79067-1.33867 1.40667-2.3 1.85067-.96133.444-2.076.66533-3.344.66533m18.35613-12.116v11.99867h-2.67333V185.6412h2.19466l9.61867 12.26667v-12.244h2.696v16.948h-2.34667zm20.43293-4.97213h2.67334v16.97199H476.15Zm20.1764 10.37626-2.73067-7.43467-2.81333 7.43467zm-4.30667-13.55067c-.24933 0-.45866.052-.63066.15734-.17067.104-.292.23333-.36134.38533-.0707.15067-.11733.276-.14.37333-.0227.0973-.0347.17334-.0347.22667h-1.48267c0-.116.0227-.276.0693-.47733.0467-.20267.13467-.43867.26267-.70667.12933-.26933.284-.51733.46667-.74667.18266-.22933.428-.424.736-.584.30666-.16.648-.24 1.02133-.24.39733 0 .77467.088 1.132.264.35733.17467.7.34934 1.02667.524.328.176.65066.26267.96933.26267.21733 0 .41067-.0387.57733-.116.168-.0787.296-.168.38534-.26933.0893-.1.16133-.21067.216-.332.0547-.12134.088-.216.1-.28534.012-.0707.0173-.12533.0173-.164h1.50533c0 .10134-.0253.24934-.076.444-.0507.19467-.144.428-.28.7-.136.272-.30133.52534-.496.75867-.19466.23333-.45733.43333-.788.60133-.33066.16667-.69466.25067-1.092.25067-.412 0-.804-.0853-1.17866-.25733-.37334-.17067-.71734-.34134-1.032-.51334-.316-.17066-.61334-.256-.89334-.256m.31467 3.17467h2.53333l6.59467 16.97067h-2.824l-1.78667-4.61067h-6.548l-1.77333 4.61067h-2.84933zm22.43877 14.6716c.824 0 1.58267-.17867 2.276-.53733.692-.35734 1.26133-.83067 1.704-1.41734.444-.588.788-1.24666 1.03333-1.97866.24534-.732.368-1.48267.368-2.25334 0-.80133-.13066-1.57333-.392-2.31733-.26-.74267-.61866-1.4-1.07333-1.972-.456-.572-1.024-1.02667-1.704-1.36533-.68133-.33867-1.41867-.508-2.212-.508-.82533 0-1.58667.17733-2.28267.53066-.696.35467-1.26933.824-1.72133 1.40667-.45067.584-.80133 1.24133-1.05067 1.97333-.248.73067-.37333 1.48267-.37333 2.252 0 1.07467.216 2.07734.648 3.012.432.93334 1.068 1.696 1.908 2.288.84.59067 1.79867.88667 2.872.88667m-8.148-6.18667c0-1.12.208-2.204.62533-3.25066.416-1.04667.98134-1.96267 1.69734-2.748.716-.78667 1.584-1.416 2.604-1.892 1.01866-.47334 2.10133-.712 3.244-.712 1.176 0 2.276.24933 3.304.748 1.02666.49733 1.88533 1.15333 2.57333 1.96666.68933.81334 1.232 1.73467 1.628 2.76534.39733 1.032.596 2.08.596 3.14666 0 1.12-.20933 2.20134-.62533 3.24534-.416 1.04266-.97867 1.956-1.68534 2.74266-.70933.78534-1.572 1.41334-2.592 1.88534-1.02.47066-2.10133.70533-3.24533.70533-.94933 0-1.852-.15733-2.708-.472-.856-.316-1.60933-.74933-2.25733-1.30133-.65067-.55334-1.21467-1.19067-1.69334-1.91467-.47866-.724-.84266-1.508-1.09066-2.352-.24934-.84533-.37467-1.69867-.37467-2.56267m46.11919 6.11667v2.36933h-11.63733V185.6416h11.42666v2.36933h-8.75333v4.82h7.57467v2.22933h-7.57467v5.18267zm20.8716-5.90613h4.692c.74 0 1.35067-.30933 1.83333-.928.48134-.61867.724-1.368.724-2.24667 0-.864-.27333-1.60533-.81733-2.224-.54533-.61866-1.17467-.928-1.89067-.928h-4.54133zm-2.67333 8.276v-16.972h7.38933c.73867 0 1.44133.16 2.10667.47867.66533.32 1.224.74 1.67466 1.26133.452.52133.80934 1.112 1.07467 1.77333.264.66134.396 1.33067.396 2.008 0 1.152-.30267 2.192-.91067 3.12134-.60666.93066-1.408 1.55466-2.404 1.87333l3.992 6.456h-3.012l-3.688-5.90667h-3.94533v5.90667zm32.21163-2.36987v2.36933h-11.63733V185.6416h11.42666v2.36933h-8.75466v4.82h7.576v2.22933h-7.576v5.18267zm14.3561-14.6956c1.48667 0 2.792.33733 3.916 1.00933 1.124.67334 1.97067 1.57067 2.53867 2.69067l-2.10134 1.41333c-.22533-.49066-.50933-.91733-.852-1.27866-.34266-.36267-.716-.64267-1.12-.84-.40533-.19867-.812-.34534-1.22-.43867-.408-.0933-.82666-.14-1.25466-.14-.68534 0-1.32267.11867-1.91467.356-.592.23733-1.09733.55467-1.51733.952-.42.396-.78134.86-1.08534 1.38933-.304.528-.52666 1.08534-.67066 1.668-.144.584-.21734 1.176-.21734 1.77467 0 1.09733.232 2.12.69467 3.06933.46267.94934 1.12 1.71467 1.968 2.29467.848.57867 1.78533.86933 2.812.86933.584 0 1.15333-.092 1.71067-.27466.556-.18267 1.09333-.49067 1.61066-.92267.51734-.432.916-.96267 1.196-1.59333l2.22934 1.26133c-.33467.80933-.87867 1.52133-1.63334 2.136-.756.61467-1.584 1.06933-2.48666 1.36533-.90267.296-1.80934.444-2.72.444-1.15067 0-2.23867-.25333-3.26267-.75866-1.02267-.50534-1.88267-1.17067-2.57867-1.996-.69733-.82534-1.248-1.76-1.652-2.808-.404-1.04534-.60666-2.10667-.60666-3.18 0-.82534.116-1.644.35066-2.45734.23334-.81333.58534-1.58 1.05467-2.29866.472-.72 1.02933-1.356 1.676-1.90934.64533-.552 1.412-.98933 2.3-1.312.88667-.324 1.832-.48533 2.836-.48533m20.8368 14.7656c.824 0 1.58267-.17867 2.276-.53733.692-.35734 1.26133-.83067 1.704-1.41734.444-.588.788-1.24666 1.03333-1.97866.24534-.732.368-1.48267.368-2.25334 0-.80133-.13066-1.57333-.392-2.31733-.26-.74267-.61866-1.4-1.07333-1.972-.456-.572-1.024-1.02667-1.704-1.36533-.68133-.33867-1.41867-.508-2.212-.508-.82533 0-1.58667.17733-2.28267.53066-.696.35467-1.26933.824-1.72133 1.40667-.45067.584-.80133 1.24133-1.05067 1.97333-.248.73067-.37333 1.48267-.37333 2.252 0 1.07467.216 2.07734.648 3.012.432.93334 1.068 1.696 1.908 2.288.84.59067 1.79867.88667 2.872.88667m-8.148-6.18667c0-1.12.208-2.204.62533-3.25066.416-1.04667.98134-1.96267 1.69734-2.748.716-.78667 1.584-1.416 2.604-1.892 1.01866-.47334 2.10133-.712 3.244-.712 1.176 0 2.276.24933 3.304.748 1.02666.49733 1.88533 1.15333 2.57333 1.96666.68933.81334 1.232 1.73467 1.628 2.76534.39733 1.032.596 2.08.596 3.14666 0 1.12-.20933 2.20134-.62533 3.24534-.416 1.04266-.97867 1.956-1.68534 2.74266-.70933.78534-1.572 1.41334-2.592 1.88534-1.02.47066-2.10133.70533-3.24533.70533-.94933 0-1.852-.15733-2.708-.472-.856-.316-1.60933-.74933-2.25733-1.30133-.65067-.55334-1.21467-1.19067-1.69334-1.91467-.47866-.724-.84266-1.508-1.09066-2.352-.24934-.84533-.37467-1.69867-.37467-2.56267m26.5035-3.51306v11.99867h-2.67333V185.6412h2.19466l9.61867 12.26667v-12.244h2.696v16.948h-2.34667zm30.4714-.9804c-.36533-.404-.988-.79333-1.86667-1.16667-.88-.37333-1.78666-.56133-2.72-.56133-1.10533 0-1.932.20533-2.48.61333-.54933.408-.824.98667-.824 1.73334 0 .23333.0307.444.0947.63066.0613.18667.14133.352.23867.496.0973.144.24266.28134.43733.41467.19467.132.38667.244.57733.33733.192.0933.452.19334.78267.29867.33067.104.64.19467.928.268.288.0747.66533.16933 1.132.28533.74667.18 1.38533.356 1.91467.532.52933.17467 1.03866.396 1.52933.66534.48933.268.88267.568 1.17867.89866.29466.33067.53066.73334.70533 1.208.17467.47467.264 1.01467.264 1.62267 0 .676-.108 1.288-.32133 1.832-.21467.54533-.508 1.004-.88134 1.37733-.37333.37334-.82533.68667-1.35466.94-.52934.25334-1.09734.436-1.704.548-.60667.11334-1.26.16934-1.96.16934-1.292 0-2.54134-.196-3.748-.58934-1.20667-.39333-2.29067-.95866-3.256-1.69866l1.22533-2.29867c.49067.50533 1.28933.99333 2.39867 1.46533 1.10933.47067 2.25066.70534 3.42533.70534 1.05867 0 1.87467-.18667 2.44533-.56.572-.37334.85867-.91067.85867-1.61067 0-.28-.0427-.53333-.128-.75867-.0867-.22533-.23467-.43066-.444-.61333-.21067-.18267-.42667-.34-.648-.472-.22133-.13333-.53733-.26933-.94533-.40933-.40934-.14-.78267-.256-1.12134-.34934-.33733-.0947-.79466-.21466-1.37066-.36266-.89467-.23334-1.63467-.47067-2.21867-.712-.58267-.24134-1.09867-.53734-1.54533-.88667-.448-.35067-.77334-.764-.97467-1.24267-.20267-.47866-.304-1.04533-.304-1.69866 0-.81734.15867-1.55467.47333-2.212.31467-.65734.748-1.2 1.30134-1.628.552-.428 1.20133-.75467 1.94933-.98134.74667-.22533 1.55867-.33866 2.43867-.33866 2.08666 0 3.996.63866 5.732 1.91466zm21.7991-1.6224h-5.63733v14.60133h-2.708V188.0104h-5.66134v-2.36933h14.00667zm9.7187 6.3264h4.692c.73867 0 1.34933-.30933 1.83333-.928.48134-.61867.72267-1.368.72267-2.24667 0-.864-.272-1.60533-.81733-2.224-.544-.61866-1.17467-.928-1.89067-.928h-4.54zm-2.67333 8.276v-16.972h7.388c.74 0 1.44266.16 2.108.47867.66533.32 1.22266.74 1.67466 1.26133.45067.52133.80934 1.112 1.07467 1.77333.264.66134.396 1.33067.396 2.008 0 1.152-.304 2.192-.91067 3.12134-.60666.93066-1.408 1.55466-2.404 1.87333l3.992 6.456h-3.012l-3.688-5.90667h-3.94533v5.90667zm27.62293.1164c-1.05067 0-1.99333-.156-2.83067-.46667-.836-.312-1.53066-.728-2.08266-1.24933-.55334-.52133-1.012-1.14933-1.37734-1.88533-.36666-.73467-.62933-1.50534-.788-2.31067-.16-.80533-.24-1.664-.24-2.57333v-8.60267h2.68534v8.60267c0 .64533.0467 1.25466.14 1.82666.0933.572.25466 1.12134.484 1.65067.22933.52933.51466.98133.85866 1.35467.34134.37333.78134.67333 1.31867.89866.53733.22534 1.148.33867 1.832.33867.692 0 1.30933-.11467 1.85067-.344.54-.22933.98133-.536 1.324-.91733.34266-.38.62666-.836.852-1.36534.22666-.52933.384-1.076.47333-1.64.0893-.564.13467-1.16533.13467-1.80266v-8.60267h2.70666v8.60267c0 1.19066-.14 2.28533-.42 3.28533-.28 1-.70533 1.89467-1.27733 2.684-.572.79067-1.33867 1.40667-2.3 1.85067-.96133.444-2.076.66533-3.344.66533m29.55-3.92173c-.436 1.04267-1.18667 1.904-2.252 2.58533-1.068.68134-2.23067 1.11067-3.49067 1.28934.816.68533 1.22534 1.452 1.22534 2.3 0 .684-.22934 1.22933-.68934 1.63333-.45866.40533-1.1.608-1.92533.608-.98133 0-1.91867-.23067-2.81333-.68933l.66533-1.412c.60667.33466 1.17067.50133 1.69333.50133.45067 0 .80267-.0947 1.056-.28533.25334-.19067.38-.46934.38-.83467 0-.62267-.428-1.21333-1.284-1.77467-1.08266-.0853-2.096-.396-3.04133-.93333-.94533-.53733-1.74133-1.20933-2.38667-2.02-.64666-.80933-1.15466-1.71467-1.52266-2.71867-.37067-1.004-.55467-2.02-.55467-3.04666 0-.82534.116-1.644.34933-2.45734.23334-.81333.58534-1.58 1.056-2.29866.472-.72 1.02934-1.356 1.67467-1.90934.64667-.552 1.41333-.98933 2.3-1.31333.88667-.32267 1.83333-.484 2.83733-.484 1.48534 0 2.79067.336 3.916 1.00933 1.124.67334 1.96934 1.57067 2.53734 2.69067l-2.1 1.412c-.22667-.48933-.51067-.916-.852-1.27733-.34267-.36267-.716-.64267-1.12134-.84-.404-.19867-.81066-.34534-1.21866-.43867-.40934-.0933-.828-.14-1.256-.14-.684 0-1.32267.11867-1.91334.356-.592.23733-1.09733.55467-1.51733.952-.42133.396-.78267.86-1.08533 1.388-.304.52933-.528 1.08533-.672 1.66933-.144.584-.216 1.176-.216 1.77467 0 1.09733.232 2.12.69466 3.06933.46267.94934 1.11867 1.71467 1.96667 2.29467.848.57867 1.78667.86933 2.81333.86933.584 0 1.15334-.092 1.70934-.27466.556-.18267 1.09333-.49067 1.612-.92267.516-.432.916-.96267 1.196-1.59333zm15.91-2.79014-2.73067-7.43467-2.81333 7.43467zm-4.30667-13.55067c-.24933 0-.45866.052-.63066.15734-.17067.104-.292.23333-.36134.38533-.0707.15067-.11733.276-.14.37333-.0227.0973-.0347.17334-.0347.22667h-1.48267c0-.116.0227-.276.0693-.47733.0467-.20267.13467-.43867.264-.70667.128-.26933.284-.51733.46534-.74667.18266-.22933.428-.424.736-.584.30666-.16.648-.24 1.02133-.24.39733 0 .77467.088 1.132.264.35733.17467.70133.34934 1.02667.524.328.176.65066.26267.96933.26267.21733 0 .41067-.0387.57867-.116.16666-.0787.29466-.168.384-.26933.0893-.1.16133-.21067.216-.332.0547-.12134.088-.216.1-.28534.012-.0707.0173-.12533.0173-.164h1.50533c0 .10134-.0253.24934-.076.444-.0507.19467-.144.428-.28.7-.136.272-.30133.52534-.496.75867-.19466.23333-.45733.43333-.788.60133-.33066.16667-.69466.25067-1.092.25067-.412 0-.804-.0853-1.17866-.25733-.37334-.17067-.71734-.34134-1.032-.51334-.316-.17066-.61334-.256-.89334-.256m.31467 3.17467h2.53333l6.59467 16.97067h-2.824l-1.78667-4.61067h-6.548l-1.77333 4.61067h-2.84933zm22.4379 14.6716c.824 0 1.584-.17867 2.276-.53733.692-.35734 1.26133-.83067 1.704-1.41734.444-.588.788-1.24666 1.03333-1.97866.24534-.732.368-1.48267.368-2.25334 0-.80133-.13066-1.57333-.392-2.31733-.26-.74267-.61733-1.4-1.07333-1.972-.45467-.572-1.02267-1.02667-1.704-1.36533-.68133-.33867-1.41867-.508-2.212-.508-.824 0-1.58533.17733-2.28133.53066-.69734.35467-1.27067.824-1.72134 1.40667-.452.584-.80266 1.24133-1.05066 1.97333-.24934.73067-.37467 1.48267-.37467 2.252 0 1.07467.216 2.07734.648 3.012.432.93334 1.068 1.696 1.90933 2.288.84.59067 1.79734.88667 2.87067.88667m-8.148-6.18667c0-1.12.20933-2.204.62533-3.25066.416-1.04667.98267-1.96267 1.69867-2.748.71467-.78667 1.58267-1.416 2.60267-1.892 1.01866-.47334 2.10133-.712 3.24533-.712 1.17467 0 2.276.24933 3.30267.748 1.028.49733 1.88533 1.15333 2.57333 1.96666.68933.81334 1.232 1.73467 1.62933 2.76534.396 1.032.59467 2.08.59467 3.14666 0 1.12-.208 2.20134-.624 3.24534-.41733 1.04266-.97867 1.956-1.68667 2.74266-.708.78534-1.572 1.41334-2.59066 1.88534-1.02.47066-2.10267.70533-3.24534.70533-.94933 0-1.852-.15733-2.708-.472-.856-.316-1.60933-.74933-2.25866-1.30133-.65067-.55334-1.21467-1.19067-1.69334-1.91467-.47866-.724-.84266-1.508-1.09066-2.352-.24934-.84533-.37467-1.69867-.37467-2.56267" style="fill:#000;fill-opacity:1;fill-rule:nonzero;stroke:none;stroke-width:1.33333325" transform="translate(1.252219 152.6657) scale(.93286)"/><path d="M445.49219 259.2793v42.05273h48.91211l9.60351-16.14648-16.84961-25.90625h-41.66601z" style="fill:#00cf00;fill-opacity:1;fill-rule:nonzero;stroke:none;stroke-width:1.24381995"/><path d="M401.63086 237.75391v63.57617h-36.71289v.00195h48.78515c17.55652 0 31.78907-14.23325 31.78907-31.79101 0-17.55652-14.23255-31.78711-31.78907-31.78711h-12.07226z" style="fill:red;fill-opacity:1;fill-rule:nonzero;stroke:none;stroke-width:1.24381995"/><path d="M401.63281 195.15039v42.60352h8.50196c11.76405 0 21.30078-9.53869 21.30078-21.30274s-9.53673-21.30078-21.30078-21.30078h-8.50196z" style="fill:#183eff;fill-opacity:1;fill-rule:nonzero;stroke:none;stroke-width:1.24381995"/><path d="m557.55469 195.15039-53.54492 90.03125 10.49609 16.14844h4.3125c.00106-21.3928 17.34327-38.73438 38.73633-38.73438 21.39304 0 38.73526 17.34158 38.73633 38.73438h6.0371v-30.89844l-44.77343-75.28125zm44.77343 75.28125 18.37696 30.89844h.00195l-18.37891-30.89844z" style="fill:#ffcf00;fill-opacity:1;fill-rule:nonzero;stroke:none;stroke-width:1.24381995"/><path d="M816.11396 45.541066h-39.3573V121.1344h39.3573z" style="fill:#ffcf00;fill-opacity:1;fill-rule:nonzero;stroke:none;stroke-width:1.33333325" transform="translate(1.252219 152.6657) scale(.93286)"/><path d="M816.11396 159.36507h39.3574V121.1344h-39.3574z" style="fill:#183eff;fill-opacity:1;fill-rule:nonzero;stroke:none;stroke-width:1.33333325" transform="translate(1.252219 152.6657) scale(.93286)"/><path d="M776.75666 159.36507h39.3573V121.1344h-39.3573z" style="fill:#3c3c3c;fill-opacity:1;fill-rule:nonzero;stroke:none;stroke-width:1.33333325" transform="translate(1.252219 152.6657) scale(.93286)"/><path d="M602.32812 242.33984v28.0918l18.37696 30.89844h16.33008v-58.99024h-34.70704z" style="fill:red;fill-opacity:1;fill-rule:nonzero;stroke:none;stroke-width:1.24381328"/><path d="M0 0h16.162l-8.44 12.985Z" style="fill:#3c3c3c;fill-opacity:1;fill-rule:nonzero;stroke:none" transform="matrix(1.24382 0 0 -1.24382 494.40397 301.33118)"/><path d="M0 0v-24.842h14.775Z" style="fill:#3c3c3c;fill-opacity:1;fill-rule:nonzero;stroke:none" transform="matrix(1.24382 0 0 -1.24382 602.32899 270.43218)"/><path d="M770.11796 45.541066h-39.3573V159.36373h39.3573zm-340.92262 0h-39.35733v45.66933h39.35733z" style="fill:#00cf00;fill-opacity:1;fill-rule:nonzero;stroke:none;stroke-width:1.33333325" transform="translate(1.252219 152.6657) scale(.93286)"/><path d="m445.49219 195.15039 41.66601 64.12891c17.70827 0 32.06446-14.35619 32.06446-32.06446 0-17.70951-14.35619-32.06445-32.06446-32.06445h-41.66601z" style="fill:#183eff;fill-opacity:1;fill-rule:nonzero;stroke:none;stroke-width:1.24381995"/><path d="M724.12196 45.541066h-42.58v41.39066h42.58z" style="fill:#183eff;fill-opacity:1;fill-rule:nonzero;stroke:none;stroke-width:1.33333325" transform="translate(1.252219 152.6657) scale(.93286)"/><path d="M0 0h-9.752v-54.325H0c15.001 0 27.162 12.161 27.162 27.163C27.162-12.161 15.001 0 0 0" style="fill:#ffcf00;fill-opacity:1;fill-rule:nonzero;stroke:none" transform="matrix(1.24382 0 0 -1.24382 649.16659 233.76137)"/><path d="M0 0c-10.477 0-18.97-8.493-18.97-18.97 0-10.477 8.493-18.97 18.97-18.97h8.934V0Z" style="fill:#00cf00;fill-opacity:1;fill-rule:nonzero;stroke:none" transform="matrix(1.24382 0 0 -1.24382 625.92443 195.14985)"/><path d="M401.63138 301.32976h-36.71487v-63.57753h36.71487z" style="fill:#ffcf00;fill-opacity:1;fill-rule:nonzero;stroke:none;stroke-width:1.24381328"/><path d="m0 0-33.498 51.559V0Z" style="fill:#ffcf00;fill-opacity:1;fill-rule:nonzero;stroke:none" transform="matrix(1.24382 0 0 -1.24382 487.15787 259.28)"/><path d="M0 0c0 17.2-13.943 31.143-31.143 31.143-17.2 0-31.143-13.943-31.143-31.143Z" style="fill:#183eff;fill-opacity:1;fill-rule:nonzero;stroke:none" transform="matrix(1.24382 0 0 -1.24382 596.29123 301.33131)"/><use xlink:href="#a" style="fill:#000;fill-opacity:1;fill-rule:nonzero;stroke:none" transform="matrix(1.24382 0 0 -1.24382 422.47359296 161.82702591)"/><use xlink:href="#b" style="fill:#000;fill-opacity:1;fill-rule:nonzero;stroke:none" transform="matrix(1.24382 0 0 -1.24382 445.21116988 163.22072128)"/><use xlink:href="#c" style="fill:#000;fill-opacity:1;fill-rule:nonzero;stroke:none" transform="matrix(1.24382 0 0 -1.24382 477.28918557 153.13972109)"/><use xlink:href="#d" style="fill:#000;fill-opacity:1;fill-rule:nonzero;stroke:none" transform="matrix(1.24382 0 0 -1.24382 489.82809075 158.06174325)"/><use xlink:href="#e" style="fill:#000;fill-opacity:1;fill-rule:nonzero;stroke:none" transform="matrix(1.24382 0 0 -1.24382 512.56640464 161.73833873)"/><use xlink:href="#f" style="fill:#000;fill-opacity:1;fill-rule:nonzero;stroke:none" transform="matrix(1.24382 0 0 -1.24382 550.4257669 153.13972109)"/><use xlink:href="#b" style="fill:#000;fill-opacity:1;fill-rule:nonzero;stroke:none" transform="matrix(1.24382 0 0 -1.24382 573.5196038 163.22072128)"/><use xlink:href="#g" style="fill:#000;fill-opacity:1;fill-rule:nonzero;stroke:none" transform="matrix(1.24382 0 0 -1.24382 605.9825463 157.9729348)"/><use xlink:href="#h" style="fill:#000;fill-opacity:1;fill-rule:nonzero;stroke:none" transform="matrix(1.24382 0 0 -1.24382 628.57291762 158.06174325)"/><use xlink:href="#i" style="fill:#000;fill-opacity:1;fill-rule:nonzero;stroke:none" transform="matrix(1.24382 0 0 -1.24382 659.28693056 163.22072128)"/><use xlink:href="#h" style="fill:#000;fill-opacity:1;fill-rule:nonzero;stroke:none" transform="matrix(1.24382 0 0 -1.24382 678.20079968 158.06174325)"/><use xlink:href="#j" style="fill:#000;fill-opacity:1;fill-rule:nonzero;stroke:none" transform="matrix(1.24382 0 0 -1.24382 700.93874975 161.73833873)"/><use xlink:href="#k" style="fill:#000;fill-opacity:1;fill-rule:nonzero;stroke:none" transform="matrix(1.24382 0 0 -1.24382 732.24606289 165.02947528)"/><use xlink:href="#l" style="fill:#000;fill-opacity:1;fill-rule:nonzero;stroke:none" transform="matrix(1.24382 0 0 -1.24382 762.57424413 168.11290116)"/><use xlink:href="#a" style="fill:#000;fill-opacity:1;fill-rule:nonzero;stroke:none" transform="matrix(1.24382 0 0 -1.24382 422.47359296 161.82702591)"/><use xlink:href="#b" style="fill:#000;fill-opacity:1;fill-rule:nonzero;stroke:none" transform="matrix(1.24382 0 0 -1.24382 445.21116988 163.22072128)"/><use xlink:href="#c" style="fill:#000;fill-opacity:1;fill-rule:nonzero;stroke:none" transform="matrix(1.24382 0 0 -1.24382 477.28918557 153.13972109)"/><use xlink:href="#d" style="fill:#000;fill-opacity:1;fill-rule:nonzero;stroke:none" transform="matrix(1.24382 0 0 -1.24382 489.82809075 158.06174325)"/><use xlink:href="#e" style="fill:#000;fill-opacity:1;fill-rule:nonzero;stroke:none" transform="matrix(1.24382 0 0 -1.24382 512.56640464 161.73833873)"/><use xlink:href="#f" style="fill:#000;fill-opacity:1;fill-rule:nonzero;stroke:none" transform="matrix(1.24382 0 0 -1.24382 550.4257669 153.13972109)"/><use xlink:href="#b" style="fill:#000;fill-opacity:1;fill-rule:nonzero;stroke:none" transform="matrix(1.24382 0 0 -1.24382 573.5196038 163.22072128)"/><use xlink:href="#g" style="fill:#000;fill-opacity:1;fill-rule:nonzero;stroke:none" transform="matrix(1.24382 0 0 -1.24382 605.9825463 157.9729348)"/><use xlink:href="#h" style="fill:#000;fill-opacity:1;fill-rule:nonzero;stroke:none" transform="matrix(1.24382 0 0 -1.24382 628.57291762 158.06174325)"/><use xlink:href="#i" style="fill:#000;fill-opacity:1;fill-rule:nonzero;stroke:none" transform="matrix(1.24382 0 0 -1.24382 659.28693056 163.22072128)"/><use xlink:href="#h" style="fill:#000;fill-opacity:1;fill-rule:nonzero;stroke:none" transform="matrix(1.24382 0 0 -1.24382 678.20079968 158.06174325)"/><use xlink:href="#j" style="fill:#000;fill-opacity:1;fill-rule:nonzero;stroke:none" transform="matrix(1.24382 0 0 -1.24382 700.93874975 161.73833873)"/><use xlink:href="#k" style="fill:#000;fill-opacity:1;fill-rule:nonzero;stroke:none" transform="matrix(1.24382 0 0 -1.24382 732.24606289 165.02947528)"/><use xlink:href="#l" style="fill:#000;fill-opacity:1;fill-rule:nonzero;stroke:none" transform="matrix(1.24382 0 0 -1.24382 762.57424413 168.11290116)"/></svg>