<svg xmlns="http://www.w3.org/2000/svg" id="svg16" version="1.1" viewBox="0 0 800.00006 499.99999"><g id="g3828" style="clip-rule:evenodd;fill-rule:evenodd;image-rendering:optimizeQuality;shape-rendering:geometricPrecision;text-rendering:geometricPrecision" transform="translate(30.77517 20.931937) scale(.13255)"><g id="g16" style="fill:#a3d361;fill-opacity:1"><path id="path14-6" d="M5420.5 1198.5h5c-.33 216.83 0 433.5 1 650 1.19 1.21 1.19 2.54 0 4-26.85 26.01-54.51 51.18-83 75.5-8.64 7.64-16.97 15.64-25 24-37.59 11.14-75.25 21.81-113 32-1.59 1.05-3.09 2.21-4.5 3.5-4.72 6.78-8.39 14.11-11 22-7.26 24.98-14.26 49.98-21 75-6.47 24.6-16.47 47.6-30 69-5.58 7.25-12.58 12.58-21 16-.33 16.4.67 32.73 3 49 8 48.65 16 97.31 24 146 1.71 8.94 2.37 17.94 2 27-39.64 48.48-79.48 96.81-119.5 145 21.25 23.9 33.09 51.9 35.5 84 1.95 19.45 2.78 38.95 2.5 58.5-.17 34.55-1.5 69.05-4 103.5-16.67-.33-32.67 2.83-48 9.5-33.89 15.94-66.56 33.94-98 54-6.31 4.49-13.31 6.66-21 6.5-51.36-1.92-102.69-4.26-154-7-13.3-19.1-26.97-37.93-41-56.5-17.11.1-34.11-1.07-51-3.5-4.02.01-7.69 1.17-11 3.5-4.44 4.38-8.27 9.21-11.5 14.5-6.1 11.21-11.94 22.54-17.5 34-46.89-16.41-93.89-32.41-141-48 2.14-22.52 5.48-44.85 10-67-5.31-.86-10.65-1.03-16-.5-5.87 2.91-10.04 7.41-12.5 13.5-9.38 21.13-17.38 42.79-24 65-32.33 103.99-65.66 207.65-100 311-2.04 2.47-4.71 3.47-8 3-10.23-3.43-20.06-2.59-29.5 2.5-10.5 6.5-19 15-25.5 25.5-5.51 8.34-10.51 17.01-15 26-2.44 15.65-4.77 31.31-7 47-1.2 6.27-3.2 12.27-6 18-25.55 13.02-51.71 24.85-78.5 35.5-13.46 5.48-25.3 13.31-35.5 23.5-5.48 6.76-7.48 14.43-6 23 .2 1.82 1.03 3.15 2.5 4-164.83 1-329.83 1.33-495 1 46.19-15.59 88.86-37.76 128-66.5 11.47-9.64 22.47-19.8 33-30.5.4 1.03 1.06 1.19 2 .5 3.54-3.37 6.87-6.87 10-10.5 110.37-7.39 209.7-43.89 298-109.5 12.13-9.63 23.8-19.8 35-30.5 9.52-5.68 17.69-13.01 24.5-22 26.06-35.44 46.39-74.11 61-116 233.47-655.26 466.63-1310.59 699.5-1966 2.58-5.055 4.58-10.388 6-16 .62-2.855 1.62-5.522 3-8-.08-1.752.75-2.752 2.5-3 15.68 4.226 31.18 9.059 46.5 14.5 79.15 30.902 159.15 59.57 240 86 1.76 1.01 2.93 2.51 3.5 4.5.53 11.34 1.03 22.67 1.5 34 1.05.15 2.05-.02 3-.5 13.57-9.91 27.4-19.41 41.5-28.5 21.28 19.61 42.28 39.61 63 60 7.56 8.12 13.9 17.12 19 27 5.46 19.52 10.46 39.19 15 59 .52 2.53 1.68 4.7 3.5 6.5 5.55 1.57 11.22 1.9 17 1 14.21-3.21 28.54-5.71 43-7.5z" style="opacity:1;fill:#a3d361;fill-opacity:1"/></g><g id="g20" style="fill:#00aa86;fill-opacity:1"><path id="path18" d="M4921.5 945.5c-1.38 2.478-2.38 5.145-3 8-3.45 5.235-6.12 10.902-8 17-2.84 4.349-5.17 9.016-7 14-39.24 72.12-87.08 138.12-143.5 198-63.48 65.85-131.98 125.35-205.5 178.5-87.53 62.47-178.53 119.81-273 172-58.16 32.14-116.83 63.47-176 94-110.49 55.74-220.82 111.74-331 168-56.31 29.81-111.64 61.15-166 94-48.19 29.85-93.86 63.19-137 100-27.81 24.86-51.97 52.69-72.5 83.5-41.52 68.25-43.19 137.58-5 208 16.11 26.11 33.78 51.11 53 75 36.09 44.52 72.43 88.85 109 133 57.66 70.33 111.66 143.33 162 219 12.95 20.23 25.11 40.89 36.5 62-77.3 115.49-154.47 231.16-231.5 347-21.95 25.59-45.45 49.59-70.5 72-.15-1.05.02-2.05.5-3 16.33-20.99 29.33-43.99 39-69 18.75-53.06 25.75-107.72 21-164-6.79-69.05-22.45-136.05-47-201-27.1-72.31-59.77-141.98-98-209-48.85-67.18-98.85-133.52-150-199-25.56-34.24-49.56-69.57-72-106-17.16-28.99-30.5-59.66-40-92-13.31-49.49-6.31-95.82 21-139 23.1-31.98 50.93-59.14 83.5-81.5 34.67-22.34 70-43.67 106-64 117.45-63.72 238.12-121.05 362-172 143.11-57.37 286.78-113.37 431-168 109.48-41.9 216.48-89.57 321-143 116.14-59.71 222.14-133.71 318-222 66.23-62.84 123.23-132.67 171-209.5.67-.333 1.33-.667 2-1z" style="opacity:1;fill:#00aa86;fill-opacity:1"/></g><g id="g24"><path id="path22" d="M4918.5 953.5c-1.42 5.612-3.42 10.945-6 16-.67.333-1.33.667-2 1 1.88-6.098 4.55-11.765 8-17z" style="opacity:1;fill:#d2ce85"/></g><g id="g28" style="fill:#ffe985;fill-opacity:1"><path id="path26" d="M4912.5 969.5c-232.87 655.41-466.03 1310.74-699.5 1966-14.61 41.89-34.94 80.56-61 116-6.81 8.99-14.98 16.32-24.5 22 43.02-55.38 59.52-118.05 49.5-188-6.02-37.07-16.69-72.74-32-107-17.97-39.98-39.47-77.64-64.5-113-31.87-47.34-67.37-92-106.5-134-27.83-29.17-56.33-57.67-85.5-85.5l-78-66c-42-38.28-77.17-81.78-105.5-130.5-23.08-40.91-36.25-84.74-39.5-131.5.14-16.72 3.97-32.55 11.5-47.5 13.58-24.92 30.24-47.58 50-68 30.72-30.73 63.22-59.23 97.5-85.5 42.77-32.11 86.11-63.44 130-94 88.16-59.58 176.49-118.91 265-178 108.09-73.09 213.09-150.42 315-232 75.22-61.88 146.05-128.71 212.5-200.5 49.46-55.12 93.12-114.45 131-178 9.31-16.28 17.81-32.95 25.5-50 1.83-4.984 4.16-9.651 7-14 .67-.333 1.33-.667 2-1z" style="opacity:1;fill:#ffe985;fill-opacity:1"/></g><g id="g32" style="fill:#e09686;fill-opacity:1"><path id="path30" d="M4903.5 984.5c-7.69 17.05-16.19 33.72-25.5 50-37.88 63.55-81.54 122.88-131 178-66.45 71.79-137.28 138.62-212.5 200.5-101.91 81.58-206.91 158.91-315 232-88.51 59.09-176.84 118.42-265 178-43.89 30.56-87.23 61.89-130 94-34.28 26.27-66.78 54.77-97.5 85.5-19.76 20.42-36.42 43.08-50 68-7.53 14.95-11.36 30.78-11.5 47.5 3.25 46.76 16.42 90.59 39.5 131.5 28.33 48.72 63.5 92.22 105.5 130.5l78 66c29.17 27.83 57.67 56.33 85.5 85.5 39.13 42 74.63 86.66 106.5 134-59.54 125.08-120.7 249.41-183.5 373-21.65 41.97-44.32 83.31-68 124-10.52 17.72-22.02 34.72-34.5 51-3.13 3.63-6.46 7.13-10 10.5-.94.69-1.6.53-2-.5 38.67-47.47 59.17-102.14 61.5-164 .82-25.16-.85-50.16-5-75-15.96-76.57-44.13-148.24-84.5-215-11.39-21.11-23.55-41.77-36.5-62-50.34-75.67-104.34-148.67-162-219-36.57-44.15-72.91-88.48-109-133-19.22-23.89-36.89-48.89-53-75-38.19-70.42-36.52-139.75 5-208 20.53-30.81 44.69-58.64 72.5-83.5 43.14-36.81 88.81-70.15 137-100 54.36-32.85 109.69-64.19 166-94 110.18-56.26 220.51-112.26 331-168 59.17-30.53 117.84-61.86 176-94 94.47-52.19 185.47-109.53 273-172 73.52-53.15 142.02-112.65 205.5-178.5 56.42-59.88 104.26-125.88 143.5-198z" style="opacity:1;fill:#e09686;fill-opacity:1"/></g><g id="g36"><path id="path34" d="M5420.5 1198.5c1.76-.96 3.76-1.29 6-1v651c-1-216.5-1.33-433.17-1-650h-5z" style="opacity:1;fill:#a8cd6b"/></g><g id="g230" style="fill:#00be93;fill-opacity:1"><g id="g12" style="fill:#00be93;fill-opacity:1"><path id="path10-3" d="M2722.5 188.5c99.67-.167 199.33 0 299 .5 8.02.836 16.02 1.836 24 3 5.05.958 9.71 2.791 14 5.5 2.24 2.047 2.57 4.38 1 7 4.97 15.317 5.14 30.65.5 46-6.08 14.494-14.41 27.494-25 39-3.51 5.01-6.51 10.343-9 16-7.2 27.262-16.2 53.929-27 80-2.44 6.333-4.28 12.833-5.5 19.5 5.69 14.544 11.52 29.044 17.5 43.5 2.91 6.824 6.58 13.158 11 19 10.78 12.144 23.95 15.478 39.5 10-4.17 24.042-8.67 48.042-13.5 72-.83 6.646-1.33 13.313-1.5 20 1.7-.16 3.37.006 5 .5 26.85 18.514 52.85 38.181 78 59 8.4 6.06 17.06 11.727 26 17 11.69 7.345 24.36 10.345 38 9 4.67-2 9.33-4 14-6 5.92-4.008 9.76-9.508 11.5-16.5 1.02-8.145 2.69-16.145 5-24 7.38-10.846 17.72-15.18 31-13 11.53.842 23.03 1.676 34.5 2.5.83-.833 1.67-1.667 2.5-2.5 2.14-5.416 4.47-10.749 7-16 1.51-2.21 3.34-4.043 5.5-5.5 5.34-1.844 10.84-2.677 16.5-2.5 13.16.984 26.32 1.15 39.5.5 3.78-.592 7.44-1.592 11-3 12.13-7.713 20.29-18.547 24.5-32.5 4.13-5.648 9.63-9.148 16.5-10.5 11.29-1.522 22.62-1.856 34-1 25.75 3.15 51.42 6.817 77 11 10.95 1.547 21.95 2.547 33 3 14.29 1.489 28.29.156 42-4 9.73-3.564 15.73-10.397 18-20.5-13.33-9.667-26.67-19.333-40-29 8.79-10.287 18.12-20.12 28-29.5 3-2.503 6.34-4.503 10-6 4.13-.854 8.13-.52 12 1 9.63 8.467 19.97 15.967 31 22.5 22.94-7.318 45.94-14.485 69-21.5 12.08-3.846 24.41-5.846 37-6 28.43 18.058 56.77 36.392 85 55 4.95 3.306 10.28 5.806 16 7.5 13.2-8.932 27.54-15.765 43-20.5 38.68-10.25 78.01-13.916 118-11 11.18 1.105 22.18 3.105 33 6 4.45 1.39 8.45 3.556 12 6.5 16.01-6.506 28.51-17.173 37.5-32 13.84-26.361 22.51-54.361 26-84 .72-4.216 2.05-8.216 4-12 23.17-35.678 46.84-71.011 71-106 12.39-17.897 26.56-34.397 42.5-49.5 14.59-12.508 30.26-13.841 47-4 17.69 12.055 35.02 24.388 52 37 4.16 54.784 10.66 109.284 19.5 163.5 3.92 26.17 11.59 51.17 23 75 4.93 8.554 12.1 14.387 21.5 17.5 7.74 1.346 15.41 3.012 23 5 9.83 4.5 17 11.667 21.5 21.5 22.7 23.03 45.03 46.364 67 70 .67 3.333.67 6.667 0 10-8.58 61.065-13.75 122.399-15.5 184 36.17-3.523 71.17 1.31 105 14.5 32 13.831 63 29.498 93 47 12.12 6.316 24.45 12.149 37 17.5.54 12.748 1.37 25.415 2.5 38 15.85 7.342 31.69 14.842 47.5 22.5 7.44 2.171 14.77 1.838 22-1 5.49-3.491 10.32-7.657 14.5-12.5 29.47 10.101 58.97 20.101 88.5 30-.96 1.575-1.62 3.242-2 5-47.77 76.83-104.77 146.66-171 209.5-95.86 88.29-201.86 162.29-318 222-104.52 53.43-211.52 101.1-321 143-144.22 54.63-287.89 110.63-431 168-123.88 50.95-244.55 108.28-362 172-36 20.33-71.33 41.66-106 64-32.57 22.36-60.4 49.52-83.5 81.5-27.31 43.18-34.31 89.51-21 139 9.5 32.34 22.84 63.01 40 92 22.44 36.43 46.44 71.76 72 106 51.15 65.48 101.15 131.82 150 199 38.23 67.02 70.9 136.69 98 209 24.55 64.95 40.21 131.95 47 201 4.75 56.28-2.25 110.94-21 164-9.67 25.01-22.67 48.01-39 69-.48.95-.65 1.95-.5 3-67.33 61.84-145.99 103.01-236 123.5-13.76 2.25-27.43 4.08-41 5.5-10.86.01-21.53.68-32 2h-146c-2.13-.81-4.46-1.31-7-1.5-11-58.73-21.17-117.89-30.5-177.5-5.16-35.81-16.49-69.47-34-101-.38-25.83-.21-51.67.5-77.5.13-11.57-.37-23.07-1.5-34.5-18.4-10.79-37.24-20.95-56.5-30.5-4.29-1.49-8.62-2.82-13-4-45.69-4.47-91.35-9.14-137-14-87.07-54.06-174.4-107.73-262-161-4.35-.24-8.68.1-13 1-25.47 4.95-50.47 11.62-75 20-4.76.81-9.42.48-14-1-4-2.67-8-5.33-12-8-24.41-22.41-49.41-44.08-75-65-28.47-21.32-56.3-43.49-83.5-66.5-3.91-59.61-6.57-119.28-8-179 10.35-7.02 17.02-16.68 20-29 1.92-13.66 1.92-27.33 0-41-2.98-13.41-6.15-26.74-9.5-40-43.35 2.83-86.68 6-130 9.5-11.64.88-22.97 3.21-34 7-96.34 59.5-192.34 119.5-288 180-96.01.11-192.01-.72-288-2.5-11 .17-22 .33-33 .5l-1.5 1.5c-1.87-2.31-2.87-4.97-3-8-.33-4.67-.67-9.33-1-14 .11-66.67.44-133.34 1-200-25.24 17.7-51.07 34.54-77.5 50.5-14.11 8.39-28.78 15.72-44 22-11.96 4.41-24.29 7.07-37 8-26.67.67-53.33.67-80 0-14.33-25.67-28.67-51.33-43-77-35.91-12.47-71.58-25.64-107-39.5-41.42-73.17-82.587-146.5-123.5-220 .405-9.01 1.239-18.01 2.5-27 45.245-27.09 72.745-66.76 82.5-119 3.907-21.15 5.407-42.49 4.5-64 .951 1.42 1.284 3.09 1 5 8.198-2.1 16.2-4.77 24-8v356h98c1-49.16 1.33-98.5 1-148h90c27.57 48.8 54.9 97.8 82 147 35.17 1.33 70.5 1.33 106 0-.12-.61-.46-.94-1-1-31.07-56.47-62.4-112.8-94-169 45.46-26.53 72.96-65.87 82.5-118 8.02-43.61 5.68-86.61-7-129-22.01-60.43-64.51-97.26-127.5-110.5-11.28-1.83-22.61-3.16-34-4-53.33-.5-106.67-.67-160-.5 3.03-11.77 6.53-23.44 10.5-35 1.12-2.75 2.62-5.25 4.5-7.5 3.71-.37 7.04-1.71 10-4 30.8-20.79 62.13-40.79 94-60 16.69-9.51 34.36-16.51 53-21 65.51-13.23 130.84-27.23 196-42 8.04-.72 16.04-.39 24 1 15.46 5.4 29.79 12.9 43 22.5 31.37-155.48 60.2-311.48 86.5-468 1.1-10.31 1.93-20.65 2.5-31 .62-5.801-.55-11.134-3.5-16-4.58-2.038-9.08-4.205-13.5-6.5-8.74-9.869-14.24-21.369-16.5-34.5-2.29-13.712-4.79-27.379-7.5-41-17.5-7.828-33-18.494-46.5-32-4.2-7.134-5.54-14.8-4-23 6.61-23.932 9.94-48.265 10-73 4.65-5.413 10.49-8.913 17.5-10.5 30.74-5.748 61.41-11.748 92-18 2.37-6.657 4.21-13.491 5.5-20.5 5.2-30.936-7.8-44.936-39-42-17.13 1.433-34.3 2.433-51.5 3-5.91-.01-11.74-.344-17.5-1-.5-40.332-.67-80.665-.5-121 83.68 4.334 167.35 9.001 251 14 2.67-.333 5.33-.667 8-1-2.5-7.984-4.16-16.151-5-24.5-.28-5.153 1.72-9.153 6-12 27.05-9.349 53.72-19.683 80-31 12.67-6 25.33-12 38-18 3.76-.738 7.43-.405 11 1 10.05 12.592 20.21 25.092 30.5 37.5 12.05 15.776 20.05 33.443 24 53 .33 20.333.67 40.667 1 61 .31.808.81 1.475 1.5 2 10.85-1.288 20.85 1.212 30 7.5 4.67 3.667 9.33 7.333 14 11 17.23 17.14 34.23 34.474 51 52 4.55 4.197 9.88 5.53 16 4 22.94-6.203 45.94-12.203 69-18 10.24-2.18 20.57-2.847 31-2 16.91 2.93 25.08 13.097 24.5 30.5 108.83-84.833 217.67-169.667 326.5-254.5-3.92-1.313-7.92-2.313-12-3-25.8-1.955-51.47-4.955-77-9-8.93-1.194-16.77-4.694-23.5-10.5-2.1-3.258-1.77-6.258 1-9 .67-9.333.67-18.667 0-28-1.57-11.57-8.07-18.736-19.5-21.5-6.18-4.203-10.02-10.036-11.5-17.5-3.65-27.9-4.49-55.9-2.5-84-8.03.022-16.03-.478-24-1.5-17.18-2.996-30.35-11.829-39.5-26.5-7.67-16-15.33-32-23-48-2.03-2.529-3.86-5.196-5.5-8 22.29-1.939 44.63-2.439 67-1.5 1.33.333 2.67.667 4 1l39 33c4.56 3.445 9.56 6.112 15 8 48.96 8.494 97.96 16.994 147 25.5 1.33-.167 2.67-.333 4-.5 9.24-8.565 17.74-17.732 25.5-27.5 6.2-6.532 12.7-12.699 19.5-18.5 26.01-21.198 54.17-24.365 84.5-9.5 6.99-2.106 13.82-4.606 20.5-7.5 9.57-5.756 19.24-11.256 29-16.5z" style="opacity:1;fill:#00be93;fill-opacity:1"/></g><g id="g212" style="fill:#00be93;fill-opacity:1"><g id="g64" style="fill:#00be93;fill-opacity:1"><path id="path62" d="M1011.5 1726.5v75c-12.445-6.87-18.779-17.54-19-32 2.27-16.2 8.6-30.53 19-43z" style="opacity:1;fill:#00be93;fill-opacity:1"/></g><g id="g76" style="fill:#00be93;fill-opacity:1"><path id="path74" d="M1109.5 1738.5c32-.17 64 0 96 .5 42.32 4.99 67.15 28.49 74.5 70.5 2.82 22.12.82 43.78-6 65-13.47 29.84-36.64 46-69.5 48.5-31.66.5-63.33.67-95 .5v-185z" style="opacity:1;fill:#00be93;fill-opacity:1"/></g></g></g><g id="g206" style="fill:#008e90;fill-opacity:1"><g id="g4" style="fill:#008e90;fill-opacity:1"><path id="path2-5" d="M2722.5 187.5v1c-9.76 5.244-19.43 10.744-29 16.5-6.68 2.894-13.51 5.394-20.5 7.5-30.33-14.865-58.49-11.698-84.5 9.5-6.8 5.801-13.3 11.968-19.5 18.5-7.76 9.768-16.26 18.935-25.5 27.5-1.33.167-2.67.333-4 .5-49.04-8.506-98.04-17.006-147-25.5-5.44-1.888-10.44-4.555-15-8l-39-33c-1.33-.333-2.67-.667-4-1-22.37-.939-44.71-.439-67 1.5 1.64 2.804 3.47 5.471 5.5 8 7.67 16 15.33 32 23 48 9.15 14.671 22.32 23.504 39.5 26.5 7.97 1.022 15.97 1.522 24 1.5-1.99 28.1-1.15 56.1 2.5 84 1.48 7.464 5.32 13.297 11.5 17.5 11.43 2.764 17.93 9.93 19.5 21.5.67 9.333.67 18.667 0 28-2.77 2.742-3.1 5.742-1 9 6.73 5.806 14.57 9.306 23.5 10.5 25.53 4.045 51.2 7.045 77 9 4.08.687 8.08 1.687 12 3-108.83 84.833-217.67 169.667-326.5 254.5.58-17.403-7.59-27.57-24.5-30.5-10.43-.847-20.76-.18-31 2-23.06 5.797-46.06 11.797-69 18-6.12 1.53-11.45.197-16-4-16.77-17.526-33.77-34.86-51-52-4.67-3.667-9.33-7.333-14-11-9.15-6.288-19.15-8.788-30-7.5-.69-.525-1.19-1.192-1.5-2-.33-20.333-.67-40.667-1-61-3.95-19.557-11.95-37.224-24-53-10.29-12.408-20.45-24.908-30.5-37.5-3.57-1.405-7.24-1.738-11-1-12.67 6-25.33 12-38 18-26.28 11.317-52.95 21.651-80 31-4.28 2.847-6.28 6.847-6 12 .84 8.349 2.5 16.516 5 24.5-2.67.333-5.33.667-8 1-83.65-4.999-167.32-9.666-251-14-.17 40.335 0 80.668.5 121 5.76.656 11.59.99 17.5 1 17.2-.567 34.37-1.567 51.5-3 31.2-2.936 44.2 11.064 39 42-1.29 7.009-3.13 13.843-5.5 20.5-30.59 6.252-61.26 12.252-92 18-7.01 1.587-12.85 5.087-17.5 10.5-.06 24.735-3.39 49.068-10 73-1.54 8.2-.2 15.866 4 23 13.5 13.506 29 24.172 46.5 32 2.71 13.621 5.21 27.288 7.5 41 2.26 13.131 7.76 24.631 16.5 34.5 4.42 2.295 8.92 4.462 13.5 6.5 2.95 4.866 4.12 10.199 3.5 16-.57 10.35-1.4 20.69-2.5 31-26.3 156.52-55.13 312.52-86.5 468-13.21-9.6-27.54-17.1-43-22.5-7.96-1.39-15.96-1.72-24-1-65.16 14.77-130.49 28.77-196 42-18.64 4.49-36.31 11.49-53 21-31.87 19.21-63.2 39.21-94 60-2.96 2.29-6.29 3.63-10 4-1.88 2.25-3.38 4.75-4.5 7.5-3.97 11.56-7.47 23.23-10.5 35h-36v89c-10.4 12.47-16.73 26.8-19 43 .221 14.46 6.555 25.13 19 32v13c-7.8 3.23-15.802 5.9-24 8 .284-1.91-.049-3.58-1-5-.538-54.83-20.538-101-60-138.5-31.544-24.86-67.544-38.52-108-41-66.999-.5-133.999-.67-201-.5v533h99v-147c37.686.41 75.353-.09 113-1.5 24.705-2.84 48.038-10.01 70-21.5-1.261 8.99-2.095 17.99-2.5 27 40.913 73.5 82.08 146.83 123.5 220 35.42 13.86 71.09 27.03 107 39.5 14.33 25.67 28.67 51.33 43 77 26.67.67 53.33.67 80 0 12.71-.93 25.04-3.59 37-8 15.22-6.28 29.89-13.61 44-22 26.43-15.96 52.26-32.8 77.5-50.5-.56 66.66-.89 133.33-1 200 .33 4.67.67 9.33 1 14 .13 3.03 1.13 5.69 3 8l1.5-1.5c11-.17 22-.33 33-.5 95.99 1.78 191.99 2.61 288 2.5 95.66-60.5 191.66-120.5 288-180 11.03-3.79 22.36-6.12 34-7 43.32-3.5 86.65-6.67 130-9.5 3.35 13.26 6.52 26.59 9.5 40 1.92 13.67 1.92 27.34 0 41-2.98 12.32-9.65 21.98-20 29 1.43 59.72 4.09 119.39 8 179 27.2 23.01 55.03 45.18 83.5 66.5 25.59 20.92 50.59 42.59 75 65 4 2.67 8 5.33 12 8 4.58 1.48 9.24 1.81 14 1 24.53-8.38 49.53-15.05 75-20 4.32-.9 8.65-1.24 13-1 87.6 53.27 174.93 106.94 262 161 45.65 4.86 91.31 9.53 137 14 4.38 1.18 8.71 2.51 13 4 19.26 9.55 38.1 19.71 56.5 30.5 1.13 11.43 1.63 22.93 1.5 34.5-.71 25.83-.88 51.67-.5 77.5 17.51 31.53 28.84 65.19 34 101 9.33 59.61 19.5 118.77 30.5 177.5 2.54.19 4.87.69 7 1.5h-2745c-.167-820.33 0-1640.67.5-2461 13.89-204.613 98.057-373.446 252.5-506.5 121.058-99.715 260.392-154.382 418-164 599.67-.5 1199.33-.667 1799-.5z" style="opacity:1;fill:#008e90;fill-opacity:1"/></g><g id="g8" style="fill:#008e90;fill-opacity:1"><path id="path6-8" d="M2722.5 188.5v-1h2704v1010c-2.24-.29-4.24.04-6 1-14.46 1.79-28.79 4.29-43 7.5-5.78.9-11.45.57-17-1-1.82-1.8-2.98-3.97-3.5-6.5-4.54-19.81-9.54-39.48-15-59-5.1-9.88-11.44-18.88-19-27-20.72-20.39-41.72-40.39-63-60-14.1 9.09-27.93 18.59-41.5 28.5-.95.48-1.95.65-3 .5-.47-11.33-.97-22.66-1.5-34-.57-1.99-1.74-3.49-3.5-4.5-80.85-26.43-160.85-55.098-240-86-15.32-5.441-30.82-10.274-46.5-14.5-1.75.248-2.58 1.248-2.5 3-.67.333-1.33.667-2 1 .38-1.758 1.04-3.425 2-5-29.53-9.899-59.03-19.899-88.5-30-4.18 4.843-9.01 9.009-14.5 12.5-7.23 2.838-14.56 3.171-22 1-15.81-7.658-31.65-15.158-47.5-22.5-1.13-12.585-1.96-25.252-2.5-38-12.55-5.351-24.88-11.184-37-17.5-30-17.502-61-33.169-93-47-33.83-13.19-68.83-18.023-105-14.5 1.75-61.601 6.92-122.935 15.5-184 .67-3.333.67-6.667 0-10-21.97-23.636-44.3-46.97-67-70-4.5-9.833-11.67-17-21.5-21.5-7.59-1.988-15.26-3.654-23-5-9.4-3.113-16.57-8.946-21.5-17.5-11.41-23.83-19.08-48.83-23-75-8.84-54.216-15.34-108.716-19.5-163.5-16.98-12.612-34.31-24.945-52-37-16.74-9.841-32.41-8.508-47 4-15.94 15.103-30.11 31.603-42.5 49.5-24.16 34.989-47.83 70.322-71 106-1.95 3.784-3.28 7.784-4 12-3.49 29.639-12.16 57.639-26 84-8.99 14.827-21.49 25.494-37.5 32-3.55-2.944-7.55-5.11-12-6.5-10.82-2.895-21.82-4.895-33-6-39.99-2.916-79.32.75-118 11-15.46 4.735-29.8 11.568-43 20.5-5.72-1.694-11.05-4.194-16-7.5-28.23-18.608-56.57-36.942-85-55-12.59.154-24.92 2.154-37 6-23.06 7.015-46.06 14.182-69 21.5-11.03-6.533-21.37-14.033-31-22.5-3.87-1.52-7.87-1.854-12-1-3.66 1.497-7 3.497-10 6-9.88 9.38-19.21 19.213-28 29.5 13.33 9.667 26.67 19.333 40 29-2.27 10.103-8.27 16.936-18 20.5-13.71 4.156-27.71 5.489-42 4-11.05-.453-22.05-1.453-33-3-25.58-4.183-51.25-7.85-77-11-11.38-.856-22.71-.522-34 1-6.87 1.352-12.37 4.852-16.5 10.5-4.21 13.953-12.37 24.787-24.5 32.5-3.56 1.408-7.22 2.408-11 3-13.18.65-26.34.484-39.5-.5-5.66-.177-11.16.656-16.5 2.5-2.16 1.457-3.99 3.29-5.5 5.5-2.53 5.251-4.86 10.584-7 16-.83.833-1.67 1.667-2.5 2.5-11.47-.824-22.97-1.658-34.5-2.5-13.28-2.18-23.62 2.154-31 13-2.31 7.855-3.98 15.855-5 24-1.74 6.992-5.58 12.492-11.5 16.5-4.67 2-9.33 4-14 6-13.64 1.345-26.31-1.655-38-9-8.94-5.273-17.6-10.94-26-17-25.15-20.819-51.15-40.486-78-59-1.63-.494-3.3-.66-5-.5.17-6.687.67-13.354 1.5-20 4.83-23.958 9.33-47.958 13.5-72-15.55 5.478-28.72 2.144-39.5-10-4.42-5.842-8.09-12.176-11-19-5.98-14.456-11.81-28.956-17.5-43.5 1.22-6.667 3.06-13.167 5.5-19.5 10.8-26.071 19.8-52.738 27-80 2.49-5.657 5.49-10.99 9-16 10.59-11.506 18.92-24.506 25-39 4.64-15.35 4.47-30.683-.5-46 1.57-2.62 1.24-4.953-1-7-4.29-2.709-8.95-4.542-14-5.5-7.98-1.164-15.98-2.164-24-3-99.67-.5-199.33-.667-299-.5z" style="opacity:1;fill:#008e90;fill-opacity:1"/></g><g id="g72" style="fill:#008e90;fill-opacity:1"><path id="path70" d="M716.5 1738.5c31.335-.17 62.668 0 94 .5 42.855 4.52 68.022 28.02 75.5 70.5 4.415 27.02.415 52.69-12 77-9.809 15.67-23.643 26.17-41.5 31.5-8.207 2.2-16.54 3.7-25 4.5h-91v-184z" style="opacity:1;fill:#008e90;fill-opacity:1"/></g><g id="g88" style="fill:#008e90;fill-opacity:1"><path id="path86" d="M5426.5 1852.5c.17 265.33 0 530.67-.5 796-14.23 207.63-100.4 378.13-258.5 511.5-119.87 96.76-257.2 149.76-412 159-213 .5-426 .67-639 .5-1.47-.85-2.3-2.18-2.5-4-1.48-8.57.52-16.24 6-23 10.2-10.19 22.04-18.02 35.5-23.5 26.79-10.65 52.95-22.48 78.5-35.5 2.8-5.73 4.8-11.73 6-18 2.23-15.69 4.56-31.35 7-47 4.49-8.99 9.49-17.66 15-26 6.5-10.5 15-19 25.5-25.5 9.44-5.09 19.27-5.93 29.5-2.5 3.29.47 5.96-.53 8-3 34.34-103.35 67.67-207.01 100-311 6.62-22.21 14.62-43.87 24-65 2.46-6.09 6.63-10.59 12.5-13.5 5.35-.53 10.69-.36 16 .5-4.52 22.15-7.86 44.48-10 67 47.11 15.59 94.11 31.59 141 48 5.56-11.46 11.4-22.79 17.5-34 3.23-5.29 7.06-10.12 11.5-14.5 3.31-2.33 6.98-3.49 11-3.5 16.89 2.43 33.89 3.6 51 3.5 14.03 18.57 27.7 37.4 41 56.5 51.31 2.74 102.64 5.08 154 7 7.69.16 14.69-2.01 21-6.5 31.44-20.06 64.11-38.06 98-54 15.33-6.67 31.33-9.83 48-9.5 2.5-34.45 3.83-68.95 4-103.5.28-19.55-.55-39.05-2.5-58.5-2.41-32.1-14.25-60.1-35.5-84 40.02-48.19 79.86-96.52 119.5-145 .37-9.06-.29-18.06-2-27-8-48.69-16-97.35-24-146-2.33-16.27-3.33-32.6-3-49 8.42-3.42 15.42-8.75 21-16 13.53-21.4 23.53-44.4 30-69 6.74-25.02 13.74-50.02 21-75 2.61-7.89 6.28-15.22 11-22 1.41-1.29 2.91-2.45 4.5-3.5 37.75-10.19 75.41-20.86 113-32 8.03-8.36 16.36-16.36 25-24 28.49-24.32 56.15-49.49 83-75.5z" style="opacity:.99900004;fill:#008e90;fill-opacity:1"/></g></g><g id="g108"><path id="path106" d="M1387.5 2168.5c.54.06.88.39 1 1-35.5 1.33-70.83 1.33-106 0 35.17.33 70.17 0 105-1z" style="opacity:1;fill:#dcf5f0"/></g><g id="g112" style="fill:#ffbf82;fill-opacity:1"><path id="path110" d="M4080.5 2665.5c25.03 35.36 46.53 73.02 64.5 113 15.31 34.26 25.98 69.93 32 107 10.02 69.95-6.48 132.62-49.5 188-11.2 10.7-22.87 20.87-35 30.5-88.3 65.61-187.63 102.11-298 109.5 12.48-16.28 23.98-33.28 34.5-51 23.68-40.69 46.35-82.03 68-124 62.8-123.59 123.96-247.92 183.5-373z" style="opacity:1;fill:#ffbf82;fill-opacity:1"/></g><g id="g116" style="fill:#c87568;fill-opacity:1"><path id="path114" d="M3754.5 2769.5c40.37 66.76 68.54 138.43 84.5 215 4.15 24.84 5.82 49.84 5 75-2.33 61.86-22.83 116.53-61.5 164-10.53 10.7-21.53 20.86-33 30.5-39.14 28.74-81.81 50.91-128 66.5-117.69 38.31-237.69 47.47-360 27.5-22.74-3.85-44.74-10.18-66-19-6.05-2.69-11.72-5.85-17-9.5-1-.67-2-1.33-3-2 13.57-1.42 27.24-3.25 41-5.5 90.01-20.49 168.67-61.66 236-123.5 25.05-22.41 48.55-46.41 70.5-72 77.03-115.84 154.2-231.51 231.5-347z" style="opacity:.99800002;fill:#c87568;fill-opacity:1"/></g><g id="g120"><path id="path118" d="M3175.5 3317.5c1 .67 2 1.33 3 2h-35c10.47-1.32 21.14-1.99 32-2z" style="opacity:1;fill:#29938f"/></g><g id="g196"><path id="path38" d="M1612.0391 1628.4258c-2.8244-.014-5.6713.01-8.5391.074-61.61 6.22-112.45 32.89-152.5 80-31.66 40.34-51.66 86.01-60 137-11.86 74.14-1.2 144.81 32 212 32.99 61.64 83.49 100.81 151.5 117.5 108.16 15.67 188.99-23.83 242.5-118.5 27.82-56.44 39.49-116.1 35-179-3.03-48.09-16.37-93.09-40-135-45.7541-75.6012-112.4071-113.6262-199.9609-114.0742zm3.6562 104.9062c50.1469.6305 87.9172 23.3555 113.3047 68.168 20.38 39.64 28.04 81.64 23 126-3.09 39.3-16.76 74.3-41 105-37.24 39.3-81.74 50.8-133.5 34.5-28.1-12.1-49.93-31.27-65.5-57.5-21.12-40.45-29.45-83.45-25-129 3.32-41.35 18.32-77.68 45-109 20.34-20.75 44.84-33.42 73.5-38 3.4531-.1544 6.8522-.21 10.1953-.168z" style="opacity:1;fill:#fefefe"/><g id="g44"><path id="path42" d="M2668.5 2169.5h-329v-531h321v98h-223c-1 38.5-1.33 77.16-1 116h198v95h-198c-.33 41.5 0 82.84 1 124h231c-.17 14.67 0 29.34.5 44 10.81-30.11 21.81-60.11 33-90 48.98 42.66 105.81 60.16 170.5 52.5 40.27-7.57 56.77-31.41 49.5-71.5-3.98-8.98-9.82-16.48-17.5-22.5-8.94-6.31-18.61-11.31-29-15-30.72-9.46-61.38-19.13-92-29-24.52-8.58-46.52-21.25-66-38-23.72-23.45-36.89-51.95-39.5-85.5-6.28-50.22 6.38-94.89 38-134 26.67-27.76 59.17-44.59 97.5-50.5 60.41-9.1 117.41.9 171 30 6.14 3.97 12.14 8.14 18 12.5.33.67.67 1.33 1 2-9.8 30.74-19.8 61.41-30 92-30.82-22.22-65.15-35.72-103-40.5-21.72-2.66-42.72.01-63 8-28.53 15.58-38.36 39.08-29.5 70.5 5.83 12.5 15 21.67 27.5 27.5 8.44 4.22 17.1 7.88 26 11 31.25 8.86 62.25 18.53 93 29 73.47 28.72 105.63 82.55 96.5 161.5-9.49 71.5-48.99 117-118.5 136.5-77 16.77-148.67 4.1-215-38-6.46-4.79-12.63-9.96-18.5-15.5-.5 17-.67 34-.5 51z" style="opacity:1;fill:#fefefe"/></g><path id="path54" d="M1936.5098 1637.3359c-18.336-.01-36.6723.049-55.0098.1641v533c73.35.44 146.68-.06 220-1.5 46.31-4.67 87.31-21.67 123-51 43.07-39.95 69.57-89.11 79.5-147.5 12.78-67.61 6.45-133.27-19-197-35.96-78.92-97.12-123.76-183.5-134.5-54.9825-1.095-109.9824-1.6491-164.9902-1.6641zm68.4922 101.0996c24.502-.0004 49.003.1895 73.498.5645 63.59 5.92 104.76 39.42 123.5 100.5 11.23 42.66 11.23 85.33 0 128-15.17 54.5-50.33 87.67-105.5 99.5-5.97.96-11.97 1.46-18 1.5h-98v-330c8.1675-.043 16.3346-.064 24.502-.064z" style="opacity:1;fill:#fefefe"/><path id="path50-0" d="M1087.5 1637.4355c-13.3335.0002-26.6675.022-40 .065h-36v533h98v-149c30.5-.33 60.84 0 91 1 27.57 48.8 54.9 97.8 82 147 35.17.33 70.17 0 105-1-31.07-56.47-62.4-112.8-94-169 45.46-26.53 72.96-65.87 82.5-118 8.02-43.61 5.68-86.61-7-129-22.01-60.43-64.51-97.26-127.5-110.5-11.28-1.83-22.61-3.16-34-4-39.9975-.375-79.9997-.565-120-.5645zm46 101c24-.0004 48 .1895 72 .5645 42.32 4.99 67.15 28.49 74.5 70.5 2.82 22.12.82 43.78-6 65-13.47 29.84-36.64 46-69.5 48.5-31.66.5-63.33.67-95 .5v-185c8-.043 16-.064 24-.064z" style="clip-rule:evenodd;opacity:1;fill:#fefefe;fill-rule:evenodd;image-rendering:optimizeQuality;shape-rendering:geometricPrecision;text-rendering:geometricPrecision"/><path id="path46-5" d="M667.75196 1637.4375c-16.75013.0002-33.50171.02-50.25196.062v533h99v-147c37.686.41 75.35299-.09 113-1.5 24.705-2.84 48.038-10.01 70-21.5 45.245-27.09 72.745-66.76 82.5-119 3.907-21.15 5.407-42.49 4.5-64-.538-54.83-20.538-101-60-138.5-31.544-24.86-67.544-38.52-108-41-50.24925-.375-100.49767-.563-150.74804-.5625zm72.25 101c23.50054-.0005 46.99904.1875 70.49804.5625 42.855 4.52 68.022 28.02 75.5 70.5 4.41499 27.02.41499 52.69-12 77-9.809 15.67-23.643 26.17-41.5 31.5-8.207 2.2-16.54 3.7-25 4.5h-91v-184c7.83375-.043 15.66844-.062 23.50196-.062z" style="clip-rule:evenodd;opacity:1;fill:#fefefe;fill-rule:evenodd;image-rendering:optimizeQuality;shape-rendering:geometricPrecision;text-rendering:geometricPrecision"/></g></g></svg>