<svg xmlns="http://www.w3.org/2000/svg" id="svg47" version="1.1" viewBox="0 0 800.00006 499.99999"><defs id="defs3"><path id="a" fill="#000" fill-opacity="1" fill-rule="nonzero" stroke="none" stroke-width="1.10789025" d="M463.07734 170.54007v1.39927c0 5.59927-3.75021 9.24423-8.71577 9.24423-5.28242 0-9.42926-4.12024-9.42926-9.37607 0-5.25584 4.17343-9.42815 9.40267-9.42815 3.30151 0 6.33824 1.68953 8.00229 4.46369l-4.12024 2.45508c-.79215-1.42585-2.24459-2.24458-3.93523-2.24458-2.64121 0-4.51576 2.03409-4.51576 4.78055 0 2.69439 1.87455 4.6487 4.59553 4.6487 1.90114 0 3.11649-.95057 3.5386-2.11385h-4.83262v-3.82887zm20.25501 1.24162c0-2.53596-1.82248-4.4371-4.17342-4.4371-2.40302 0-4.25209 1.90114-4.25209 4.4371s1.84907 4.4371 4.25209 4.4371c2.35094 0 4.17342-1.90114 4.17342-4.4371m-13.60268 0c0-5.22924 4.17343-9.40266 9.42926-9.40266 5.20376 0 9.37718 4.17342 9.37718 9.40266 0 5.22924-4.17342 9.40266-9.37718 9.40266-5.25583 0-9.42926-4.17342-9.42926-9.40266m42.17816-8.98023-7.02624 17.96001h-4.83262l-6.94647-17.96001h5.20265l4.17343 11.06672 4.22549-11.06672zm11.16986 4.38448v2.6678h5.28242v3.85546h-5.28242v2.6678h8.00229v4.38503h-12.8626v-17.96001h12.8626v4.38392zm20.25558 3.27514h3.38128c1.13448 0 1.84796-.79214 1.84796-1.66405 0-.89739-.68689-1.68953-1.84796-1.68953h-3.38128zm2.03409 4.09365h-2.03409v6.20751h-4.78055v-17.96111h8.68919c3.51312 0 6.2064 2.50937 6.2064 5.83747 0 2.29776-1.24084 4.1989-3.14309 5.20376l3.98841 6.91988h-5.36108zm31.69153-11.75327v17.96001h-4.09365l-7.23674-9.45474v9.45474h-4.78055v-17.96001h4.06706l7.26333 9.48133v-9.48133zm20.57228 8.98023c0-2.53596-1.82248-4.4371-4.17231-4.4371-2.40413 0-4.2532 1.90114-4.2532 4.4371s1.84907 4.4371 4.2532 4.4371c2.34983 0 4.17231-1.90114 4.17231-4.4371m-13.60157 0c0-5.22924 4.17342-9.40266 9.42926-9.40266 5.20265 0 9.37607 4.17342 9.37607 9.40266 0 5.22924-4.17342 9.40266-9.37607 9.40266-5.25584 0-9.42926-4.17342-9.42926-9.40266m42.52009-4.67475v3.03784h5.28242v4.06706h-5.28242v6.54985h-4.86031v-17.96001h12.86371v4.30526zm20.12366.079v2.6678h5.28242v3.85546h-5.28242v2.6678h8.0034v4.38503h-12.86371v-17.96001h12.86371v4.38392zm27.36063 4.59575c0-2.61573-1.95432-4.30526-4.80714-4.30526h-2.1914v8.61052h2.1914c2.85282 0 4.80714-1.69064 4.80714-4.30526m5.01764 0c0 5.14947-4.12025 8.98056-9.58769 8.98056h-7.3154v-17.96112h7.3154c5.46744 0 9.58769 3.83109 9.58769 8.98056m11.83104-4.59575v2.6678h5.28242v3.85546h-5.28242v2.6678h8.0034v4.38503h-12.86371v-17.96001h12.86371v4.38392zm20.2552 3.27514h3.38128c1.13559 0 1.84796-.79214 1.84796-1.66405 0-.89739-.68578-1.68953-1.84796-1.68953h-3.38128zm2.03409 4.09365h-2.03409v6.20751h-4.78055v-17.96111h8.68919c3.51312 0 6.20751 2.50937 6.20751 5.83747 0 2.29776-1.24195 4.1989-3.14309 5.20376l3.98841 6.91988h-5.36219zm25.85492-1.16184-1.79589-4.41162-1.79589 4.41162zm1.7693 4.27867h-7.1049l-1.24084 3.08991h-5.04533l7.50153-17.96001h4.59552l7.58019 17.96001h-5.01763zm25.24749-1.53188v4.62212h-12.651v-17.96001h5.0974v13.33789z"/></defs><g id="g15530" fill-opacity="1" fill-rule="nonzero" stroke="none" transform="translate(-322.40799 -2111.4549) scale(3.49452)"><path id="path3488" fill="#232c77" stroke-width="1.57467699" d="M316.58896 707.12196h-5.00591v-62.72411h5.00591z"/><path id="path3490" fill="#fff" stroke-width="1.57467699" d="M311.58935 707.12196h-89.18183v-62.72411h89.18183z"/><path id="path3492" fill="#232c77" stroke-width="1.57467699" d="M222.40436 707.12196h-62.7241v-62.72411h62.7241z"/><path id="path3504" fill="#fff" stroke-width="5.50273418" d="M350.3418 167.79297c-1.0015.54476-1.72759 1.20999-2.13477 1.67773-1.56278 1.78839-2.32864 1.57841-5.4707 1.3418-2.26165-.17612-3.35547 1.67969-3.35547 1.67969s-1.63544-.5779-2.85156-.42383c-2.98247.36853-2.62891 2.17773-2.62891 2.17773.60532-.42923 2.16166-.72 3.05859-.64843 1.74436.13209 2.00835.51742 1.98633 1.11718-.03145 1.13359-2.38867.83594-2.38867.83594s.18313.29775 1.22852.58399c1.13907.3138 3.07626-.20306 3.31836 1.84375.20338 1.78286-.24947 5.46334-.99219 7.09765-.33023.73186-1.06099 1.63477-2.00195 2.38867v.00391l-.00391.00195c-.15411.12091-.31882.24374-.47852.35938-.7539.59431-2.51532 2.63601-3.26367 4.52344.18696-1.21061.61075-2.45492 1.7168-3.6875-.96295.4677-1.44167.45733-2.4707.28125 0 0-3.64295-.61225.29687-7.22657 0 0 3.24195-5.46379-2.78906-5.6289-6.03646-.16494-18.01548 1.88185-41.88086 20.94336-4.72134 3.68133-10.87943 8.42409-6.30664 8.69922 0 0 2.11387.00175 5.55859-2.05079h.01367c1.07303-1.07851 9.4141-9.44343 11.49414-9.74609 0 0-2.28898 1.83797-9.70117 9.85547 2.28915.26943 9.62526.77634 17.67578-4.75391 0 0 .70896-.45737 3.17969-1.60742-.40155.29179-.79182.63362-1.16601 1.00781l-1.79883 1.8418 2.53125-.44531c.62181-.10449 1.13844-.16549 1.61718-.1875l.82422 1.10156.375 3.04883c.1597.70435.35312 1.52455.65039 2.29492.56253 1.45424 2.06229 3.8944 3.97071 6.07227l-9.75586 6.55468-.56641 2.4375c.3997.69335.477 2.26676.39453 3.15821l-.00195 49.1289c0 3.80969.24463 7.07147.62109 9.8418-1.75241-.97339-3.77393-2.34869-6.07031-4.07617.31-.16433 1.42588-.77012 1.88281-1.45313.37301-.55028-.35823-.90915.02149-1.76758.12101-.28064 1.2864-1.60584 1.39648-1.91406.29165-.81995-.52165-.6936-.43359-1.66211.02753-.28613.55469-2.00374.55469-2.30078.00548-.79794-.60495-.19821-.83594-1.05664-.07129-.29165-.16558-.58773-.28125-.88476-.2254-.6163.26387-1.26566-.12696-1.89844-.09906-.17053-1.01101-.31358-1.12109-.47852-.45121-.65484-.62213-1.97639-1.27148-2.63672-.29714-.29703-.99062.06657-1.33203-.23047-.41826-.36318-.8739-.72618-1.36914-1.08398-.35218.49524-.95377 1.0229-1.23438 1.49609-.23661.39059-1.00667.259-1.19922.63868-.40002.8254-.14703 2.12345-.36719 2.88281-.055.1981-.87589.62164-.91992.80859-.16508.72637.50771 1.18343.49024 1.84375-.00699.31919-.0038.62174.01367.93555.055.87492-.71004.50195-.45703 1.25586.10108.28297 1.13704 1.74916 1.25781 2.00781.28714.65389-.05378.90227-.06445 1.24805-.50838-.41429-1.00071-.81033-1.5293-1.2461-3.03378-2.50824-4.91767-7.17166-5.98438-12.41406.36658.20054.79214.39791 1.13868.43555.53378.06052.52805-.60441 1.29297-.64844.2421-.01118 1.64011.3222 1.90429.28516.69863-.09359.2962-.63292 1.03906-.93555.2146-.08792 1.65653-.34722 1.8711-.46289.57257-.30263-.08296-.51186.44531-.99609.18724-.17075.36294-.34093.53906-.53907.36319-.39054 1.01823-.27413 1.33203-.79687.08247-.13758-.15278-.85282-.07031-.9961.29714-.56677 1.18725-1.18897 1.42383-1.90429.10445-.32468-.41814-.68712-.33008-1.04492.10484-.44024.19816-.90831.27539-1.39258-.48972-.07164-1.09371-.30911-1.54492-.33008-.36871-.02202-.56155-.62459-.9082-.62109-.74839.01649-1.59573.6915-2.22852.81836-.16508.03302-.77202-.40146-.92578-.35743-.58879.14307-.67006.81003-1.1543 1.04102-.23112.11018-.45145.23643-.66601.36328-.62178.36308-.62691-.3255-1.07813.13672h-.00195c-.17057.17612-.83586 1.48598-.98437 1.66211-.50073.62188-.90157.07721-1.19336.72656-.10973.24762-.19346 1.68334-.28711 1.91992-.10289.27646-.26146.40243-.42188.5-.43926-3.16098-.62229-6.40376-.5957-9.44726.55908.31283 1.25127.63609 1.79883.69336.78141.08806.76504-.87012 1.87109-.94141.35763-.02202 2.39325.46759 2.76758.41797 1.01802-.13758.43869-.92308 1.51172-1.36328.31366-.12657 2.40494-.50135 2.71875-.67188.83648-.42371-.11964-.73708.65625-1.4414.26415-.24763.52763-.50003.77539-.77539.52278-.57779 1.47494-.41996 1.93164-1.17383.1265-.19811-.21555-1.23209-.10547-1.44141.4402-.8254 1.73874-1.72754 2.07422-2.76758.14858-.47871-.60537-1.00032-.47852-1.51757.1538-.6438.29227-1.3097.40235-2.01954-.71537-.09903-1.59678-.44901-2.2461-.48046-.54476-.03851-.81958-.91633-1.32031-.90235-1.08956.01653-2.32094 1.00188-3.23437 1.18359-.23662.04952-1.12387-.57838-1.34961-.51757-.85291.2146-.97342 1.1782-1.67774 1.51367-.33568.16518-.66026.33586-.96289.51758-.89145.53361-.91938-.46746-1.57422.21484-.24213.24762-1.21512 2.14597-1.42969 2.41016-.59358.73774-1.08727.35911-1.48242.70508.10067-.6064.21261-1.17785.33203-1.70313.67061-2.94517 1.24837-5.82272 1.76954-8.52148.19886.18062 1.06826.9538 1.78124 1.13085.56678.14307.6485-.56666 1.4629-.50585.25862.01649 1.70571.57812 1.98632.57812.75936 0 .40773-.63309 1.24414-.84766.23662-.06604 1.81084-.13823 2.0586-.2207.65323-.23113-.01718-.55979.62109-1 .22016-.1431.42997-.31411.64453-.49023.44573-.37402 1.12194-.15425 1.5293-.66602.10309-.13206-.03808-.91922.06641-1.0625.40721-.56129 1.44045-1.08845 1.78711-1.82031.15966-.33565-.34055-.79364-.19727-1.16797.17619-.45121.34562-.92377.49414-1.43555-.51174-.14855-1.12635-.48447-1.59961-.57812-.38516-.07153-.50791-.74335-.87109-.79297-.79794-.09351-1.79884.50702-2.49219.55664-.17609.01104-.75916-.53505-.92969-.51758-.64383.08254-.82512.77114-1.38086.94727-.25866.08247-.51173.1804-.7539.27929-.71533.30263-.62708-.42923-1.17188 0h-.00195c-.20911.1596-1.1054 1.45279-1.28711 1.62891-.6273.59627-.96764-.04967-1.375.59961-.15411.24214-.45136 1.7612-.57227 1.99219-.14002.26037-.31122.37287-.48242.45508.58045-3.14545.84295-4.71721.98242-5.5625.32464-.26244.67532-.58695.84375-.89258.25332-.46771-.34568-.70389-.10351-1.40821.07705-.22564.9027-1.37138.96875-1.61914.17609-.67133-.46053-.50025-.45703-1.28711 0-.22564.30221-1.62279.28125-1.85937-.05501-.63286-.49585-.11544-.73243-.78125-.08247-.22561-.17144-.45199-.2871-.67773-.21177-.47875.12742-1.03425-.22461-1.50196-.09359-.1265-.82459-.18182-.92383-.30273-.39621-.48972-.62779-1.52479-1.1836-1.99805-.2531-.21456-.77132.12081-1.06836-.09375-.35766-.25314-.73768-.51067-1.15039-.76367-.24762.41822-.68804.88456-.875 1.27539-.15959.32485-.77557.28224-.89648.5957-.26978.68234.02192 1.69854-.09375 2.32031-.03302.14859-.64895.54512-.66992.69922-.08254.58876.48376.9089.51172 1.43164.01642.24763.03913.49026.07617.73243.10431.69876-.53399.44956-.27539 1.02734.09358.22008 1.02469 1.31029 1.13476 1.51367.37427.68234-.27138.84302.21289 1.34375.16509.19262 1.43743.79822 1.61915.96875.54633.50622.13239.99505.57812 1.28125.4816.31552 1.26541.41815 1.66797.46094-.54906 1.86417-1.36575 4.49777-2.31055 7.46289.00015-.00926.00388-.02012.00391-.0293.00552-.84738-1.02318-.72082-1.22656-1.89843-.06605-.38517.22389-2.62919.125-3.02539-.26961-1.07869-1.0385-.3588-1.63282-1.46485-.17605-.32464-.82645-2.52018-1.04101-2.83398-.55025-.85308-.77563.20929-1.62305-.53907-.28613-.2531-.59333-.50028-.91797-.74804-.67685-.48976-.61813-1.53547-1.47656-1.93164-.23113-.10442-1.29299.38049-1.53516.28125-.93544-.37968-2.0456-1.66213-3.20117-1.9043-.52278-.11004-1.00196.76465-1.57422.69336-.69887-.09365-1.437-.16218-2.21289-.19922-.02201.77589-.28509 1.76635-.24804 2.4707.02746.58327-.88575.98578-.81446 1.51953.14855 1.16661 1.34386 2.37686 1.64649 3.33985.07719.24762-.48482 1.27096-.40235 1.50195.33565.89142 1.37654.91395 1.82227 1.63477.2146.33572.43503.66053.66601.96875.68273.90246-.39717 1.04067.40625 1.66797.29714.23112 2.44374 1.0499 2.75196 1.24804 1.05628.67686.2755 1.38625 1.33203 1.73828.39069.13664 2.64571.02354 3.02539.11719 1.15557.29165.94784 1.30834 1.80078 1.36914 1.19408.08803 3.23437-.84765 3.23437-.84765s.16672-.35596.26368-.54688c-.91116 2.83301-1.92666 5.98124-1.94532 6.03906-.20214.82745-.37522 1.65964-.53125 2.49414-.0391-.1962-.10715-.3728-.22461-.51562-.27536-.33023-.78174-.51117-1.33203-.47266-.19814.25301-.82622 1.09331-1.06836 1.92969-.04403.15376-.0774.2982-.08789.44141-.03704.28061-.04897 1.05067.31446 1.32031.12685.08247.45001.27529.88476.14844.48807-.13241.92764-.64113 1.2793-1.45118-1.72194 10.88581.07167 21.72462.61719 24.57032-1.1996-.50629-2.44352-.77017-3.74219-1.05078-.80974-.17218-1.64192-.36026-2.48438-.60352.31657-.19627 1.49789-.9454 1.95704-1.71875.36902-.62733-.44573-.97414-.0879-1.93164.11553-.31363 1.292-1.85007 1.39649-2.18555.26411-.91346-.60762-.71017-.57617-1.7832.01097-.31919.4819-2.22223.46094-2.54688-.04952-.86394-.6664-.18614-.97461-1.0996-.09921-.31364-.22009-.62822-.35743-.94727-.29004-.6548.20475-1.40413-.25195-2.06445-.12657-.18179-1.12243-.28064-1.25977-.45118-.52823-.68786-.79266-2.12362-1.54101-2.79492-.34669-.30227-1.0745.14416-1.4707-.16406-.47327-.37423-.98912-.73838-1.54493-1.10156-.35214.56125-.98049 1.17749-1.25586 1.7168-.2256.44013-1.07219.34777-1.2539.77148-.39069.92447-.02816 2.34331-.2207 3.17969-.04952.22015-.9115.7327-.93946.94726-.14306.79242.61925 1.25928.63672 1.97461.01048.34669.03523.68903.07227 1.01367.11556.9575-.74234.59381-.41211 1.40821.11556.29714 1.34696 1.82681 1.49023 2.10742.48399.95746-.39683 1.15021.23047 1.87109.23113.26412 1.95483 1.15014 2.19141 1.38672.45999.45138.40261.87627.44531 1.23828-1.60468-.68078-3.34834-1.59383-5.10156-2.98828-.93464-.74366-1.9346-1.4427-2.83203-2.04883-.15521-.27413-.32576-.53699-.51563-.70312-.06888-.06332-.1363-.09354-.20508-.11328.24803-.20153.50962-.44397.63672-.67578.20932-.3742-.26899-.56105-.08203-1.11133.06605-.1871.71991-1.09039.76953-1.27735.13755-.53927-.36677-.40556-.36328-1.02734.00559-.18161.24404-1.28375.22656-1.4707-.04403-.50625-.39117-.09246-.57812-.61524-.06605-.18143-.14409-.36294-.22656-.53906-.18172-.37971.09896-.8156-.18165-1.19531-.07705-.09925-.64799-.13744-.73046-.23633-.31919-.38517-.48983-1.20383-.93555-1.57813-.19811-.17053-.61667.09854-.84766-.0664-.28064-.20925-.58383-.41843-.91406-.61133-.19258.32468-.53898.69791-.6875 1.01172-.12657.25838-.61036.21575-.71484.46875-.20863.53375.02138 1.34227-.07227 1.83203-.02754.12657-.50638.4337-.52734.56055-.06067.45673.37942.71071.40039 1.1289.01677.19811.03259.39117.06054.57813.08247.55049-.41822.36358-.21484.82031.0715.17057.81038 1.0278.89844 1.1875.29179.54476-.21027.67219.16406 1.06836.06083.06569.31622.20629.56641.34375-.15988.09186-.34393.1801-.69336.09766-.22564-.05508-1.56838-.68367-1.81055-.72071-.64928-.09355-.2381.46272-.95898.55078-.24763.02761-.49532.07734-.75391.12696-.53375.11567-1.00711-.36327-1.56836-.1211-.14841.06605-.37297.78028-.52148.85157-.58331.28616-1.68412.27497-2.29493.7207-.27536.20359-.06145.8047-.34765 1.04687-.33569.29714-.68703.62062-1.03906.97266.36318.34666.72618.88798 1.08398 1.17383.28606.24213.09271.8403.37891 1.0332.6273.42902 1.72761.37449 2.3164.63867.15422.06605.40813.77123.55664.83203.56681.22009 1.02323-.27138 1.5625-.17773.25311.04403.50677.07278.75977.09375.72619.06056.33081.63263.97461.51172.23661-.03848 1.5555-.71459 1.78125-.77539.78137-.20897.79969.45603 1.41601.10937.23113-.13761 1.1442-1.25906 1.35352-1.40234.63827-.42948 1.03934.10429 1.43555-.27539.22194-.21317.41101-.55991.57226-.90039 5.06884 4.91167 9.19308 6.33899 12.00391 6.96875.54044.11956 1.14389.3619 1.81836.7168-.1415.08104-.31343.14274-.59766.11914-.27516-.01653-1.9108-.49373-2.1914-.49024-.75391.00549-.18682.57308-.99024.79883-.28064.07199-.56119.1709-.8418.27539-.5833.22575-1.19943-.23714-1.80468.14258-.15394.09903-.28562.95074-.44532 1.06641-.61632.42919-1.87161.60118-2.48242 1.22851-.28585.28065.06577.92368-.21484 1.25391-.34669.40173-.68203.8256-1.02344 1.29882.47871.31916.98434.87449 1.43555 1.13868.37416.2146.25938.94079.61719 1.11132.78686.37427 2.03076.12164 2.74609.3086.18706.055.59429.81647.78125.85351.68237.14859 1.11643-.49598 1.73828-.47851.30811 0 .60087-.00833.88672-.0293.83645-.06604.48389.66183 1.19922.41406.26415-.09354 1.65067-1.09526 1.89844-1.21093.84738-.3851.97376.37896 1.62304-.13282.24214-.19261 1.08951-1.64507 1.29883-1.83203.65484-.60374 1.20431-.06598 1.58398-.57226.21764-.28655.37641-.72199.50196-1.14258 2.6799 2.2126 5.99992 5.15722 10.29687 8.98047l1.35352 1.20508c2.30492 2.04599 4.18178 3.37793 5.76562 4.25781-.00764-.00044-.04263-.01181-.04882-.01172-.68783 0-.16888.52904-.90626.73242-.2531.06605-.50703.15306-.76562.25196-.53375.20407-1.09977-.21971-1.64453.12695-.14876.08802-.26493.88095-.4082.97461-.56129.40169-1.70667.56018-2.27344 1.12695-.253.26415.06745.86508-.18555 1.16211-.31363.36867-.62315.76413-.92578 1.19336.4292.30262.89733.82033 1.30469 1.0625.34145.1981.2359.8696.56054 1.0293.71537.34665 1.85493.11516 2.50977.29687.17057.044.54041.75007.71094.78711.62178.1431 1.02307-.45302 1.58984-.43555.28065.00699.54414-.00051.80274-.02148.76481-.05518.44638.61246 1.0957.38672v-.00195c.24213-.08803 1.50667-1.01244 1.73242-1.11133.77589-.35225.89239.35795 1.49219-.11524.09886-.08113.32024-.41429.54492-.76172.57174 1.30331 1.05039 2.1159 1.23047 2.38282 4.69935 8.22654 10.76337 13.91578 18.02148 16.92578 6.01997 2.49274 11.41799 2.49414 14.00977 2.49414h.33008c5.72835 0 20.92796-.00079 32.02148-19.41992.29828-.44607 1.39891-2.23671 2.44922-5.73243.06203-.13301.11704-.27276.14648-.42382.00778-.03888.00651-.07651.01172-.11524.0307-.10798.06129-.22493.0918-.33594.33175.04442.74021.02402 1.21289-.06445-.23225.32189-.42312.67959-.51758 1.06836-.37416 1.57376.88672 3.44531.88672 3.44531 2.17908 2.96597 5.7104 2.99843 8.89649 1.22657 2.58077-1.44726 4.8164-1.20508 4.8164-1.20508s-2.09795-.79186-3.75976-3.2461c-1.35743-2.00496-3.21589-3.36052-5.27149-3.55859 1.66968-1.05208 3.58587-2.48915 5.70899-4.375l1.34765-1.20508c.26571-.23615.44451-.39128.70313-.62109-.18412 1.00789.1241 2.02553.91797 2.63476.33564.25891.73317.41771 1.13476.47852.33569-.56125 1.39116-2.18554 2.69531-2.81836.16495-.3852.65435-1.74367-.24804-2.58008-.43345-.29098-.93396-.42331-1.44336-.41601 4.15528-3.67277 7.43758-6.50783 9.80664-8.21289-.18819.24653-.35718.50875-.46094.80273-.56129 1.57931.5293 3.64453.5293 3.64453 1.9094 3.26863 5.53522 3.70256 9.00195 2.2168 2.80638-1.1996 5.07422-.70508 5.07422-.70508s-2.07513-1.03999-3.50586-3.73633c-1.54457-2.91114-4.09938-4.76465-7.08594-4.2832.25056-.09219.49232-.17018.72071-.2207 2.821-.63204 6.96516-2.06865 12.0625-7.02344-.02544.07108-.06047.13917-.07813.21289-.30818 1.30967.73242 2.86133.73242 2.86133 1.7994 2.44871 4.72714 2.47475 7.35742 1 2.14061-1.18863 3.98438-.99024 3.98438-.99024s-1.7447-.6492-3.10938-2.67968c-1.66756-2.45801-4.23048-3.73819-6.89648-2.46876.3031-.33509.6071-.67254.91602-1.0332l.9082-1.06445c1.73884-1.26565 1.77674-3.34072.74219-5.22266-.84187-1.52424-.69336-2.83398-.69336-2.83398s-.46685 1.23266-1.91407 2.20117c-1.78143 1.18859-2.71261 3.0545-1.74414 4.98047 0 0 .64426 1.16488 1.57422 1.39062.20441.0496.41524.0473.62305.02149-.08807.05539-2.89216 1.76307-5.16406 3.5664-1.48662 1.18185-2.97542 2.02948-4.375 2.67969 3.25667-2.05654 3.8627-5.90076 2.55078-9.73437-1.15005-3.36215-.38086-5.9336-.38086-5.9336s-1.38691 2.29516-4.64453 3.71485c-4.01146 1.73883-6.53164 5.12866-5.27149 9.34375 0 0 .88154 2.55332 2.66993 3.3457 1.07996.4787 2.35379.27164 3.24023.03516-.59598.22255-1.16523.41636-1.69141.58203-1.00698.31919-1.99134.52904-2.94336.73242-1.30964.28064-2.54807.54456-3.74218 1.05078.53389-2.78455 2.2733-13.2189.73437-23.84961.09059.56299.2699 1.14333.62695 1.60938 1.04004 1.37023 3.41602 1.60742 3.41602 1.60742 3.86291.22008 6.25802-2.63633 6.92383-6.42774.54476-3.07601 2.23242-4.73828 2.23242-4.73828s-2.04529 1.18376-5.1543.88672c-3.82992-.36318-7.22503 1.17666-8.04492 4.95703 0 0-.15458.88043-.03711 1.875-.21729-1.45631-.49265-2.91687-.8457-4.35937-.0234-.07725-1.12188-3.47586-2.20313-6.85156.31937.65072.76613 1.29947 1.38868 1.72265 1.68383 1.15005 4.4414.50195 4.4414.50195 4.42976-1.21609 6.05253-5.33772 5.38672-9.85546-.53379-3.67033.73828-6.17383.73828-6.17383s-1.85538 2.11314-5.4707 2.95508c-4.44033 1.03315-7.67854 4.05213-7.19922 8.60937-1.04166-3.27829-1.96658-6.26402-2.42187-7.88476.05774.01943.11242.04825.17187.0625 1.30968.33016 2.87109-.70899 2.87109-.70899 2.46525-1.79387 2.51453-4.72657 1.05079-7.37891-1.18332-2.15157-.97266-4.00195-.97266-4.00195s-.66745 1.74436-2.70899 3.10352c-2.51458 1.67834-3.82918 4.30933-2.45898 7.0332 0 0 .41746.73543 1.08398 1.31641.04513.27498.50568 3.06443 1.25196 7.07617-.76982-1.60708-2.51347-2.37907-4.52539-2.35352-2.01403.0275-3.26367-.84179-3.26367-.84179s.99717 1.14349 1.19531 3.14648c.24213 2.45972 1.63421 4.4138 4.12695 4.47461 0 0 1.53024-.01639 2.26758-.8418.4102-.4624.53382-1.11684.57226-1.625.26009 1.35632.53143 2.69075.83594 4.16797-.62731-.69972-1.6126-.8811-2.31836-.41406-.56681.53379-.25913 1.37738-.15429 1.625.81443.39083 1.47482 1.41341 1.68945 1.76562.25859-.03704.49671-.13717.7168-.29687.23164-.17846.39095-.41664.49218-.67969.20118.93929.37992 1.8558.59375 2.79492.39478 1.73144.68399 3.94706.84571 6.41407-.91018-3.61749-4.26844-5.33007-8.1836-5.27344-3.41173.04399-5.54101-1.41992-5.54101-1.41992s1.69577 1.94268 2.03125 5.33789c.41819 4.18206 2.77815 7.50098 7.00976 7.60547 0 0 2.60242-.03946 3.85157-1.43165.58925-.6648.83872-1.59164.94335-2.38671.08203 3.05121-.03263 6.35933-.42382 9.61328-.06034-.29849-.12305-.5293-.12305-.5293-.99597-2.60261-3.57707-3.3455-6.27344-2.67969-2.19005.53383-3.76953-.10547-3.76953-.10547s1.38233 1.00754 2.09766 3.14258c.88041 2.6248 2.89365 4.40891 5.62304 3.84766 0 0 1.41423-.35496 2.10157-1.26367-.98407 5.95403-2.95276 11.39647-6.32617 14.18554-.83816.69096-1.62053 1.32951-2.39063 1.95313 1.76836-2.27327 1.31659-5.2033-.47656-7.72266-1.62583-2.27266-1.64063-4.38672-1.64063-4.38672s-.51655 2.05288-2.64062 3.86329c-2.61932 2.23411-3.74188 5.37152-1.83789 8.27148 0 0 1.24296 1.72711 2.76172 1.91406.67553.08261 1.36084-.14217 1.92382-.41601-5.02217 3.97168-8.55179 6.31636-11.32226 6.96289.44788-2.9532.75195-6.4845.75195-10.70899v-48.96875l-.01367-.15429c-.07143-.89698.00088-2.47072.4082-3.16407l-.5664-2.4375-9.48633-6.36914c.83081-.88877 1.66503-1.83556 2.48437-2.80468.44021-.50626.81968-.95267 1.11133-1.27735 1.6123-1.74988 4.0122-2.57538 6.2793-2.14062l.99609.19921 1.46289.70508c1.9425-3.87943-1.43656-6.76466-3.04883-7.92578-1.1281-.74835-1.71679-1.7539-1.71679-1.7539 2.61379 1.20511 3.35742 1.68359 3.35742 1.68359v.00391c.02796-.0035.04297-.00391.04297-.00391 8.15505 5.60174 15.61247 5.00664 17.76953 4.74805-7.41767-8.01751-9.69727-9.84961-9.69727-9.84961 2.21759.32464 11.57794 9.8283 11.60547 9.86133 3.32912 1.93697 5.35938 1.9375 5.35938 1.9375 4.57278-.27537-1.58884-5.01984-6.30469-8.70118l-.00781.00586c-23.86535-19.06147-35.84433-21.10844-41.88086-20.94336-6.03098.16494-2.79492 5.62891-2.79492 5.62891 3.94544 6.61431.29687 7.22656.29687 7.22656-2.76787.48424-5.23279-2.43879-6.44336-3.875 0 0-2.10271-2.60205-.97461-8.84765 0 0 4.29686 1.35355 4.8086-.42383.59431-2.014-2.38282-1.91016-2.38282-1.91016s3.27442-.35145 3.56055-2.31055c.31905-2.21765.90234-3.33398.90234-3.33398-1.55726 1.69484-4.8257 3.01935-6.35546 2.98633-1.52424-.03145-.23047-3.44336-.23047-3.44336zm-6.20508 4.51172h.01367c.07723 0 .13841.06011.16602.14258.02795.1541-.09939.45173-.42969.61132l-.00195.00586c-.30263.1597-.71569.23633-1.27149.23633-.02795.30263-.28166.54492-.58984.54492-.31381 0-.56588-.24867-.58789-.55664-.05487 0-.11.00401-.14844.02149-.16494.04403-.25986.11053-.32031.16015-.04963.03704-.0974.07032-.15821.07032l-.05078-.01368c-.04403 0-.09819-.04972-.10937-.12695-.02796-.14327.09256-.42867.43359-.59375.21456-.12091.52393-.18164.95313-.18164.1597 0 .3132.00206.47265.01953h.25391c.40732 0 .71434-.0261.91797-.0918.17612-.04403.25924-.11674.31445-.16601.03704-.03145.08177-.08203.14258-.08203zm-1.81445 15.58008c3.07052 1.56278 4.32025 4.64965 2.17968 7.68164-.42923.59983-1.53064 1.43612-1.25 2.28906.2918.88596 1.18361.80327 1.87696.33008.93548-.6273 1.87117-2.0528 1.54101-2.98828 1.18859 1.41971.88043 3.32343.51172 5.08984 2.49274-1.76085 5.44226-3.03689 8.58984-3.45508 1.72235-.22574 3.69169-.35737 5.41407-.11523 1.04003.15411 2.58033.35226 3.48828.9082-3.51625.71533-3.29067 2.679-3.34571 3.48242 5.30465 1.39218 8.02347-2.26793 9.41016-4.86523 1.74439 3.36766.72004 6.02012-1.70117 8.13867 4.99101-4.32516 11.27128-2.40943 13.13672.94726-2.65783-.51729-5.28791.47924-7.04883 2.38868-.72371.78712-1.9586 2.31248-3.35742 3.83008-.53352.55017-1.45313 1.07031-1.45313 1.07031-.01649.00548-2.05333 1.23242-6.82422 1.23242h-36.95507c-4.77086 0-6.27509-1.06651-6.28907-1.08399 0 0-.47801-.19727-1.24414-.91796-1.36876-1.51626-2.56576-3.19952-3.33984-4.59961-.01398-.0035-.01408-.01799-.01758-.02149-.13209-.23658-.24169-.45724-.35156-.67187-.01398-.03145-.03039-.06481-.04297-.09766-.11567-.23099-.21023-.45814-.28711-.65625-.27537-.70435-.45015-1.44588-.61523-2.17773 1.27668 1.35915 4.83122 3.45544 5.21093.23633.27537-2.24513-3.17509-4.40197-5.12304-4.84766-1.33169-.30263-2.52573-.21487-3.85743.01367 4.16557-4.23714 9.29943-1.74437 13.49805 3.3457 1.82138 2.20655 6.87869 1.9157 5.51953-1.88671-.74286-2.11852-2.92337-3.68742-5.02539-4.01758-.03704 0-.09375-.00391-.12695-.00391.02796-.01747.0506-.01747.07226 0 .01871.00095.03601.00296.05469.00391 5.40522.27439 9.76245.55283 12.91016 5.3457-.04403-.92447-.19931-1.84507-.44141-2.70898-.97944-3.3842-.72513-7.28995 3.72656-7.9668-1.85443 1.26012-.13759 3.7847 1.62305 2.15039.985-.90798 1.28753-1.46853.96289-2.64063-.24217-.85842-.36883-2.13441-1.02929-2.76171zm-23.39454 28.16211c1.28211.80891 3.57035 1.46289 7.60938 1.46289h36.95703c4.03903 0 6.32134-.65398 7.60352-1.46289l7.30273 4.9082c-.37391 1.51875-.29095 3.08073-.25391 3.60351v48.88672c0 6.26227-.69296 10.89534-1.5 14.18946-2.10526-.3907-4.18327-.73593-6.23046-1.03711-1.85448-.80593-3.04017-1.99471-3.24024-2.20508-.38523-.54476-3.17936-4.347-7.15234-5.9043-3.5823-1.41419-4.72673-4.00705-5.27149-5.83398-.40169-1.32614-1.06238-2.10717-1.96484-2.34375-.90246-.2146-1.8378.148-2.80078 1.10547-.68234.67678-1.2106.42923-1.41992.26953-1.63981-1.59029-7.86846-5.87718-19.49024 5.54101-3.26925 3.20846-10.13683 8.31038-12.27929 9.87891-.63514.11527-1.15213.21402-1.64649.3125l-1.95508-2.45703-.09375-.01563c-.09613-.01253-.19969-.03881-.29883-.05664-.53193-2.98656-.91992-6.76491-.91992-11.44336v-48.88672c.03879-.52278.12235-2.08476-.25195-3.60351l7.29687-4.9082zm18.8418 5.17773-3.31641 2.00977c-.04962.02096-.08816.04305-.12695.07031l-.01758.01367c-.17053.13209-.30888.2919-.375.48437-.23098.57779.0989 1.26684.75391 1.82813l-.57812 1.45703s-.50599 1.09524-3.4004-.03125c-2.89995-1.1281-2.27148-3.74805-2.27148-3.74805s-10.83665 2.4874-5.21289 13.38282c0 0 1.31101-2.35463 4.21094-1.22657 2.89443 1.13359 2.48633 2.38868 2.48633 2.38868l-2.47657 6.30664 2.67578.17968 6.94532-17.79687c.86391.04403 1.56739-.24816 1.79297-.82031.10448-.26943.07784-.55443-.02735-.85157l.01758.01368-1.08008-3.66016zm-.19726 6.41406-5.91993 15.25977h28.51954l4.41992-15.25977h-27.01953zm9.39453 2.10742h7.14648l-3.16406 3.78516 4.42578-1.83789-2.52148 7.14844-3.13672-1.83789.50195 3.78711h-7.14258l3.16992-3.78711-4.42968 1.83789 2.51953-7.14844 3.13672 1.83789-.50586-3.78516zm50.91211 3.48829c-.35149.02061-.69815.14094-.99805.36914-.81443.6273-.96425 1.81593-.32031 2.65234.00325.01301.01719.01645.02734.02539.16006-.4016.49929-1.01673 1.19141-1.29687h.01367c.3743-.14328.72646-.13744.99609-.09376-.11567-.42371-.14895-.96705.11524-1.42382-.31916-.17333-.67391-.25304-1.02539-.23242zm-1.29102 3.04687-.00195.00195h.0039l-.00195-.00195zm-112.82031-1.59961c-.23526-.03372-.5102.00707-.81836.19141-.40732.23658-.66606.55567-.78711.96289-.30263 1.04552-.15942 1.96989.39648 2.34961.50073.20932 1.43595 1.41485 2.07422.97461.23658-.28586.41336-.61642.52344-.9961.34141-1.16105-.02764-2.60279-.80859-3.22461-.14852-.11549-.34483-.22409-.58008-.25781zm114.58984.62891c-.12814.00743-.26535.03445-.4043.08984h-.0039c-.73189.29179-1.00762.83661-1.03516 1.29883.04962.42371.22081.86908.52344 1.25976.73186.96299 1.91925 1.266 2.66211.69922.45121-.34665.6385-.94264.54492-1.56445-.14327-.53931-.8033-1.28616-1.53515-1.63281l-.00196-.00196-.05469-.02734c-.01048 0-.3109-.1434-.69531-.12109zm-118.61133 2.18554c-.27178.02924-.53869.12598-.78906.31446-.1597.11567-.26483.26272-.31445.42773-.24217.84194.74986 2.17389 1.5918 3.10938-.1321-.4292-.14369-.89592-.00391-1.36914h-.00195c.253-.87496.95795-1.48671 1.75586-1.61329-.56541-.44156-1.42294-.95684-2.23829-.86914zm2.62696 1.32032c-.72938-.0421-1.44965.48892-1.68555 1.30273-.27537.92996.18097 1.88745 1.01172 2.14063.83096.24217 1.72841-.31271 1.99805-1.24805.26942-.92996-.18094-1.893-1.01172-2.14063-.10318-.03027-.20831-.04867-.3125-.05468zm83.16211 3.81054-7.92383 6.11914c.68237 1.20512 3.10309 5.38655 5.50781 7.25196l8.19922-3.64258-5.7832-9.72852zm-82.42578.06055c-.4292.11567-1.1625.24191-1.86133.06055-.30822.09924-1.66163.60024-1.92578 1.51367h.00195c-.06605.22574-.06224.46173.01953.71484.28585.88593.55656 1.32159.88672 1.49219.2862.13209.6882.0876 1.33203-.16016.46771-.17612.88555-.85312 1.19922-1.93164.18696-.64931.29803-1.29324.34766-1.68945zm44.06835 1.93164c-.49593-.0014-.91109.03712-1.07617.1582-.33023.24217-.3951.37317-.40625.40039 0 0 .04227.04973.15235.12696.16494.12091.96426.29267 1.49804.4082 1.33166.2862 2.0301.45039 2.28321.89063.09889.1597.11541.34207.06054.52343l-.03125.08789c-.19814.6163-.82026 2.49234.62696 4.42383l-.79688.59961c-.22574-.30822-.40823-.59931-.55664-.89648-.49524.16494-.9458.28013-1.375.35156v.05469l.00977-.00977c.01747.06081.43313 1.45816 3.28906 1.02344l2.61523-2.40039c-.33547-.5723-.96349-1.77166-1.24414-3.00977-.43468-1.89846-.95719-2.55217-2.07422-2.57422-.45124-.01747-.93531-.05113-1.41406-.08398-.48698-.03302-1.06461-.07282-1.56055-.07422zm-2.24023 1.1875c-.11567.03145-.23083.09775-.29688.19141-.08806.11567-.09375.30316-.01757.55078.19814.64935 2.68657 1.20029 3.84765 1.27734.05487-.30262.13069-.56129.18555-.7539-.33023-.12651-1.05536-.29159-1.51758-.39063-.95197-.19814-1.55194-.343-1.87109-.56836-.13734-.09889-.24202-.2018-.33008-.30664zm-.54688 1.34375c-.14851.33547-.2815.78596-.07812 1.03906.51114.61553 3.29522 1.12006 4.03125.72657l.01367.01562c0-.20338.01337-.37894.02735-.56055-.93542-.07128-3.15225-.43933-3.99415-1.2207zm-.09374 1.70508c-.01398.22574.02849.48531.1875.65039.83089.85843 2.94877.68778 3.96679.45117-.02795-.1597-.05389-.32006-.07031-.46875-.24776.07723-.56226.10938-.91992.10938-1.05653 0-2.4212-.30192-3.16406-.74219zm32.52148.49609-2.4668 1.91016c-.59427.39621-4.52211 2.99359-7.39453 4.28125.02796.28585.16004 1.49083.57813 2.97656 1.57375-.61081 6.67368-2.79018 10.67968-6.8457-.62185-.96847-1.11584-1.81602-1.39648-2.32227zm-31.91602 1.0625c.08247.17053.20417.34189.40235.49024.45121.33023 1.4139.57132 3.40039-.07227-.04403-.11567-.08266-.23145-.1211-.33594-.43475.0989-1.13408.20508-1.87695.20508-.61629 0-1.26545-.07254-1.80469-.28711zm9.21875.70313-2.46093 2.25586c.5393 1.43624 3.08223 7.75383 7.60546 11.30859.14852-.14852.35762-.35098.59961-.61523.38507-.46226 2.4048-2.97302 3.52735-6.14258.24217-.80891.42369-1.67746.51172-2.60742-1.49122-.26943-6.2174-1.33229-9.78321-4.19922zm-9.41992.20508-5.23828 13.36132c-.253.64935.07742 1.39691.72656 1.64453.65477.26419 1.39725-.06062 1.65039-.7207l5.09571-13.07422-2.23438-1.21093zm34.07813 1.20117c-4.2096 4.19859-9.38253 6.34942-10.94532 6.94922.5723 1.66733 1.50822 3.48926 3.02149 4.65039.02097-.01398.04305-.02717.07031-.04883 5.15053-3.73637 9.664-6.57127 11.25977-7.55078-1.23815-1.05653-2.43775-2.58029-3.40625-4zm-12.78321 3.41211c-.40735.14327-.78169.25222-1.08984.29101-.14328.70439-.34138 1.3878-.57227 2.03711-.84189 2.84496-2.35966 4.93963-3.44921 6.17774.68786.54476 2.33247 1.6289 4.59961 1.6289 1.4802 0 2.98834-.46705 4.49609-1.375-3.054-2.5973-3.8193-7.36755-3.98438-8.75976zm-2.74414 15.51172c1.45827.01341 2.84063.48025 4.02149 1.625.7979.70446 2.53041 1.21143 4.05468-.31836.53924-.53372.88043-.62757.9961-.59961.11004.02746.37972.28556.60547 1.04492 1.04004 3.45573 3.13176 5.76706 6.40039 7.05469 3.64282 1.42523 6.3013 5.23444 6.32226 5.27148.02726.0332.0548.05994.07227.08789.02266.02434.25544.24618.42383.41016-19.62377-2.38462-35.97252-.95255-45.29297.41406 3.08423-2.33166 7.17171-5.522 9.54687-7.85742 1.46167-1.43158 7.64153-7.18071 12.84961-7.13281zm57.71875 7.03515c-.56059-.03441-1.12851.08895-1.63476.36133.41829.73734.36859 1.60834.18164 2.28516.42371-.07688.99519-.094 1.58398.14257 0 0 .01018.00042.01367.00391 1.1107.43991 1.66798 1.42766 1.91602 2.06055.01383-.01122.0251-.01996.04102-.03906 1.01798-1.33166.79243-3.23056-.51172-4.22657-.47599-.36049-1.02926-.55348-1.58985-.58789zm-109.0957.02149c-.15297.00044-.30293.01465-.44531.04492-.4292.09365-.97341.37553-1.10547 1.19531-.08771.54476.00002 1.00722.27539 1.41992.70439 1.04004 1.63439 1.60132 2.38281 1.38672.56678-.28585 2.33348-.24267 2.41602-1.12305-.07723-.42367-.24302-.83122-.4961-1.21093-.6837-1.01592-1.95655-1.71599-3.02734-1.71289zm-9.94531.11523-8.73828 10.60352c8.42468 16.1065 22.00987 26.48643 31.35351 32.15429l9.56446-8.34375.84179-1.46875c-20.78384-9.8719-33.02148-32.94531-33.02148-32.94531zm126.73242.65625c-1.91493 3.3952-14.07686 23.84343-33.31445 32.81836l10.32812 9.00781c9.28311-5.62931 22.84783-15.9476 31.22852-31.83398l-8.24219-9.99219zm-111.24414 1.54492c-.50073 0-1.03991.31895-1.41406.8418.07723.36318.35304 1.54636.91992 2.38281.10448.15376.20855.28664.32422.40235.22015.23657.89609.8203 1.40234.69921.17053-.04962.58975-.19344.79883-.67187.24776-.56125.11976-1.36443-.38086-2.31641-.07723-.14851-.15351-.28088-.23633-.39648-.4127-.61629-.90229-.94141-1.41406-.94141zm102.7832.96289c-.61902-.03413-1.10089.19532-1.10351.19532l-.08789.04296c-1.17207.55025-2.21824 1.74547-2.44922 2.60938-.14307.99049.14243 1.93056.86328 2.48633 1.18862.90242 3.09248.41328 4.24805-1.10547.4843-.63282.76074-1.33716.83203-2.01953-.04407-.73186-.48382-1.60062-1.65039-2.06836-.22425-.08812-.44601-.12925-.65235-.14063zm-105.46289.89063c-.36534-.02098-.72921.06686-1.04492.27734-.325.2124-.54838.52478-.66602.88086v.00195c-.00043.00133-.00152.00259-.00195.00391-.04181.12801-.06628.26158-.08008.39844-.00417.03953-.00403.07914-.00586.11914-.00403.09891-.00088.19836.00977.29883.00547.05438.01163.10772.02148.16211.01585.08547.03969.16925.06641.2539.01932.06165.03523.123.06055.1836.05615.1348.12552.26793.21093.39453.09642.1459.2096.2704.33008.38476.02424.02285.0492.04294.07422.06446.11047.09574.22639.17865.34961.24804.01382.00771.02707.01607.04102.02344.29292.15638.60992.23593.92578.23438.00393-.00001.00778.00198.01172.00195l-.00196-.00195c.32489-.00336.64495-.08622.92578-.27344.8419-.55573 1.01416-1.76573.38672-2.70117-.39206-.58125-1.00438-.92011-1.61328-.95508zm-2.02344.51953c-1.08407.24217-2.68038.83636-2.75195 2.28906-.01747.22575.03758.42356.1543.59961.56129.83641 2.48705.9359 3.94531.88086-.47323-.19814-.90862-.53973-1.2168-1.00195-.59976-.88045-.61506-1.96964-.13086-2.76758zm4.68946 2.19922c-.21457.4677-.64815 1.22088-1.33594 1.70508-.13734.35203-.699 1.92637-.09375 2.83984.15376.22015.36803.39616.6543.51172 1.00149.39617 1.5956.49013 1.98632.30859.33548-.14851.59486-.54495.85352-1.29883.18696-.5558-.09405-1.41438-.82031-2.5039-.43472-.64383-.936-1.22137-1.24414-1.5625zm-15.15039.74414.74804 1.07226-2.90039 4.2754 5.0293-1.19922.74414 1.07422-6.57617 1.42382-.69336-.99609 3.64844-5.65039zm64.66601 2.26758c8.52025.09827 18.24655.84589 28.66016 2.75-.7565 2.05262-1.39204 3.02933-1.40039 3.04687l-.1211.17578c-10.04247 17.6363-23.24373 17.63672-28.87304 17.63672h-.33008c-5.15057 0-18.84105-.00042-28.89453-17.63672l-.09961-.1582c-.0151-.02374-.63331-.96427-1.375-2.95117 3.38252-.73745 15.42295-3.05948 32.43359-2.86328zm-60.79687 3.21875.70312.91797-4.91992 3.7539-.70313-.92383 4.91993-3.74804zm1.14257 1.52343c.62734.74836 1.24417 1.51991 1.87696 2.2793.91899 1.12803.66093 2.33753-.16992 3.02539-.65484.53928-1.55708.78824-2.49805.0293l-.43555 2.79883-.06054.04492-.88477-1.06836.45117-2.71289-.7168-.86328-1.60156 1.31445-.73633-.89648 4.77539-3.95118zm116.43165.20899c.80821.0048 1.59194.34441 2.19726.88086 1.18859 1.0675 1.74919 2.86178.31836 4.49609-1.43606 1.63305-3.27311 1.36009-4.5.29297-1.22158-1.07303-1.76599-2.93424-.35742-4.54101.70159-.80341 1.53358-1.13371 2.3418-1.12891zm.02734 1.11523c-.53239-.03167-1.09079.16078-1.57227.71094v.00195c-.95746 1.09501-.47338 2.32597.33008 2.98633.78693.65484 1.96438.95268 2.92188-.14258.96847-1.095.49602-2.23367-.25782-2.91601-.38244-.35218-.88948-.60895-1.42187-.64063zm-116.55664.27149-1.5293 1.25976 1.13867 1.375c.46771.57779 1.0523.50119 1.4375.19336.38506-.32464.55533-.88473.08204-1.45703v-.00195l-1.12891-1.36914zm3.56641 2.61914c1.22713 1.30415 2.25494 2.4114 3.47656 3.72656l-.78125.7207-1.33789-1.43164-3.75196 3.49414-.79296-.85742 3.7539-3.48828-1.33789-1.44727.77149-.71679zm108.59765.45312c.53239.00481 1.02933.23282 1.40625.61524.59431.60528.92538 1.49231.25391 2.48828l2.82226.17578.05469.06641-.98437.97265-2.74024-.20312-.79883.78711 1.45313 1.47461-.83008.82031-4.35937-4.4082c.69334-.68783 1.39912-1.37464 2.10351-2.0625.52-.51174 1.08676-.73138 1.61914-.72657zm-.06445 1.15039c-.25313-.00895-.52769.09208-.78906.35352l-1.27149 1.25 1.39649 1.4082 1.26171-1.25976c.53376-.5173.40707-1.09513.06055-1.44727-.17333-.17602-.40507-.29574-.6582-.30469zm-4.1875 2.16797 2.32226 2.66797c1.19887 1.38036.96689 2.82973-.20312 3.84766-1.12237.97236-2.6682 1.12654-3.89453-.28125l-2.32813-2.66992.88086-.76368 2.32227 2.66797c.73185.8419 1.59627.86942 2.32812.24219.73186-.63279.71393-1.47433.01953-2.2832l-2.32812-2.67383.88086-.75391zm-100.54688.31836.8418.79102-2.42578 2.58789c-.77037.80891-.70957 1.67204-.01367 2.33789.69883.65484 1.53925.56159 2.26562-.20899l2.4375-2.58007.8418.80273-2.4375 2.57422c-1.25418 1.33117-2.71033 1.24966-3.84375.17773-1.07303-1.01795-1.37994-2.54867-.09766-3.90234l2.43164-2.58008zm4.19336 3.92774c1.38121 1.12806 2.55313 2.08553 3.94532 3.22461l-.67188.82617-1.51758-1.24414-3.24804 3.97265-.90235-.73632 3.24805-3.97852-1.52539-1.23828.67187-.82617zm90.32422.78906 5.97461 3.21289-1.01172.78125-1.12305-.61523-2.57031 1.9746.29297 1.25391-1.00781.76563-1.56836-6.60352 1.01367-.76953zm.28711 1.4082.69336 2.79492 1.82617-1.40234-2.51953-1.39258zm-20.14258.13477-2.76172 2.14062 1.72657 2.05664c1.57931-.6823 2.85057-1.30941 3.76953-1.80468l-2.73438-2.39258zm-48.01562.14062-2.56446 2.23438c.92997.49524 2.20198 1.12201 3.78125 1.79883l1.5625-1.86524-2.77929-2.16797zm-18.31446.90039 3.79102 2.67578-.65625.92383-2.83789-2.00195-.82031 1.16601 2.73437 1.93165-.62109.88476-2.74024-1.93555-.80859 1.14454 2.83789 2.00195-.6543.93555-3.78515-2.66407c1.1831-1.68383 2.37195-3.37866 3.56054-5.0625zm13.89649 1.14453-5.7832 10.0918c2.50371 1.23259 18.2081 8.58984 34.2871 8.58984 16.38163 0 31.82814-7.35173 34.29883-8.58984l-5.78906-10.0918c-2.02504 1.23263-13.10213 7.48438-28.50977 7.48438-15.20408 0-26.4624-6.2628-28.5039-7.48438zm60.7832 5.0879 2.85156 4.98046c.04963.08807.06061.18822.03125.28711-.02795.08806-.09419.18058-.1875.22461-.03704.02097-1.32002.6835-3.51562 1.64649l6.90039 8.20898 7.13086 1.86524-1.40234-6.91602-11.8086-10.29687zm-64.55469.0039-11.80859 10.28906-1.40234 6.91797 7.13086-1.85937 4.39062-5.23242c.00182.0009.00404.003.00586.0039l2.51563-3.00976c-2.1938-.9402-3.4852-1.60004-3.53125-1.62305h-.00196c-.08737-.0442-.15222-.12818-.17968-.22656-.02796-.08806-.02117-.19683.03124-.2793l2.84961-4.98047zm8.66797.33399c.91343.34665 1.82253.68883 2.73047 1.04101 2.82839 1.08404 1.26556 5.17193-1.56836 4.08789l-1.63476-.63281-.6543 1.70508-1.08984-.42383 2.21679-5.77734zm45.40821 1.37109 1.72265 5.95312-1.11718.32032-1.25-4.32032-1.19336 3.14649-.21485.06641-2.64648-2.04688 1.2539 4.33008-1.12109.32031-1.72266-5.94922 1.28711-.37305 2.60352 2.02344 1.11719-3.09765 1.28125-.37305zm-44.70899.08398-.78711 2.04688 1.63477.62695c1.39766.53382 2.16794-1.51898.78125-2.05273l-1.62891-.6211zm4.45703.48243 1.12305.31835-1.38672 4.91993 3.0586.86328-.29102 1.04101-4.1875-1.18945 1.68359-5.95312zm4.17188 1.21679 1.13281.21875-.67187 3.47852c-.21981 1.09504.29162 1.79923 1.23242 1.98633.94652.18171 1.60733-.34706 1.8164-1.39258l.68164-3.47656 1.14063.21875-.68945 3.48828c-.35204 1.79387-1.62879 2.49245-3.16407 2.19531v.00195c-1.4527-.28585-2.51973-1.41529-2.16211-3.24219l.6836-3.47656zm27.12109.51563 3.84766 5.58593-1.25.23047-.72656-1.05078-3.17969.58399-.3086 1.24804-1.24414.23243 1.60743-6.59375 1.2539-.23633zm-19.25976.60351c.14438-.00353.28799.0013.42968.01368.96299.10448 1.93178.47826 2.29493 1.46874l-.96875.38086c-.17613-.36853-.72482-.76012-1.39063-.82617-.86391-.09365-1.31501.21946-1.35351.68164-.06081.53928.55525.74932 1.2871.91993 1.27113.2806 2.43179.74365 2.28321 2.21289-.13734 1.37568-1.42052 1.83676-2.78516 1.69921-1.26564-.12685-2.19004-.61144-2.53125-1.78906l1.01953-.40625c.20338.71536.88446 1.08314 1.63281 1.16016.73186.07129 1.44177-.11555 1.50782-.78125.0608-.58331-.52117-.88608-1.33008-1.05664-1.24363-.27537-2.37162-.73174-2.22852-2.10742.111-1.11224 1.12213-1.54556 2.13282-1.57032zm15.25976.10742.31446 3.53321c.16494 1.82144-.87563 2.84909-2.42188 2.99219-1.48024.13209-2.81185-.65372-2.98242-2.51368l-.31836-3.52734 1.1543-.09961.31445 3.52734c.09889 1.10605.78119 1.64467 1.74414 1.55665.96302-.08807 1.45292-.78136 1.35937-1.8379l-.31836-3.52734 1.1543-.10352zm-8.93554.31836c2.17358.01748 3.13584 1.5956 3.15234 3.19141 0 .70436-.19799 1.43747-.59961 2.00977l.73242.73242-.83203.8125-.74805-.74805c-.47319.30263-1.06093.45275-1.75976.44727-2.20661-.02097-3.16016-1.62955-3.16016-3.23633.0035-1.62327 1.03577-3.23104 3.21485-3.20899zm12.53906.36719-.65039 2.80078 2.26172-.41797-1.61133-2.38281zm-12.54688.67774c-1.45819-.01398-2.06408 1.15531-2.05859 2.19531.01398 1.01802.67653 2.11399 2.01367 2.125 1.40322.01398 2.08572-1.16222 2.05274-2.21875-.03705-1.00698-.54959-2.08507-2.00782-2.10156zm-30.6289 1.33203-2.54297 3.03711c1.76637.85294 2.8125 1.27148 2.8125 1.27148l1.61133-3.5332c-.68234-.28061-1.30857-.52777-1.88086-.77539zm61.48242.01367c-.47875.20932-.99077.42445-1.54102.64453l1.44141 3.16992c.42374-.17612 1.24892-.54471 2.37695-1.08398l-2.27734-2.73047z" transform="translate(92.261121 604.2195) scale(.28616)"/><g id="g15230" fill="#232c77" stroke-width="1.33333325" transform="translate(-346.65084 56.685848) scale(1.181)"><g id="g15192"><path id="path3832" d="M488.47799 508.9288c-1.17067 0-2.22133-.64533-2.22133-2.03867v-1.81466c0-1.39334 1.01066-2.03067 2.16533-2.03067.676 0 1.37733.19867 1.91067.53333.072.048.08.112.04.16667l-.39734.54933c-.04.064-.096.064-.16.0333-.41466-.248-.884-.37467-1.40133-.37467-.684 0-1.19467.36533-1.19467 1.14667v1.78266c0 .788.57334 1.13867 1.25867 1.13867.47733 0 .876-.15067 1.11467-.33333v-1.21067h-1.06667c-.072 0-.112-.04-.112-.12v-.62133c0-.0787.04-.11867.112-.11867h1.89467c.072 0 .112.04.112.11867v2.23733c0 .064-.009.104-.04.128-.44667.47867-1.13867.828-2.01467.828"/><path id="path3836" d="M493.18132 508.10067c.56533 0 .884-.27067.884-.78V506.254c0-.52666-.31867-.81333-.884-.81333-.57333 0-.884.28667-.884.81333v1.06667c0 .50933.31067.78.884.78m0 .828c-1.09867 0-1.816-.62-1.816-1.608V506.254c0-1.004.71733-1.64133 1.816-1.64133s1.816.63733 1.816 1.64133v1.06667c0 .988-.71733 1.608-1.816 1.608"/><path id="path3840" d="M496.94639 508.83334c-.0707 0-.11067-.032-.136-.096l-1.39333-3.90133c-.0307-.0707.009-.12667.0893-.12667h.73867c.072 0 .12.0307.136.0867l.97866 3.08133h.016l.98-3.08133c.016-.056.064-.0867.128-.0867h.748c.08 0 .112.056.088.12667l-1.40133 3.90133c-.024.064-.072.096-.136.096z"/><path id="path3844" d="M501.49892 505.42547c-.46933 0-.82.22267-.82.812v.20667h1.64v-.20667c0-.58133-.37333-.812-.82-.812m1.72 1.624c0 .072-.04.112-.12.112h-2.42v.22267c0 .48533.33467.732.844.732.49467 0 .828-.16667 1.12267-.36534.056-.04.12-.032.16.024l.32666.43734c.0467.056.0387.12-.024.16666-.42266.33467-.94.55067-1.61733.55067-.89867 0-1.744-.49467-1.744-1.55333v-1.13067c0-1.17067.87733-1.632 1.752-1.632.868 0 1.72.46133 1.72 1.632z"/><path id="path3848" d="M504.13465 508.83334c-.08 0-.12-.04-.12-.12v-3.66267c0-.0627.024-.11066.088-.13466.40533-.19867.908-.30267 1.39333-.30267.24667 0 .51067.016.812.064.072.008.10267.0547.10267.11867v.57333c0 .072-.0467.112-.12667.096-.19866-.032-.42933-.032-.644-.032-.288 0-.55066.048-.70133.112v3.168c0 .08-.04.12-.11867.12z"/><path id="path3852" d="M507.19159 508.83334c-.08 0-.12-.04-.12-.12v-3.64533c0-.0653.024-.112.088-.144.46133-.19867 1.01867-.31067 1.584-.31067 1.09867 0 1.848.50933 1.848 1.784v2.316c0 .08-.04.12-.112.12h-.692c-.072 0-.12-.04-.12-.12v-2.3c0-.74933-.34133-.972-.924-.972-.27067 0-.56533.04-.748.088v3.184c0 .08-.04.12-.11867.12z"/><path id="path3856" d="M513.19612 508.10067c.56533 0 .884-.27067.884-.78V506.254c0-.52666-.31867-.81333-.884-.81333-.57333 0-.884.28667-.884.81333v1.06667c0 .50933.31067.78.884.78m0 .828c-1.09867 0-1.81467-.62-1.81467-1.608V506.254c0-1.004.716-1.64133 1.81467-1.64133s1.816.63733 1.816 1.64133v1.06667c0 .988-.71733 1.608-1.816 1.608"/><path id="path3860" d="M519.30399 508.11694c.26933 0 .55733-.04.748-.112v-2.364c-.19067-.128-.45333-.208-.764-.208-.57333 0-.9.264-.9.868v.884c0 .684.34267.932.916.932m.748-4.85733c0-.0787.04-.11867.12-.11867h.684c.08 0 .12.04.12.11867v5.24666c0 .072-.024.112-.088.136-.47733.17467-1.09067.28667-1.608.28667-1.052 0-1.824-.54133-1.824-1.752v-.876c0-1.03467.73333-1.688 1.736-1.688.31867 0 .62133.072.86.176z"/><path id="path3864" d="M523.56425 505.42547c-.46933 0-.82.22267-.82.812v.20667h1.64v-.20667c0-.58133-.37333-.812-.82-.812m1.72 1.624c0 .072-.04.112-.11867.112h-2.42133v.22267c0 .48533.33467.732.844.732.49467 0 .828-.16667 1.12267-.36534.056-.04.12-.032.16.024l.32533.43734c.048.056.0413.12-.0227.16666-.42266.33467-.94.55067-1.61733.55067-.89867 0-1.74267-.49467-1.74267-1.55333v-1.13067c0-1.17067.87467-1.632 1.75067-1.632.868 0 1.72.46133 1.72 1.632z"/></g><g id="g15206"><path id="path3868" d="M486.64292 526.89214c-.28667 0-.44-.15467-.44-.44v-14.86c0-.28533.15333-.44.44-.44h3.764c.24267 0 .39733.10933.50667.33067l1.40933 2.83866c.72667 1.476 1.67333 3.74267 2.048 4.68934h.0867c.37466-.94667 1.32133-3.21334 2.048-4.68934l1.40933-2.83866c.10933-.22134.26267-.33067.50533-.33067h3.764c.28667 0 .44134.15467.44134.44v14.86c0 .28533-.15467.44-.44134.44h-3.34533c-.28667 0-.44-.15467-.44-.44v-1.60667c0-1.96.088-4.73466.24133-7.156l-.11066-.0213c-.32934.90267-1.34134 3.28-2.00267 4.73333l-.37333.81467c-.11067.24133-.26534.32933-.50667.32933h-2.46533c-.24267 0-.396-.088-.50667-.32933l-.37467-.81467c-.66-1.45333-1.67333-3.83066-2.00266-4.73333l-.11067.0213c.15467 2.42134.24267 5.196.24267 7.156v1.60667c0 .28533-.15467.44-.44.44z"/><path id="path3872" d="M509.61785 524.052c.308 0 .704-.044.94667-.088v-1.49733c-.308-.0653-.63867-.10934-.968-.10934-.816 0-1.23334.28667-1.23334.792 0 .57334.44.90267 1.25467.90267m0-8.96c3.324 0 5.01867 1.74 5.01867 5.30533v5.724c0 .24267-.10934.41867-.37334.484-1.432.41867-3.25866.59467-4.624.59467-3.72 0-5.41466-1.40933-5.41466-3.896 0-2.20133 1.65066-3.34667 4.776-3.34667.63866 0 1.14533.044 1.564.11067v-.044c0-.83733-.264-1.45333-1.54134-1.45333-.836 0-1.91466.22-2.488.50533-.24133.13333-.46133.088-.59333-.15333l-1.01333-2.13467c-.15467-.24267-.15467-.41867 0-.52933 1.03466-.616 2.708-1.16667 4.68933-1.16667"/><path id="path3876" d="M521.62972 523.61174c.19733 0 .37333-.0213.55067-.044.308-.044.484.0667.484.37467v2.576c0 .24133-.11067.44-.352.50533-.37467.11067-.88134.176-1.54134.176-2.796 0-4.44666-1.60667-4.44666-4.35867v-9.73066c0-.28534.15333-.43867.44-.43867h2.84c.264 0 .44.13067.46266.41733l.28534 2.64134h1.67333c.28667 0 .44.15466.44.44133v2.53067c0 .28666-.15333.44-.44.44h-1.62933v3.06133c0 .968.396 1.408 1.23333 1.408"/><path id="path3880" d="M529.22439 523.61174c.81467 0 1.25467-.46267 1.25467-1.27733v-2.35467c0-.81467-.44-1.29867-1.25467-1.29867s-1.25467.484-1.25467 1.29867v2.35467c0 .81466.44 1.27733 1.25467 1.27733m0 3.588c-3.39067 0-5.39333-1.78267-5.39333-4.86533v-2.35467c0-3.104 2.00266-4.88667 5.39333-4.88667 3.38933 0 5.39333 1.78267 5.39333 4.88667v2.35467c0 3.08266-2.004 4.86533-5.39333 4.86533"/></g><g id="g15200"><path id="path3884" d="M492.27865 545.3376c-4.18267 0-6.53867-2.268-6.53867-6.09867v-4.248c0-3.74266 2.42134-6.00933 6.62667-6.00933 1.89333 0 3.852.528 5.304 1.40933.24267.15334.26533.396.11067.616l-1.82667 2.62c-.15333.24134-.352.26267-.59467.10934-.76933-.44-1.82666-.68267-2.99333-.68267-1.49733 0-2.24533.79333-2.24533 2.092v3.94c0 1.364.704 2.15733 2.15733 2.15733.63867 0 1.32133-.132 1.89333-.37466v-1.82667h-1.828c-.28533 0-.44-.15333-.44-.44v-2.532c0-.28533.15467-.44.44-.44h5.43734c.28666 0 .44133.15467.44133.44v6.472c0 .22-.0667.37467-.19867.50667-1.43066 1.408-3.56666 2.28933-5.74533 2.28933"/><path id="path3888" d="M500.61119 545.02947c-.28533 0-.44-.15333-.44-.44v-9.884c0-.24267.088-.396.308-.52933 1.27733-.63734 2.708-.94667 4.24933-.94667.616 0 1.276.0893 2.02534.22133.264.0653.396.22.396.484v2.444c0 .28534-.176.44-.46267.396-.33067-.0453-.68267-.0667-1.01333-.0667-.54934 0-1.012.0667-1.43067.24266v7.63867c0 .28667-.15333.44-.44.44z"/><path id="path3892" d="M513.56065 541.7496c.81467 0 1.25467-.46267 1.25467-1.27733v-2.35467c0-.81467-.44-1.29867-1.25467-1.29867s-1.25467.484-1.25467 1.29867v2.35467c0 .81466.44 1.27733 1.25467 1.27733m0 3.588c-3.38933 0-5.39333-1.78267-5.39333-4.86533v-2.35467c0-3.104 2.004-4.888 5.39333-4.888 3.39067 0 5.39333 1.784 5.39333 4.888v2.35467c0 3.08266-2.00266 4.86533-5.39333 4.86533"/><path id="path3896" d="M524.80399 545.3376c-1.56267 0-3.25867-.48533-4.66667-1.45333-.24266-.15334-.264-.37334-.132-.616l1.232-2.06934c.15467-.264.352-.308.59467-.15333.94667.59333 1.91467.88 2.972.88.748 0 1.144-.19733 1.144-.55067 0-.28533-.396-.484-1.16667-.59466-3.03733-.46134-4.468-1.76-4.468-3.78534 0-2.37733 1.71734-3.76533 5.04134-3.76533 1.364 0 2.664.28667 4.05066.99067.264.132.308.352.15334.616l-1.25467 2.004c-.15333.24266-.352.28533-.59467.15466-.704-.352-1.56266-.55066-2.37733-.55066-.616 0-.968.088-.968.484 0 .352.19733.484 1.54133.68266 2.72934.44 4.16 1.71734 4.16 3.69867 0 2.66267-1.67333 4.028-5.26133 4.028"/><path id="path3900" d="M535.85732 545.3376c-1.56267 0-3.25733-.48533-4.66667-1.45333-.24266-.15334-.264-.37334-.132-.616l1.23334-2.06934c.15333-.264.352-.308.59466-.15333.94534.59333 1.91334.88 2.97067.88.74933 0 1.14533-.19733 1.14533-.55067 0-.28533-.396-.484-1.16666-.59466-3.03867-.46134-4.46934-1.76-4.46934-3.78534 0-2.37733 1.71734-3.76533 5.04134-3.76533 1.36533 0 2.664.28667 4.05066.99067.264.132.308.352.15467.616l-1.25467 2.004c-.15466.24266-.35333.28533-.59466.15466-.70534-.352-1.564-.55066-2.37867-.55066-.616 0-.968.088-.968.484 0 .352.19867.484 1.54133.68266 2.72934.44 4.16 1.71734 4.16 3.69867 0 2.66267-1.67333 4.028-5.26133 4.028"/><path id="path3904" d="M547.71692 541.7496c.81467 0 1.25467-.46267 1.25467-1.27733v-2.35467c0-.81467-.44-1.29867-1.25467-1.29867s-1.25467.484-1.25467 1.29867v2.35467c0 .81466.44 1.27733 1.25467 1.27733m0 3.588c-3.38933 0-5.39333-1.78267-5.39333-4.86533v-2.35467c0-3.104 2.004-4.888 5.39333-4.888 3.39067 0 5.39333 1.784 5.39333 4.888v2.35467c0 3.08266-2.00266 4.86533-5.39333 4.86533"/></g></g><path id="path3908" fill="#fff" stroke-width="1.57467699" d="M317.1415 643.84388H159.12581v63.83111H317.1415v-63.2784zm-.55271 63.2784h-156.9087v-62.72412h156.9087z"/><g id="text3918" fill="#232c77" stroke-width="1.57467699" aria-label="SEMASecretariade Estado deMeio Ambiente" font-family="UniNeueBold" font-size="9.00730991" font-stretch="normal" font-variant="normal" font-weight="700" style="-inkscape-font-specification:UniNeueBold" writing-mode="lr-tb"><path id="path599" d="M135.33362 660.25102q0 .96758-.82244 1.57452-.81805.60253-2.22544.60253-.81365 0-1.42059-.14073-.60254-.14514-1.13031-.36505v-1.57012h.18472q.52337.41782 1.1699.64212.65091.22431 1.24906.22431.15393 0 .40462-.0264.25069-.0264.40902-.088.19352-.0792.31667-.19792.12754-.11875.12754-.35185 0-.2155-.18472-.36944-.18032-.15833-.53217-.24189-.36944-.088-.78286-.16273-.40902-.0792-.76967-.19792-.82684-.26828-1.19188-.72568-.36065-.4618-.36065-1.14351 0-.9148.81805-1.49095.82244-.58055 2.11109-.58055.64652 0 1.27545.12754.63332.12315 1.09512.31227v1.50854h-.18032q-.39583-.31666-.97198-.52777-.57175-.2155-1.16989-.2155-.21111 0-.42222.0308-.20671.0264-.40023.10556-.17152.066-.29467.20231-.12315.13194-.12315.30347 0 .25949.19792.40023.19791.13634.74767.25069.36065.0748.69051.14513.33425.0704.71689.19352.75207.24629 1.10832.67291.36064.42222.36064 1.09953z"/><path id="path601" d="M140.35383 662.30933h-4.73676v-6.54878h4.73676v1.26666h-3.05668v1.13031h2.83677v1.26665h-2.83677v1.6185h3.05668z"/><path id="path603" d="M147.67973 662.30933h-1.68008v-4.38491l-1.21387 2.84557h-1.1655l-1.21388-2.84557v4.38491h-1.59211v-6.54878h1.96155l1.47337 3.28539 1.46896-3.28539h1.96156z"/><path id="path605" d="M154.73037 662.30933h-1.74605l-.453-1.32383h-2.42776l-.453 1.32383h-1.70206l2.41895-6.54878h1.94396zm-2.60808-2.52451-.80485-2.34859-.80485 2.34859z"/><path id="path607" d="M118.81421 671.05979q0 .96758-.82244 1.57452-.81805.60254-2.22544.60254-.81365 0-1.42059-.14074-.60254-.14513-1.13031-.36504v-1.57012h.18472q.52338.41782 1.1699.64212.65092.2243 1.24906.2243.15393 0 .40462-.0264.25069-.0264.40903-.088.19351-.0792.31666-.19791.12754-.11875.12754-.35185 0-.21551-.18472-.36944-.18032-.15833-.53217-.2419-.36944-.088-.78286-.16272-.40902-.0792-.76967-.19792-.82684-.26828-1.19188-.72569-.36065-.4618-.36065-1.1435 0-.91481.81805-1.49096.82245-.58055 2.11109-.58055.64652 0 1.27545.12755.63332.12314 1.09513.31226v1.50855h-.18033q-.39583-.31666-.97198-.52777-.57175-.21551-1.16989-.21551-.21111 0-.42222.0308-.20671.0264-.40023.10555-.17152.066-.29467.20232-.12315.13194-.12315.30346 0 .25949.19792.40023.19791.13634.74768.25069.36064.0748.6905.14514.33425.0704.71689.19352.75207.24629 1.10832.67291.36064.42221.36064 1.09952z"/><path id="path609" d="M123.98119 670.94104h-3.62403q.0352.58055.43981.88842.40902.30787 1.20068.30787.50138 0 .97198-.18033.4706-.18032.74328-.38703h.17592v1.27105q-.53657.21551-1.01156.31227-.47499.0968-1.05115.0968-1.48655 0-2.27821-.66852-.79166-.66851-.79166-1.90437 0-1.22267.74768-1.93517.75207-.71689 2.05831-.71689 1.20508 0 1.81202.61134.60693.60694.60693 1.75044zm-1.57452-.928q-.0132-.49698-.24629-.74767-.2331-.25069-.72569-.25069-.4574 0-.75207.23749-.29467.2375-.32986.76087z"/><path id="path611" d="M126.42044 673.25005q-.64652 0-1.18309-.15394-.53217-.15393-.928-.47499-.39143-.32106-.60693-.80925-.21551-.48819-.21551-1.14351 0-.6905.2287-1.19188.2331-.50139.64652-.83125.40023-.31226.9236-.4574.52338-.14514 1.08633-.14514.50578 0 .9324.10996.42662.10995.79606.28587v1.35022h-.22431q-.0924-.0792-.2243-.18472-.12754-.10555-.31666-.20671-.18032-.0968-.39583-.15833-.21551-.066-.50139-.066-.63332 0-.97637.40462-.33866.40023-.33866 1.09073 0 .71249.34745 1.08193.35185.36944.99397.36944.29907 0 .53657-.066.2419-.0704.40023-.16273.14953-.088.26388-.18472.11436-.0968.21111-.18912h.22431v1.35022q-.37384.17593-.78287.27708-.40462.10556-.89721.10556z"/><path id="path613" d="M131.71687 669.68758h-.14074q-.10116-.0352-.32546-.0528-.2243-.0176-.37384-.0176-.33865 0-.59814.044t-.55856.14953v3.30737h-1.58332v-4.93906h1.58332v.72568q.52337-.4486.91041-.59374.38703-.14954.71249-.14954.0836 0 .18912.004.10555.004.18472.0132z"/><path id="path615" d="M136.45991 670.94104h-3.62404q.0352.58055.43981.88842.40903.30787 1.20068.30787.50139 0 .97198-.18033.4706-.18032.74328-.38703h.17593v1.27105q-.53657.21551-1.01157.31227-.47499.0968-1.05114.0968-1.48656 0-2.27822-.66852-.79166-.66851-.79166-1.90437 0-1.22267.74768-1.93517.75208-.71689 2.05831-.71689 1.20508 0 1.81202.61134.60694.60694.60694 1.75044zm-1.57452-.928q-.0132-.49698-.2463-.74767-.2331-.25069-.72568-.25069-.45741 0-.75208.23749-.29467.2375-.32986.76087z"/><path id="path617" d="M139.43365 673.07412q-.25509.066-.54097.10116-.28587.0396-.69929.0396-.9236 0-1.37661-.37384-.44861-.37384-.44861-1.27984v-2.30901h-.65091v-1.07313h.65091v-1.41179h1.58332v1.41179h1.48216v1.07313h-1.48216v1.75045q0 .25948.004.453.004.19352.0704.34745.0616.15393.21551.24629.15833.088.4574.088.12314 0 .32106-.0528.20231-.0528.28148-.0968h.13194z"/><path id="path619" d="M142.41281 671.82946v-1.02916q-.32106.0264-.6949.0748-.37384.044-.56736.10556-.23749.0748-.36504.2199-.12315.14074-.12315.37384 0 .15393.0264.25069.0264.0968.13195.18472.10115.088.24189.13194.14074.0396.43981.0396.2375 0 .47939-.0968.2463-.0968.43102-.25509zm0 .76527q-.12755.0968-.31666.2331-.18912.13634-.35625.21551-.2331.10555-.48379.15393-.25069.0528-.54976.0528-.7037 0-1.1787-.43542-.47499-.43541-.47499-1.11272 0-.54096.2419-.88401.24189-.34306.6861-.54097.43981-.19791 1.09073-.28148.65092-.0836 1.35021-.12315v-.0264q0-.40903-.33425-.56296-.33426-.15833-.98518-.15833-.39143 0-.83563.14074-.44421.13634-.63773.21111h-.14514v-1.19189q.2507-.066.81365-.15393.56736-.0924 1.13471-.0924 1.35022 0 1.94836.41782.60254.41342.60254 1.30183v3.36015h-1.57012z"/><path id="path621" d="M147.6427 669.68758h-.14074q-.10115-.0352-.32546-.0528-.2243-.0176-.37383-.0176-.33866 0-.59815.044-.25948.044-.55855.14953v3.30737h-1.58332v-4.93906h1.58332v.72568q.52337-.4486.9104-.59374.38703-.14954.71249-.14954.0836 0 .18912.004.10556.004.18472.0132z"/><path id="path623" d="M149.10477 673.1181h-1.58332v-4.93906h1.58332zm.044-5.64276h-1.67128v-1.20068h1.67128z"/><path id="path625" d="M152.67573 671.82946v-1.02916q-.32106.0264-.6949.0748-.37384.044-.56735.10556-.2375.0748-.36504.2199-.12315.14074-.12315.37384 0 .15393.0264.25069.0264.0968.13194.18472.10116.088.2419.13194.14074.0396.43981.0396.23749 0 .47939-.0968.24629-.0968.43101-.25509zm0 .76527q-.12754.0968-.31666.2331-.18912.13634-.35625.21551-.2331.10555-.48379.15393-.25069.0528-.54976.0528-.7037 0-1.17869-.43542-.475-.43541-.475-1.11272 0-.54096.2419-.88401.2419-.34306.6861-.54097.43981-.19791 1.09073-.28148.65092-.0836 1.35022-.12315v-.0264q0-.40903-.33426-.56296-.33425-.15833-.98517-.15833-.39143 0-.83564.14074-.44421.13634-.63772.21111h-.14514v-1.19189q.25069-.066.81365-.15393.56735-.0924 1.13471-.0924 1.35021 0 1.94835.41782.60254.41342.60254 1.30183v3.36015h-1.57012z"/><path id="path627" d="M108.63063 683.92682h-1.58331v-.51458q-.40903.33426-.76527.49259-.35625.15833-.82245.15833-.90161 0-1.44257-.6949-.54097-.6949-.54097-1.87359 0-.62893.18032-1.11272.18472-.48819.50139-.83564.29907-.32986.72568-.51018.42662-.18472.85323-.18472.44421 0 .72569.0968.28588.0924.58495.2375v-2.1023h1.58331zm-1.58331-1.36341v-2.42336q-.16713-.0704-.35185-.10115-.18472-.0308-.33865-.0308-.62453 0-.9368.39143-.31226.38704-.31226 1.07754 0 .72568.25069 1.05554.25069.32546.80485.32546.21551 0 .4574-.0792.2419-.0836.42662-.2155z"/><path id="path629" d="M113.60117 681.74976h-3.62404q.0352.58055.43981.88842.40902.30786 1.20068.30786.50139 0 .97198-.18032.4706-.18032.74328-.38703h.17593v1.27105q-.53657.21551-1.01157.31226-.47499.0968-1.05114.0968-1.48656 0-2.27822-.66851t-.79166-1.90438q0-1.22267.74768-1.93516.75207-.71689 2.05831-.71689 1.20508 0 1.81202.61133.60694.60694.60694 1.75045zm-1.57452-.928q-.0132-.49699-.2463-.74768t-.72568-.25069q-.45741 0-.75208.2375t-.32986.76087z"/><path id="path631" d="M120.227 683.92682h-4.73676v-6.54877h4.73676v1.26665h-3.05668v1.13031h2.83677v1.26665h-2.83677v1.61851h3.05668z"/><path id="path633" d="M125.07938 682.3611q0 .76526-.6861 1.23586-.6861.4662-1.87799.4662-.65971 0-1.19628-.12315-.53657-.12314-.86203-.27268v-1.30184h.14514q.11875.0836.27268.18472.15833.0968.44421.21111.24629.10116.55856.17593.31226.0704.66851.0704.4662 0 .6905-.10116.2243-.10555.2243-.30787 0-.18032-.13194-.25949-.13194-.0836-.50138-.15833-.17593-.0396-.4794-.0836-.29907-.0484-.54536-.11435-.67291-.17593-.99837-.54537-.32546-.37383-.32546-.928 0-.71249.67291-1.18308.67731-.475 1.8472-.475.55416 0 1.05995.11435.51018.10995.79605.2375v1.24906h-.13634q-.35185-.2419-.80485-.39143-.44861-.15394-.91041-.15394-.38263 0-.64652.10556-.25949.10555-.25949.29907 0 .17592.11875.26828.11875.0924.55856.18472.2419.0484.51898.0968.28147.044.56295.11435.62453.16273.9236.51458.29907.34745.29907.87083z"/><path id="path635" d="M128.297 683.88284q-.25509.066-.54097.10115-.28587.0396-.69929.0396-.92361 0-1.37661-.37384-.44861-.37384-.44861-1.27985v-2.309h-.65091v-1.07314h.65091v-1.41179h1.58332v1.41179h1.48216v1.07314h-1.48216v1.75044q0 .25949.004.45301.004.19351.0704.34745.0616.15393.21551.24629.15833.088.4574.088.12314 0 .32106-.0528.20231-.0528.28148-.0968h.13194z"/><path id="path637" d="M131.27706 682.63818v-1.02916q-.32106.0264-.6949.0748-.37384.044-.56736.10555-.23749.0748-.36504.21991-.12315.14074-.12315.37384 0 .15393.0264.25069.0264.0968.13195.18472.10115.088.24189.13194.14074.0396.43981.0396.2375 0 .4794-.0967.24629-.0968.43101-.25509zm0 .76526q-.12755.0968-.31666.2331-.18912.13635-.35625.21551-.2331.10556-.48379.15393-.25069.0528-.54976.0528-.7037 0-1.1787-.43541-.47499-.43541-.47499-1.11272 0-.54097.2419-.88402.24189-.34305.6861-.54096.43981-.19792 1.09073-.28148.65092-.0836 1.35022-.12315v-.0264q0-.40902-.33426-.56295-.33426-.15834-.98518-.15834-.39143 0-.83563.14074-.44421.13634-.63773.21111h-.14514v-1.19188q.2507-.066.81365-.15394.56736-.0924 1.13471-.0924 1.35022 0 1.94836.41782.60254.41342.60254 1.30184v3.36015h-1.57012z"/><path id="path639" d="M137.73685 683.92682h-1.58332v-.51458q-.40902.33426-.76527.49259-.35624.15833-.82244.15833-.90161 0-1.44258-.6949-.54096-.6949-.54096-1.87359 0-.62893.18032-1.11272.18472-.48819.50138-.83564.29907-.32986.72569-.51018.42661-.18472.85323-.18472.44421 0 .72569.0968.28587.0924.58494.2375v-2.1023h1.58332zm-1.58332-1.36341v-2.42336q-.16712-.0704-.35184-.10115-.18472-.0308-.33866-.0308-.62453 0-.93679.39143-.31227.38704-.31227 1.07754 0 .72568.25069 1.05554.25069.32546.80486.32546.2155 0 .4574-.0792.24189-.0836.42661-.2155z"/><path id="path641" d="M142.89209 681.45948q0 1.21828-.71249 1.92197-.70809.6993-1.99234.6993-1.28424 0-1.99674-.6993-.70809-.70369-.70809-1.92197 0-1.22707.71249-1.92636.71689-.6993 1.99234-.6993 1.29304 0 1.99674.70369.70809.7037.70809 1.92197zm-1.94835 1.20069q.15393-.18912.2287-.45301.0792-.26828.0792-.73888 0-.43541-.0792-.73008-.0792-.29468-.21991-.4706-.14074-.18032-.33865-.25509-.19792-.0748-.42662-.0748t-.40902.0616q-.17592.0616-.33865.24629-.14514.17152-.2331.4706-.0836.29907-.0836.75207 0 .40463.0748.7037.0748.29467.21991.47499.14073.17153.33425.25069.19792.0792.44861.0792.2155 0 .40902-.0704.19791-.0748.33426-.24629z"/><path id="path643" d="M149.52739 683.92682h-1.58331v-.51458q-.40903.33426-.76527.49259-.35625.15833-.82245.15833-.90161 0-1.44257-.6949-.54097-.6949-.54097-1.87359 0-.62893.18032-1.11272.18472-.48819.50138-.83564.29908-.32986.72569-.51018.42662-.18472.85323-.18472.44421 0 .72569.0968.28588.0924.58495.2375v-2.1023h1.58331zm-1.58331-1.36341v-2.42336q-.16713-.0704-.35185-.10115-.18472-.0308-.33866-.0308-.62453 0-.93679.39143-.31227.38704-.31227 1.07754 0 .72568.2507 1.05554.25069.32546.80485.32546.21551 0 .4574-.0792.2419-.0836.42662-.2155z"/><path id="path645" d="M154.49796 681.74976h-3.62403q.0352.58055.43981.88842.40902.30786 1.20068.30786.50138 0 .97198-.18032.4706-.18032.74328-.38703h.17592v1.27105q-.53657.21551-1.01156.31226-.475.0968-1.05115.0968-1.48655 0-2.27821-.66851t-.79166-1.90438q0-1.22267.74768-1.93516.75207-.71689 2.05831-.71689 1.20508 0 1.81201.61133.60694.60694.60694 1.75045zm-1.57452-.928q-.0132-.49699-.24629-.74768-.2331-.25069-.72569-.25069-.4574 0-.75207.2375-.29468.2375-.32986.76087z"/><path id="path647" d="M102.20632 694.7356h-1.68008v-4.38491l-1.213875 2.84557h-1.165496l-1.213876-2.84557v4.38491H95.34088v-6.54878h1.961553l1.473364 3.28539 1.468963-3.28539h1.96156z"/><path id="path649" d="M107.81489 692.55854h-3.62404q.0352.58055.43981.88841.40903.30787 1.20068.30787.50139 0 .97198-.18032.4706-.18032.74328-.38704h.17593v1.27106q-.53657.2155-1.01157.31226-.47499.0968-1.05114.0968-1.48656 0-2.27822-.66851t-.79166-1.90438q0-1.22267.74768-1.93516.75208-.71689 2.05831-.71689 1.20508 0 1.81202.61133.60694.60694.60694 1.75045zm-1.57452-.928q-.0132-.49699-.2463-.74768t-.72568-.25069q-.45741 0-.75208.2375-.29467.23749-.32986.76087z"/><path id="path651" d="M109.2051 694.7356h-1.58332v-4.93907h1.58332zm.044-5.64277h-1.67128v-1.20068h1.67128z"/><path id="path653" d="M114.78752 692.26826q0 1.21828-.71249 1.92197-.7081.6993-1.99234.6993-1.28425 0-1.99674-.6993-.7081-.70369-.7081-1.92197 0-1.22707.7125-1.92637.71689-.69929 1.99234-.69929 1.29304 0 1.99673.70369.7081.7037.7081 1.92197zm-1.94836 1.20068q.15393-.18912.2287-.453.0792-.26829.0792-.73888 0-.43541-.0792-.73009-.0792-.29467-.2199-.47059-.14074-.18033-.33866-.25509-.19791-.0748-.42661-.0748t-.40903.0616q-.17592.0616-.33865.2463-.14514.17152-.2331.47059-.0836.29907-.0836.75208 0 .40462.0748.70369.0748.29468.21991.475.14074.17152.33425.25069.19792.0792.44861.0792.21551 0 .40902-.0704.19792-.0748.33426-.2463z"/><path id="path655" d="M122.75984 694.7356h-1.74605l-.453-1.32383h-2.42775l-.45301 1.32383h-1.70206l2.41895-6.54878h1.94396zm-2.60807-2.52451-.80486-2.34859-.80485 2.34859z"/><path id="path657" d="M127.36699 691.23471v3.50089h-1.59211v-2.46734q0-.36064-.0176-.61133-.0176-.25509-.0968-.41343-.0792-.15833-.2419-.2287-.15833-.0748-.4486-.0748-.2331 0-.45301.0968-.2199.0924-.39583.19792v3.50089h-1.58331v-4.93907h1.58331v.54536q.40903-.32106.78286-.50138.37384-.18032.82685-.18032.48819 0 .86203.2199.37383.21551.58494.63773.475-.40023.9236-.62893.44861-.2287.87962-.2287.80046 0 1.21388.47939.41782.47939.41782 1.381v3.21502h-1.59211v-2.46734q0-.36504-.0176-.61573-.0132-.25069-.0924-.40903-.0748-.15833-.23749-.2287-.16273-.0748-.45741-.0748-.19791 0-.38703.0704-.18912.066-.4618.22431z"/><path id="path659" d="M135.07033 692.19789q0 1.1655-.64652 1.89998-.64213.73448-1.60531.73448-.41342 0-.72569-.088-.31226-.088-.59374-.25509l-.066.2463h-1.51735v-6.84345h1.58332v2.41896q.36504-.29028.74328-.4706.38263-.18032.87962-.18032.93679 0 1.44257.67731.50579.6729.50579 1.86039zm-1.6317.0308q0-.65972-.2243-1.01596-.22431-.35625-.80046-.35625-.2243 0-.4618.0704-.23749.066-.453.19352v2.48053q.17152.0616.32546.0836.15393.022.36944.022.62893 0 .93679-.36944.30787-.36944.30787-1.10832z"/><path id="path661" d="M136.39996 694.7356h-1.58331v-4.93907h1.58331zm.044-5.64277h-1.67127v-1.20068h1.67127z"/><path id="path663" d="M141.79766 692.55854h-3.62403q.0352.58055.43981.88841.40902.30787 1.20068.30787.50138 0 .97198-.18032.47059-.18032.74328-.38704h.17592v1.27106q-.53657.2155-1.01156.31226-.475.0968-1.05115.0968-1.48656 0-2.27821-.66851-.79166-.66851-.79166-1.90438 0-1.22267.74767-1.93516.75208-.71689 2.05832-.71689 1.20507 0 1.81201.61133.60694.60694.60694 1.75045zm-1.57452-.928q-.0132-.49699-.24629-.74768-.2331-.25069-.72569-.25069-.4574 0-.75207.2375-.29468.23749-.32986.76087z"/><path id="path665" d="M146.58903 694.7356h-1.59211v-2.44975q0-.29907-.0308-.59374-.0308-.29907-.10555-.43981-.088-.16273-.25949-.2375-.16713-.0748-.4706-.0748-.21551 0-.43981.0704-.2199.0704-.47939.22431v3.50089h-1.58332v-4.93907h1.58332v.54536q.42222-.32985.80925-.50578.39143-.17592.86642-.17592.80046 0 1.24906.4662.45301.46619.45301 1.39419z"/><path id="path667" d="M149.78485 694.69161q-.25509.066-.54097.10116-.28588.0396-.6993.0396-.9236 0-1.3766-.37383-.44861-.37384-.44861-1.27985v-2.309h-.65092v-1.07314h.65092v-1.41179h1.58332v1.41179h1.48216v1.07314h-1.48216v1.75044q0 .25949.004.453.004.19352.0704.34745.0616.15394.21551.2463.15833.088.4574.088.12315 0 .32107-.0528.20231-.0528.28147-.0968h.13195z"/><path id="path669" d="M154.51508 692.55854h-3.62403q.0352.58055.43981.88841.40902.30787 1.20068.30787.50138 0 .97198-.18032.4706-.18032.74328-.38704h.17592v1.27106q-.53657.2155-1.01156.31226-.475.0968-1.05115.0968-1.48655 0-2.27821-.66851t-.79166-1.90438q0-1.22267.74768-1.93516.75207-.71689 2.05831-.71689 1.20508 0 1.81202.61133.60693.60694.60693 1.75045zm-1.57452-.928q-.0132-.49699-.24629-.74768-.2331-.25069-.72569-.25069-.4574 0-.75207.2375-.29468.23749-.32986.76087z"/></g></g></svg>